<svg width="245" height="200" viewBox="0 0 245 200" fill="none" xmlns="http://www.w3.org/2000/svg">
<g clip-path="url(#clip0)">
<path opacity="0.1" d="M238.566 115.939C238.566 116.091 238.566 116.243 238.566 116.392C238.54 119.012 238.385 121.626 238.101 124.232C238.103 124.248 238.103 124.264 238.101 124.28C238.079 124.496 238.054 124.711 238.029 124.927C237.987 125.293 237.942 125.657 237.892 126.023C237.313 130.48 236.354 134.878 235.026 139.171C233.247 144.971 230.732 150.519 227.543 155.678C226.561 157.256 225.516 158.782 224.408 160.258C223.816 161.04 223.212 161.805 222.588 162.557C222.15 163.084 221.704 163.602 221.25 164.111L220.967 164.425C218.577 167.053 216.001 169.506 213.26 171.762C208.785 175.478 203.966 178.711 199.071 181.71C198.793 181.882 198.512 182.051 198.231 182.208C198.211 182.222 198.19 182.235 198.169 182.245C191.516 186.275 184.617 189.911 177.509 192.823C169.727 196.018 161.692 198.342 153.448 199.358C141.957 200.772 130.327 199.622 118.905 197.644C109.407 196.009 100.023 193.763 90.8119 190.92L89.2954 190.444C88.5098 190.193 87.725 189.938 86.941 189.677C82.2057 188.108 77.5235 186.365 72.8943 184.447C61.2678 179.65 50.1609 173.675 39.7465 166.617C38.4205 165.724 37.1136 164.81 35.8258 163.877C34.0258 162.579 32.2474 161.242 30.4905 159.867L29.4066 159.026C24.8088 155.419 20.5011 151.456 16.5234 147.173C11.1732 141.34 6.60114 134.76 3.59539 127.248C3.12136 126.068 2.68712 124.865 2.29265 123.64L2.25536 123.518C2.05646 122.895 1.87249 122.272 1.70343 121.625C1.45482 120.698 1.23687 119.76 1.04958 118.81C1.0098 118.629 0.974991 118.447 0.942671 118.262C0.348453 115.066 0.0860098 111.817 0.159534 108.567C0.221714 105.719 0.554706 102.883 1.15399 100.099C1.76738 97.2122 2.71262 94.4065 3.9708 91.7379C5.10781 89.3383 6.55653 87.0998 8.27929 85.0807C9.48986 83.669 10.8513 82.3945 12.3392 81.2801C15.0366 79.2677 18.0275 77.8655 21.1277 76.7572C22.5846 76.2342 24.0614 75.7759 25.5456 75.35C26.5972 75.0462 27.6538 74.7573 28.7055 74.4733L31.8082 73.634C33.7971 73.0911 35.786 72.5332 37.7451 71.9305C43.0854 70.2967 48.3187 68.3191 53.1592 65.3703C53.925 64.9046 54.7056 64.394 55.4863 63.8461C56.4807 63.1537 57.4603 62.4016 58.4299 61.5896C59.4094 60.7677 60.369 59.8886 61.2839 58.9571C61.4257 58.8126 61.5649 58.6682 61.7041 58.5213C62.45 57.7342 63.1734 56.9099 63.8447 56.0531C64.1729 55.6347 64.4911 55.2088 64.7944 54.7754C65.2145 54.1752 65.6123 53.565 65.9803 52.9374C67.825 49.7993 68.9637 46.3374 68.8294 42.6887C68.8098 42.0876 68.7558 41.488 68.6678 40.893C68.3446 38.6939 68.0338 36.547 67.8051 34.4474C66.8455 25.7628 67.2507 17.8877 73.757 10.4882C81.8469 1.29052 94.5436 -0.584874 106.102 0.149843C139.518 2.26682 169.939 21.3794 196.672 44.1333C198.984 46.0991 201.268 48.0916 203.524 50.1106C204.092 50.6187 204.662 51.1301 205.232 51.6448C209.458 55.4579 213.62 59.4129 217.496 63.6493C217.809 63.993 218.123 64.3367 218.431 64.6829C218.62 64.8971 218.811 65.1088 218.998 65.3255C220.206 66.6953 221.379 68.0983 222.516 69.5345C225.561 73.3474 228.251 77.4325 230.551 81.7383C234.072 88.4957 236.456 95.789 237.606 103.324C238.039 106.06 238.324 108.818 238.459 111.585C238.501 112.4 238.529 113.217 238.544 114.031C238.544 114.293 238.544 114.552 238.544 114.813C238.569 115.192 238.569 115.56 238.566 115.939Z" fill="#4CAF50"/>
<path d="M98.096 111.762L94.1182 182.691L98.096 182.743L101.328 110.766L98.096 111.762Z" fill="#3F3D56"/>
<path d="M83.4279 147.699H34.2021V158.409H83.4279V147.699Z" fill="#4CAF50"/>
<path d="M86.6591 157.16V163.885H35.8099C34.0099 162.586 32.2315 161.25 30.4746 159.875V157.16H86.6591Z" fill="#3F3D56"/>
<path d="M96.8126 141.855C96.6734 142.5 96.4919 143.138 96.3004 143.773C95.7361 145.608 95.0574 147.419 94.9256 149.327C94.7491 151.847 95.4228 154.779 93.6825 156.609C93.235 157.082 92.6508 157.436 92.2505 157.942C92.1889 158.021 92.1324 158.104 92.0814 158.191C91.7234 158.783 91.6812 159.506 91.6762 160.183C91.6804 161.628 91.7742 163.071 91.9571 164.504C92.5464 169.436 93.7099 174.377 92.1809 179.032C91.9039 179.839 91.581 180.63 91.2138 181.4C90.4679 183.044 89.655 184.665 89.4113 186.446C89.2323 187.766 89.287 189.126 89.2771 190.468C88.4915 190.218 87.7067 189.962 86.9227 189.701C82.1874 188.132 77.5052 186.389 72.876 184.471C72.8884 184.404 72.9008 184.334 72.9108 184.267C73.2663 182.05 72.779 179.784 72.1873 177.622C70.9442 173.042 69.184 168.507 68.1423 163.894C67.7228 162.093 67.4477 160.26 67.3194 158.415C67.2896 158.001 67.2722 157.585 67.2697 157.17C67.2573 156.627 67.2697 156.084 67.2921 155.536C67.3443 154.442 67.3915 153.145 66.5189 152.48C66.0391 152.119 65.4051 152.056 64.8457 151.837C63.7667 151.416 63.0283 150.44 62.1731 149.658C61.7651 149.262 61.267 148.97 60.7217 148.81C60.1764 148.649 59.6003 148.624 59.043 148.736C53.4542 150.019 49.3471 154.769 44.146 157.17C43.9447 157.264 43.7433 157.354 43.5394 157.439C42.8666 157.685 42.2263 158.013 41.6326 158.415C41.2153 158.705 40.9127 159.132 40.7773 159.623C40.6456 160.151 40.7599 160.704 40.8246 161.247C40.9292 162.129 40.8914 163.023 40.7127 163.894C40.6453 164.231 40.5564 164.564 40.4467 164.89C40.2478 165.481 39.9818 166.058 39.7282 166.634C38.4022 165.74 37.0953 164.827 35.8075 163.894C34.0075 162.596 32.2291 161.259 30.4722 159.884L29.4057 159.025C24.8079 155.418 20.5002 151.455 16.5225 147.172C17.052 145.678 17.8177 144.288 18.1857 142.757C18.3945 141.877 18.4716 140.963 18.76 140.109C19.0926 139.224 19.5551 138.392 20.1323 137.644C22.2464 134.69 24.8279 132.102 27.7748 129.983C30.8551 127.771 34.4128 125.998 37.1848 123.487C38.3098 122.5 39.2795 121.349 40.0613 120.073C40.1085 119.995 40.1533 119.913 40.1931 119.823C40.4095 119.373 40.5594 118.893 40.6381 118.399C40.837 117.283 40.8071 116.058 40.9066 114.987C44.2835 115.572 47.7261 115.676 51.1321 115.296C55.0975 114.85 58.9759 113.747 62.9413 113.318C63.2397 113.283 63.5405 113.256 63.8413 113.231C65.1117 113.129 66.3846 113.106 67.66 113.121C68.7266 113.121 69.7931 113.169 70.8597 113.204L82.6018 113.602C83.902 113.647 85.2296 113.697 86.4404 114.172C87.8774 114.738 89.0285 115.863 89.9508 117.101C90.0677 117.261 90.1845 117.42 90.2939 117.584C91.0529 118.694 91.6615 119.899 92.1038 121.168C92.1511 121.298 92.1958 121.417 92.2381 121.559C92.35 121.906 92.4469 122.254 92.5339 122.608C92.6011 122.884 92.6607 123.161 92.7154 123.44C92.9889 124.82 93.1505 126.229 93.5831 127.562C93.6129 127.659 93.6452 127.756 93.68 127.851C94.1996 129.31 95.0623 130.618 95.7137 132.02C96.1834 133.035 96.5418 134.098 96.7828 135.19C97.2697 137.384 97.2799 139.657 96.8126 141.855Z" fill="#35323E"/>
<path d="M61.1215 52.7257C60.0724 51.8889 58.5508 52.5016 57.3227 53.042C56.293 53.4976 55.233 53.8813 54.1504 54.1902C53.9288 54.2756 53.6886 54.3005 53.4542 54.2624C52.957 54.1429 52.7482 53.5526 52.3777 53.194C51.7338 52.5738 50.6797 52.7208 49.8493 53.057C49.019 53.3932 48.1985 53.8789 47.3085 53.8041C46.3588 53.7294 45.5334 53.0271 44.5737 53.0047C42.8831 52.9648 41.4636 55.0519 39.865 54.499C38.8904 54.1628 38.1247 52.8926 37.165 53.2537C36.4192 53.5377 36.352 54.5712 35.902 55.2462C35.3725 56.0332 34.3407 56.2549 33.4582 56.6035C30.6762 57.7044 28.8339 60.8101 29.1969 63.7838C29.3983 65.4251 30.1914 66.9294 30.7159 68.496C32.2723 73.0512 31.7378 78.1893 33.6993 82.5826C33.9479 82.3485 34.0872 82.2614 34.3283 82.0297C33.7081 83.3184 33.5885 84.792 33.9927 86.1641C34.199 86.854 34.5347 87.4965 34.7883 88.1715C35.0517 88.9285 35.2643 89.7023 35.4247 90.4877L37.5877 100.046C38.4329 103.782 39.2807 107.518 39.4274 111.344C39.5187 113.831 39.3286 116.321 38.8606 118.766C42.7787 118.116 46.3638 116.375 50.3341 116.397C51.791 116.397 53.2355 116.646 54.6799 116.845C58.8913 117.436 63.1392 117.725 67.3916 117.71C68.053 117.747 68.7153 117.654 69.3407 117.436C69.8877 117.202 70.3352 116.786 70.8523 116.484C71.8642 115.887 73.0898 115.737 74.2558 115.737C79.5737 115.64 84.6977 117.59 89.9807 118.277C92.0666 113.892 92.1909 108.636 90.5898 104.051C90.115 102.689 89.476 101.362 89.2871 99.9294C89.2112 99.0491 89.1913 98.1648 89.2274 97.282C89.2191 95.0217 88.8126 92.7807 88.0266 90.662C87.7183 89.8327 87.3479 88.9884 87.3802 88.1042C87.4125 87.2201 87.8476 86.3957 88.2752 85.6137C89.1429 84.0197 90.0155 82.4108 91.2412 81.0659C92.4967 79.6762 94.0679 78.6177 95.6218 77.5791L99.4579 74.9989C98.9333 71.6789 98.2571 68.1822 96.8524 65.1288C95.4478 62.0753 93.347 59.2685 90.5053 57.4827C89.5472 56.9053 88.5446 56.4056 87.507 55.9884C86.0551 55.3757 84.5435 54.8352 82.9698 54.7431C81.1798 54.641 79.4171 55.1217 77.6494 55.4205C72.0854 56.3595 65.5369 56.2449 61.1215 52.7257Z" fill="#4CAF50"/>
<path d="M103.068 110.338L101.243 112.647L97.8025 116.998L93.8247 122.027L92.7133 123.431H90.5579L37.1828 123.494L3.75652 123.531H2.26483C2.06594 122.908 1.88197 122.286 1.71291 121.638C1.46429 120.712 1.24634 119.774 1.05905 118.824C1.01927 118.642 0.984468 118.46 0.952148 118.276L13.0796 110.333L17.6392 110.309L31.5865 110.229L39.3755 110.184H40.7976H41.6902L46.8812 110.157L86.4458 109.93L88.4695 109.918H89.3471L91.6717 109.905L100.321 109.855L101.982 109.223L102.104 109.352L103.068 110.338Z" fill="#3F3D56"/>
<path d="M102.322 109.091L102.115 109.34L100.758 110.941L97.9636 114.246L92.1037 121.167L40.193 119.84L1.0486 118.844C1.00882 118.662 0.974014 118.48 0.941694 118.296C0.347477 115.1 0.0850332 111.85 0.158558 108.6L4.49937 106.373L5.49383 105.86L13.2332 101.875L20.0254 98.3887L37.7416 100.695L41.6648 101.206L43.4399 101.435L46.0379 101.773L46.2567 101.803L86.9972 107.096L91.4996 107.681L94.1424 108.025L102.287 109.086L102.322 109.091Z" fill="#504F60"/>
<path d="M93.8697 121.047L93.8274 122.026L93.5788 127.552L92.2413 157.937L91.9578 164.505L91.212 181.401L90.7918 190.945L89.2753 190.469C88.4897 190.218 87.7049 189.963 86.9209 189.702L90.5581 123.453L90.6352 122.063L92.2363 121.565L93.8697 121.047Z" fill="#3F3D56"/>
<path d="M3.87105 120.975L3.75917 123.532L3.59508 127.268C3.12106 126.088 2.68681 124.885 2.29234 123.659L2.25505 123.537C2.05616 122.915 1.87218 122.292 1.70312 121.645L3.87105 120.975Z" fill="#3F3D56"/>
<path d="M68.8835 83.3166C75.1996 83.3166 80.3198 76.4032 80.3198 67.8751C80.3198 59.347 75.1996 52.4336 68.8835 52.4336C62.5675 52.4336 57.4473 59.347 57.4473 67.8751C57.4473 76.4032 62.5675 83.3166 68.8835 83.3166Z" fill="#A1616A"/>
<path opacity="0.1" d="M68.8835 83.3166C75.1996 83.3166 80.3198 76.4032 80.3198 67.8751C80.3198 59.347 75.1996 52.4336 68.8835 52.4336C62.5675 52.4336 57.4473 59.347 57.4473 67.8751C57.4473 76.4032 62.5675 83.3166 68.8835 83.3166Z" fill="black"/>
<path d="M70.4992 74.475C79.2868 74.475 86.4106 67.3385 86.4106 58.5353C86.4106 49.7321 79.2868 42.5957 70.4992 42.5957C61.7116 42.5957 54.5879 49.7321 54.5879 58.5353C54.5879 67.3385 61.7116 74.475 70.4992 74.475Z" fill="#A1616A"/>
<path d="M70.8147 33.968C69.8433 34.0456 68.8787 34.1929 67.9283 34.4088C65.4123 35.0215 63.2369 36.3814 61.1187 37.7163C60.169 38.3165 59.192 38.9417 58.6028 39.8233C57.5437 41.4048 57.9539 43.4172 57.3597 45.1731C57.0514 46.0747 56.4846 46.8841 56.0047 47.7234C54.6846 50.0247 53.9934 52.5526 53.3147 55.0556C53.1755 55.5737 53.1357 56.276 53.7001 56.4753C54.025 56.5429 54.3631 56.5045 54.6647 56.3657C56.4473 55.7754 58.7122 55.6061 60.0348 56.804C61.3574 58.002 61.2455 60.1264 62.8193 61.038C64.6217 62.0915 67.436 60.8188 69.0719 62.0616C69.773 62.5946 70.0266 63.4489 70.6009 64.0914C71.9385 65.5858 74.5116 65.5135 76.6522 65.2122C77.8803 65.0378 79.387 64.9208 80.1328 65.785C80.4908 66.1935 80.5927 66.7538 81.0079 67.1224C81.7538 67.7899 83.1187 67.4512 83.8471 66.7663C84.5755 66.0814 84.9236 65.1549 85.5302 64.3853C86.7111 62.891 88.7871 62.0766 90.0053 60.5996C91.0246 59.3544 91.3329 57.7953 91.6113 56.291L92.6481 50.7146C93.0682 48.4531 93.4511 45.9825 92.1807 43.9901C91.7282 43.2728 91.0793 42.6551 90.689 41.9129C90.4279 41.4148 90.2812 40.8893 89.9779 40.4186C89.6183 39.9282 89.1885 39.4935 88.7025 39.1285L86.2487 37.0937C85.4097 36.358 84.5126 35.6917 83.5662 35.1012C80.0632 33.0565 74.8174 33.5944 70.8147 33.968Z" fill="#464353"/>
<path d="M18.4072 75.0292C17.818 75.6568 17.2736 76.3342 16.6421 76.922C16.0866 77.4169 15.5057 77.8824 14.9018 78.3167C13.9272 79.0473 12.9742 79.8036 12.0427 80.5856C11.0709 81.3553 10.1916 82.2354 9.4223 83.2082C8.0947 84.9939 7.46571 87.2155 6.22263 89.061C5.12375 90.6973 3.57488 91.9899 2.4586 93.6138C1.96889 94.2965 1.60515 95.0616 1.38459 95.8727C1.21996 96.6578 1.14572 97.4592 1.16332 98.2612C1.14094 99.5762 1.12106 100.906 1.38956 102.194C1.65806 103.481 2.24728 104.747 3.25666 105.591C4.19393 106.375 5.40469 106.737 6.59058 107.035C7.20217 107.187 7.86349 107.329 8.44524 107.088C8.87094 106.872 9.24045 106.56 9.52423 106.176L12.5499 102.689C14.5736 100.348 16.6769 97.9573 19.4539 96.5875C20.3241 96.1616 21.2414 95.8403 22.1141 95.4269C25.8135 93.6412 28.4289 89.985 29.4432 86.0001C29.6919 85.0263 29.851 84.0326 30.0126 83.0388L30.4501 80.3141C30.4837 80.1775 30.4837 80.0348 30.4501 79.8982C30.3816 79.7446 30.2713 79.6134 30.1319 79.5196C28.0244 77.8146 26.0512 75.9495 24.2298 73.9408C23.7972 73.4626 23.392 72.8076 22.8922 72.4066C22.2657 71.9085 22.313 71.9458 21.5597 72.4066C20.4009 73.1416 19.3413 74.023 18.4072 75.0292Z" fill="#A1616A"/>
<path d="M39.1046 93.1601C39.0794 93.1023 39.0428 93.0501 38.997 93.0068C38.9513 92.9634 38.8972 92.9298 38.8381 92.908C38.779 92.8861 38.7162 92.8764 38.6533 92.8795C38.5903 92.8825 38.5287 92.8983 38.472 92.9259C38.4154 92.9534 38.3648 92.9922 38.3235 93.0398C38.2821 93.0874 38.2508 93.1428 38.2314 93.2029C38.212 93.2629 38.2049 93.3262 38.2105 93.3891C38.2162 93.4519 38.2345 93.513 38.2642 93.5686L38.0156 93.6906L45.4293 108.913L46.7693 108.258L39.3557 93.0256L39.1046 93.1601Z" fill="#3F3D56"/>
<path opacity="0.04" d="M18.4072 75.0292C17.818 75.6568 17.2736 76.3342 16.6421 76.922C16.0866 77.4169 15.5057 77.8824 14.9018 78.3167C13.9272 79.0473 12.9742 79.8036 12.0427 80.5856C11.0709 81.3553 10.1916 82.2354 9.4223 83.2082C8.0947 84.9939 7.46571 87.2155 6.22263 89.061C5.12375 90.6973 3.57488 91.9899 2.4586 93.6138C1.96889 94.2965 1.60515 95.0616 1.38459 95.8727C1.21996 96.6578 1.14572 97.4592 1.16332 98.2612C1.14094 99.5762 1.12106 100.906 1.38956 102.194C1.65806 103.481 2.24728 104.747 3.25666 105.591C4.19393 106.375 5.40469 106.737 6.59058 107.035C7.20217 107.187 7.86349 107.329 8.44524 107.088C8.87094 106.872 9.24045 106.56 9.52423 106.176L12.5499 102.689C14.5736 100.348 16.6769 97.9573 19.4539 96.5875C20.3241 96.1616 21.2414 95.8403 22.1141 95.4269C25.8135 93.6412 28.4289 89.985 29.4432 86.0001C29.6919 85.0263 29.851 84.0326 30.0126 83.0388L30.4501 80.3141C30.4837 80.1775 30.4837 80.0348 30.4501 79.8982C30.3816 79.7446 30.2713 79.6134 30.1319 79.5196C28.0244 77.8146 26.0512 75.9495 24.2298 73.9408C23.7972 73.4626 23.392 72.8076 22.8922 72.4066C22.2657 71.9085 22.313 71.9458 21.5597 72.4066C20.4009 73.1416 19.3413 74.023 18.4072 75.0292Z" fill="black"/>
<path d="M104.115 103.082C104.09 104.671 104.028 106.308 103.369 107.757C103.086 108.385 102.646 109.003 101.987 109.209C101.588 109.302 101.176 109.317 100.771 109.254C95.8936 108.825 90.9787 109.215 86.2297 110.41C87.4976 107.869 86.7692 104.823 87.1198 102.004C87.2167 101.234 87.3932 100.477 87.4604 99.7053C87.709 96.9656 86.538 94.3057 86.001 91.601C85.5348 89.2596 85.5348 86.8491 86.001 84.5078C86.0924 83.9051 86.2993 83.3259 86.6101 82.8018C86.9742 82.2919 87.4528 81.8747 88.0073 81.5839C90.0211 80.4357 92.3954 80.3037 94.6578 80.4557C96.1818 80.5578 99.2372 80.4133 100.508 81.3523C101.897 82.3809 102.337 85.8353 102.713 87.4317C103.275 89.8802 103.657 92.3666 103.857 94.8711C104.1 97.6007 104.152 100.343 104.115 103.082Z" fill="#A1616A"/>
<path d="M15.0586 108.596L24.0087 114.573L64.2843 113.079L37.6825 108.596H15.0586Z" fill="white"/>
<path d="M26.86 61.1034C25.3907 62.401 24.1452 63.9302 22.7529 65.3125C20.8436 67.2103 18.6732 68.8242 16.5127 70.4306C17.2873 70.6475 17.9924 71.0622 18.559 71.6342C19.1255 72.2061 19.5341 72.9156 19.7447 73.6933C19.8392 74.0594 19.8864 74.4404 19.9933 74.7991C20.2419 75.6484 20.7889 76.3806 21.3756 77.0406C23.8966 79.8873 27.4244 81.9943 28.9111 85.5085C28.9596 85.6795 29.0649 85.8288 29.2094 85.9319C29.3304 85.9856 29.4648 86.0012 29.5948 85.9767C30.9398 85.8348 31.9691 84.7489 32.8268 83.6929C34.6168 81.4514 36.1707 78.9757 37.0532 76.2411C37.9358 73.5065 38.0775 70.4829 37.1154 67.7732C36.6356 66.4233 35.8947 65.183 35.1588 63.9551C34.5141 62.8809 33.871 61.8083 33.2295 60.7373C32.8939 60.172 32.4663 59.0238 31.8075 58.7449C30.3854 58.1322 27.7725 60.1894 26.86 61.1034Z" fill="#4CAF50"/>
<path d="M100.087 77.2012L102.203 82.1823C99.8995 81.3761 97.4378 81.1307 95.0212 81.4663C92.6046 81.802 90.3025 82.709 88.3051 84.1125C87.0993 84.9767 85.993 86.0626 85.4485 87.4424C85.1798 87.4936 84.9021 87.4676 84.6474 87.3676C84.3927 87.2676 84.1715 87.0975 84.009 86.877C83.6908 86.4299 83.5063 85.9012 83.477 85.3528C83.2806 83.44 84.0041 81.5646 84.7201 79.7764C85.0532 78.9396 85.3963 78.0853 85.988 77.4054C86.5797 76.7255 87.3653 76.2772 88.151 75.8538C90.6573 74.4652 93.2823 73.3033 95.9948 72.3819C97.1384 72.0108 98.3367 72.0183 98.9781 73.0892C99.7215 74.3669 99.5052 75.8413 100.087 77.2012Z" fill="#4CAF50"/>
<path d="M15.1102 92.1466C15.6397 92.57 16.1047 93.0706 16.6491 93.474C17.2249 93.8746 17.8376 94.219 18.4789 94.5026L20.9303 95.6832C21.6899 96.0787 22.4848 96.4022 23.3045 96.6495C24.3537 96.9309 25.4551 96.9583 26.5092 97.2198C27.8393 97.5486 29.055 98.2335 30.3652 98.6295C31.6754 99.0255 33.2093 99.0903 34.3032 98.2659C34.9869 97.7503 35.5041 96.8986 36.3518 96.7715C36.8988 96.6993 37.4258 96.9633 37.9131 97.2198L44.2926 100.58C45.1528 101.033 46.0627 101.536 46.5127 102.4C46.9627 103.264 46.6594 104.577 45.7122 104.801C45.382 104.839 45.05 104.858 44.7177 104.858C44.3895 104.898 44.0315 105.093 43.9868 105.424C43.9851 105.629 44.0393 105.832 44.1434 106.009C44.4293 106.667 44.5139 107.454 44.1807 108.091C43.8476 108.729 43.0296 109.125 42.3758 108.838C42.4876 109.802 41.441 110.477 40.5087 110.734C38.1568 111.379 35.6632 110.983 33.2591 110.574C32.3143 110.415 31.3547 110.25 30.4945 109.827C30.0818 109.625 29.6989 109.366 29.2812 109.18C28.1351 108.669 26.8324 108.736 25.5794 108.759C19.7842 108.861 14.0387 107.785 8.34042 106.714C7.2838 106.515 6.19736 106.303 5.29489 105.718C3.55458 104.582 2.90819 102.251 3.19409 100.189C3.48 98.1264 4.52418 96.2585 5.55096 94.4454L6.88105 92.0967C7.05492 91.737 7.29829 91.4153 7.59706 91.1503C9.55366 89.6535 13.4345 90.7967 15.1102 92.1466Z" fill="#A1616A"/>
<path opacity="0.04" d="M15.1102 92.1466C15.6397 92.57 16.1047 93.0706 16.6491 93.474C17.2249 93.8746 17.8376 94.219 18.4789 94.5026L20.9303 95.6832C21.6899 96.0787 22.4848 96.4022 23.3045 96.6495C24.3537 96.9309 25.4551 96.9583 26.5092 97.2198C27.8393 97.5486 29.055 98.2335 30.3652 98.6295C31.6754 99.0255 33.2093 99.0903 34.3032 98.2659C34.9869 97.7503 35.5041 96.8986 36.3518 96.7715C36.8988 96.6993 37.4258 96.9633 37.9131 97.2198L44.2926 100.58C45.1528 101.033 46.0627 101.536 46.5127 102.4C46.9627 103.264 46.6594 104.577 45.7122 104.801C45.382 104.839 45.05 104.858 44.7177 104.858C44.3895 104.898 44.0315 105.093 43.9868 105.424C43.9851 105.629 44.0393 105.832 44.1434 106.009C44.4293 106.667 44.5139 107.454 44.1807 108.091C43.8476 108.729 43.0296 109.125 42.3758 108.838C42.4876 109.802 41.441 110.477 40.5087 110.734C38.1568 111.379 35.6632 110.983 33.2591 110.574C32.3143 110.415 31.3547 110.25 30.4945 109.827C30.0818 109.625 29.6989 109.366 29.2812 109.18C28.1351 108.669 26.8324 108.736 25.5794 108.759C19.7842 108.861 14.0387 107.785 8.34042 106.714C7.2838 106.515 6.19736 106.303 5.29489 105.718C3.55458 104.582 2.90819 102.251 3.19409 100.189C3.48 98.1264 4.52418 96.2585 5.55096 94.4454L6.88105 92.0967C7.05492 91.737 7.29829 91.4153 7.59706 91.1503C9.55366 89.6535 13.4345 90.7967 15.1102 92.1466Z" fill="black"/>
<path d="M91.0028 96.4493C89.7075 97.062 88.2208 97.1218 86.8683 97.5925C85.5159 98.0632 84.3673 98.91 83.1267 99.5999C79.8947 101.408 76.1655 102.09 72.5034 102.741C70.2832 103.139 68.0283 103.537 65.7908 103.443C62.7626 103.313 59.8538 102.302 56.9202 101.54C53.9865 100.778 50.8565 100.265 47.9502 101.122C46.4325 101.585 45.0451 102.399 43.9005 103.5C42.7558 104.6 41.8861 105.955 41.3619 107.455C40.7528 109.246 40.6683 111.176 40.7851 113.064C41.3967 113.515 42.2519 112.89 42.5851 112.205C42.9182 111.52 43.0997 110.68 43.7461 110.282C44.8674 110.663 45.1408 112.16 46.0657 112.9C46.6425 113.363 47.4132 113.485 48.1466 113.589L51.9255 114.127C52.8355 114.257 53.8921 114.344 54.5509 113.701C54.8716 113.39 55.0481 112.954 55.3415 112.621C55.9431 111.953 56.9475 111.839 57.8426 111.928C60.637 112.207 63.2574 114.023 66.0319 113.592C66.9866 113.445 67.8742 113.037 68.7841 112.715C74.1765 110.807 80.1682 111.968 85.7794 110.875C87.92 110.459 89.981 109.722 92.0171 108.945C93.1235 108.524 94.2422 108.083 95.187 107.37C96.082 106.681 96.7878 105.775 97.2383 104.738C97.6887 103.701 97.8691 102.566 97.7626 101.44C97.5545 99.7244 96.6998 98.1528 95.3734 97.0471C94.9359 96.6735 94.3616 95.9587 93.837 95.7246C92.8351 95.2838 91.853 96.0484 91.0028 96.4493Z" fill="#A1616A"/>
<g opacity="0.1">
<path opacity="0.1" d="M83.7385 64.6327C83.3233 64.2641 83.2214 63.7037 82.8634 63.2953C82.1175 62.431 80.6109 62.5481 79.3828 62.7224C77.2422 63.0238 74.6591 63.0935 73.3315 61.6017C72.7572 60.9591 72.5036 60.1073 71.8025 59.5718C70.1666 58.3266 67.3523 59.6017 65.5499 58.5482C63.9761 57.6292 64.0781 55.4973 62.7654 54.3143C61.4527 53.1312 59.1779 53.2857 57.3953 53.8759C57.0937 54.0147 56.7557 54.0531 56.4307 53.9855C55.8663 53.7863 55.9061 53.0839 56.0453 52.5659C56.7241 50.0629 57.4152 47.5349 58.7353 45.2337C59.2152 44.3943 59.782 43.5849 60.0903 42.6833C60.6298 41.1043 60.3538 39.3186 61.0624 37.8242C60.3016 38.3223 59.5707 38.8653 59.1008 39.5676C58.0417 41.1491 58.4519 43.1615 57.8577 44.9174C57.5494 45.8189 56.9826 46.6284 56.5028 47.4677C55.1826 49.769 54.4915 52.2969 53.8128 54.7999C53.6736 55.318 53.6338 56.0203 54.1981 56.2195C54.5231 56.2872 54.8611 56.2488 55.1627 56.11C56.9453 55.5197 59.2102 55.3503 60.5328 56.5483C61.8555 57.7463 61.7436 59.8707 63.3173 60.7823C65.1198 61.8358 67.9341 60.5631 69.57 61.8059C70.2711 62.3389 70.5246 63.1931 71.0989 63.8357C72.4365 65.33 75.0097 65.2578 77.1502 64.9565C78.3784 64.7821 79.885 64.6651 80.6308 65.5293C80.9888 65.9377 81.0908 66.4981 81.506 66.8667C82.2518 67.5342 83.6167 67.1955 84.3451 66.5106C84.8122 66.0233 85.2119 65.4755 85.5335 64.8817C84.8871 65.0785 84.1985 65.0486 83.7385 64.6327Z" fill="black"/>
<path opacity="0.1" d="M88.2683 61.8923C88.1081 62.0989 87.9596 62.3142 87.8232 62.5373C88.7779 61.8549 89.7898 61.2173 90.5033 60.3481C90.6885 60.1232 90.8548 59.8833 91.0005 59.6309C90.0086 60.3432 88.9743 60.9982 88.2683 61.8923Z" fill="black"/>
</g>
<path d="M138.495 111.211L139.241 182.69L142.722 182.192L141.976 111.211H138.495Z" fill="#3F3D56"/>
<path d="M159.379 124.162L160.125 195.641L163.605 195.143L162.859 124.162H159.379Z" fill="#3F3D56"/>
<path d="M224.4 160.269L224.385 158.897V158.08L224.253 145.508L224.047 125.852L224.012 124.156H220.531L220.549 125.79L220.658 136.318L220.705 140.875L220.745 144.566L220.81 150.947L220.849 154.711V155.109L220.902 160.055L220.946 164.416L221.23 164.102C221.686 163.593 222.131 163.075 222.567 162.548L224.4 160.269Z" fill="#3F3D56"/>
<path d="M155.526 135.744L153.537 138.723L155.526 152.294L172.432 156.929H199.779L216.188 157.923L224.004 152.563L222.652 143.358L216.685 135.744H155.526Z" fill="#4CAF50"/>
<path d="M153.537 138.723L152.543 146.996C152.543 146.996 147.322 163.217 189.338 162.224C231.354 161.23 224.144 157.92 224.144 157.92L223.895 148.321C223.895 148.321 225.36 152.864 204.006 152.249C182.653 151.634 162.736 149.646 162.736 149.646C162.736 149.646 155.278 150.969 153.537 138.723Z" fill="#3F3D56"/>
<path d="M188.542 64.5628C186.145 65.6561 184.33 67.7756 183.115 70.1192C181.899 72.4629 181.215 75.0356 180.541 77.5909C179.83 80.2857 179.117 82.988 178.749 85.75C178.093 90.6614 178.585 95.8244 180.837 100.235C183.09 104.646 187.252 108.205 192.124 109.054C194.006 109.386 195.941 109.318 197.843 109.122C201.28 108.757 204.667 108.009 207.939 106.892C211.357 105.734 214.915 103.951 216.436 100.666C217.319 98.7608 217.394 96.589 217.351 94.4919C217.234 88.7763 216.372 83.1005 214.788 77.6084C214.328 76.0144 213.794 74.408 212.819 73.0656C211.845 71.7232 210.512 70.7394 209.152 69.8278C203.337 65.9052 195.695 61.3051 188.542 64.5628Z" fill="#FBBEBE"/>
<path opacity="0.05" d="M188.542 64.5628C186.145 65.6561 184.33 67.7756 183.115 70.1192C181.899 72.4629 181.215 75.0356 180.541 77.5909C179.83 80.2857 179.117 82.988 178.749 85.75C178.093 90.6614 178.585 95.8244 180.837 100.235C183.09 104.646 187.252 108.205 192.124 109.054C194.006 109.386 195.941 109.318 197.843 109.122C201.28 108.757 204.667 108.009 207.939 106.892C211.357 105.734 214.915 103.951 216.436 100.666C217.319 98.7608 217.394 96.589 217.351 94.4919C217.234 88.7763 216.372 83.1005 214.788 77.6084C214.328 76.0144 213.794 74.408 212.819 73.0656C211.845 71.7232 210.512 70.7394 209.152 69.8278C203.337 65.9052 195.695 61.3051 188.542 64.5628Z" fill="black"/>
<path d="M185.849 95.9125C186.543 96.8678 187.382 97.7081 188.335 98.4031C190.702 100.042 193.74 100.264 196.614 100.353C198.921 100.423 201.566 100.291 203.013 98.4878C203.665 97.6759 203.958 96.6398 204.222 95.6311C205.848 89.4373 207.003 83.1289 207.677 76.7601L214.261 76.7825C217.11 89.0037 216.876 101.708 216.627 114.258L216.267 132.559L212.026 132.108C201.954 131.039 191.868 129.971 181.742 129.787C175.809 129.677 169.874 129.874 163.961 130.375L173.197 102.864C174.395 99.2873 175.606 95.6635 175.887 91.9052C176.292 86.4534 174.766 80.6977 176.881 75.6543C177.05 75.2483 177.264 74.8274 177.65 74.6157C178.035 74.404 178.522 74.4563 178.965 74.5136C179.8 74.6257 182.353 74.5136 182.96 75.0491C183.855 75.8261 183.263 75.9432 182.948 77.1959C182.383 79.4374 181.849 81.5121 181.856 83.8482C181.864 88.0897 183.176 92.5677 185.849 95.9125Z" fill="#4CAF50"/>
<path d="M224.4 160.269C225.508 158.795 226.553 157.268 227.535 155.689C227.037 154.623 226.49 153.582 226.055 152.494C225.389 150.825 225.006 149.057 224.628 147.301C224.499 146.703 224.371 146.105 224.243 145.508C222.851 139.005 221.543 132.41 221.272 125.817C221.247 125.269 221.231 124.721 221.225 124.174C221.225 124.094 221.225 124.017 221.225 123.924C221.225 123.324 221.225 122.724 221.225 122.126C221.255 120.632 221.349 119.125 221.521 117.626C221.553 117.332 221.59 117.038 221.63 116.744C221.63 116.679 221.645 116.617 221.655 116.552L238.561 115.935L239.983 115.882C240.96 115.848 241.994 115.793 242.8 115.237C244.155 114.306 244.314 112.396 244.291 110.754C244.209 106.606 243.74 102.474 242.889 98.4136C242.248 95.3602 241.333 92.2395 239.279 89.8934C237.594 87.9657 235.152 86.5635 234.275 84.1651C233.949 83.2735 233.867 82.2947 233.444 81.4429C233.022 80.5911 232.323 79.966 231.664 79.3085C229.345 77.0068 227.422 74.3376 225.971 71.4084C224.964 69.3761 223.873 67.1346 222.557 65.7299C222.493 65.6577 222.428 65.5904 222.361 65.5257C221.242 64.4174 219.962 63.9317 218.445 64.6864C218.173 64.8234 217.913 64.9852 217.67 65.1695C217.129 65.5832 216.635 66.0542 216.195 66.5742C214.663 68.3387 213.319 70.2586 212.185 72.3025C211.388 73.7416 210.703 75.2404 210.137 76.7855C209.69 78.0063 209.32 79.254 209.03 80.5214C208.816 81.4603 208.647 82.4092 208.513 83.3606C208.016 86.9371 208.016 90.5833 208.085 94.2046C208.16 97.532 208.307 100.867 208.608 104.182C208.682 104.984 208.765 105.785 208.856 106.585C209.039 108.168 209.264 109.745 209.532 111.317C209.639 111.917 209.749 112.518 209.871 113.115C209.9 113.275 209.933 113.434 209.965 113.591L209.98 113.658C210.308 115.048 210.563 116.454 210.743 117.87C210.763 118.048 210.778 118.224 210.788 118.4C210.83 119.215 210.823 120.03 210.768 120.844C210.711 121.805 210.621 122.764 210.577 123.725C210.577 123.895 210.577 124.061 210.559 124.223C210.547 124.709 210.559 125.195 210.559 125.68C210.61 126.842 210.748 127.999 210.972 129.14C211.391 131.262 212.116 133.313 213.122 135.227C213.217 135.406 213.314 135.583 213.411 135.757C214.671 138.014 216.262 140.083 217.428 142.392C218.434 144.47 219.186 146.661 219.666 148.92C219.832 149.665 219.989 150.413 220.138 151.161C220.37 152.357 220.576 153.562 220.787 154.768C220.807 154.887 220.829 155.017 220.852 155.126C221.133 156.725 221.429 158.317 221.809 159.878C222.03 160.787 222.279 161.684 222.57 162.566L224.4 160.269Z" fill="#464353"/>
<path d="M221.078 140.64C221.078 140.864 221.063 141.088 221.053 141.315C221.009 142.408 220.908 143.498 220.752 144.58C220.546 146.058 220.185 147.509 219.676 148.911C219.338 149.833 218.908 150.718 218.393 151.554C217.936 152.295 217.401 152.986 216.797 153.613C215.305 155.168 213.157 155.663 211.079 156.318C210.122 156.596 209.198 156.974 208.322 157.446C208.165 157.534 208.011 157.628 207.862 157.728L205.261 159.454C204.451 159.989 203.623 160.545 203.066 161.339C202.975 161.474 202.892 161.615 202.817 161.76C202.465 162.491 202.208 163.265 202.052 164.061C200.699 169.705 199.344 175.354 198.417 181.082C198.355 181.46 198.295 181.842 198.23 182.223L198.208 182.342C198.197 182.314 198.183 182.286 198.168 182.26C191.515 186.29 184.616 189.926 177.508 192.837L175.964 179.886C175.803 178.834 175.75 177.767 175.805 176.703C175.952 175.027 176.633 173.438 176.817 171.767C176.991 170.131 176.683 168.48 175.93 167.018C175.636 166.45 175.268 165.892 175.201 165.257C175.134 164.622 175.499 164.041 176.136 163.977C176.633 163.424 176.673 162.669 176.526 161.922C176.448 161.532 176.332 161.151 176.178 160.784C175.756 159.743 175.221 158.609 175.584 157.546C175.68 157.353 175.723 157.138 175.708 156.923C175.711 156.91 175.711 156.897 175.708 156.884C175.624 156.605 175.293 156.483 175.122 156.246C174.798 155.805 175.122 155.205 175.32 154.697C175.514 154.151 175.626 153.579 175.654 153.001C175.681 152.679 175.701 152.356 175.736 152.037C175.784 151.605 175.861 151.178 175.967 150.757C176.571 148.371 178.023 146.288 180.052 144.899C181.019 144.246 182.095 143.771 183.082 143.156C184.093 142.473 185.058 141.724 185.971 140.914C188.161 139.088 190.437 137.366 192.801 135.749C195.342 134.01 197.974 132.409 200.687 130.952C201.267 130.638 201.847 130.332 202.427 130.035C203.058 129.703 203.694 129.388 204.334 129.091C206.382 128.112 208.707 128.479 210.972 129.131C211.922 129.403 212.859 129.726 213.764 130.02C214.648 130.308 215.498 130.691 216.3 131.161C218.306 132.341 219.964 134.085 220.653 136.287C220.654 136.301 220.654 136.315 220.653 136.329C221.09 137.709 221.118 139.188 221.078 140.64Z" fill="#F86D70"/>
<path opacity="0.1" d="M221.078 140.64C221.078 140.864 221.063 141.088 221.053 141.315C221.009 142.408 220.908 143.498 220.752 144.58C220.546 146.058 220.185 147.509 219.676 148.911C219.338 149.833 218.908 150.718 218.393 151.554C217.936 152.295 217.401 152.986 216.797 153.613C215.305 155.168 213.157 155.663 211.079 156.318C210.122 156.596 209.198 156.974 208.322 157.446C208.165 157.534 208.011 157.628 207.862 157.728L205.261 159.454C204.451 159.989 203.623 160.545 203.066 161.339C202.975 161.474 202.892 161.615 202.817 161.76C202.465 162.491 202.208 163.265 202.052 164.061C200.699 169.705 199.344 175.354 198.417 181.082C198.355 181.46 198.295 181.842 198.23 182.223L198.208 182.342C198.197 182.314 198.183 182.286 198.168 182.26C191.515 186.29 184.616 189.926 177.508 192.837L175.964 179.886C175.803 178.834 175.75 177.767 175.805 176.703C175.952 175.027 176.633 173.438 176.817 171.767C176.991 170.131 176.683 168.48 175.93 167.018C175.636 166.45 175.268 165.892 175.201 165.257C175.134 164.622 175.499 164.041 176.136 163.977C176.633 163.424 176.673 162.669 176.526 161.922C176.448 161.532 176.332 161.151 176.178 160.784C175.756 159.743 175.221 158.609 175.584 157.546C175.68 157.353 175.723 157.138 175.708 156.923C175.711 156.91 175.711 156.897 175.708 156.884C175.624 156.605 175.293 156.483 175.122 156.246C174.798 155.805 175.122 155.205 175.32 154.697C175.514 154.151 175.626 153.579 175.654 153.001C175.681 152.679 175.701 152.356 175.736 152.037C175.784 151.605 175.861 151.178 175.967 150.757C176.571 148.371 178.023 146.288 180.052 144.899C181.019 144.246 182.095 143.771 183.082 143.156C184.093 142.473 185.058 141.724 185.971 140.914C188.161 139.088 190.437 137.366 192.801 135.749C195.342 134.01 197.974 132.409 200.687 130.952C201.267 130.638 201.847 130.332 202.427 130.035C203.058 129.703 203.694 129.388 204.334 129.091C206.382 128.112 208.707 128.479 210.972 129.131C211.922 129.403 212.859 129.726 213.764 130.02C214.648 130.308 215.498 130.691 216.3 131.161C218.306 132.341 219.964 134.085 220.653 136.287C220.654 136.301 220.654 136.315 220.653 136.329C221.09 137.709 221.118 139.188 221.078 140.64Z" fill="black"/>
<path d="M197.472 99.3867C197.447 99.3288 197.41 99.2767 197.364 99.2333C197.318 99.19 197.264 99.1564 197.205 99.1345C197.146 99.1126 197.083 99.1029 197.02 99.106C196.958 99.1091 196.896 99.1249 196.839 99.1524C196.783 99.18 196.732 99.2187 196.691 99.2663C196.649 99.3139 196.618 99.3694 196.599 99.4294C196.579 99.4894 196.572 99.5528 196.578 99.6156C196.583 99.6785 196.602 99.7395 196.631 99.7951L196.383 99.9172L203.797 115.14L205.137 114.484L197.723 99.2522L197.472 99.3867Z" fill="#3F3D56"/>
<path d="M206.74 83.4417C215.528 83.4417 222.652 76.3053 222.652 67.5021C222.652 58.6989 215.528 51.5625 206.74 51.5625C197.953 51.5625 190.829 58.6989 190.829 67.5021C190.829 76.3053 197.953 83.4417 206.74 83.4417Z" fill="#FBBEBE"/>
<path d="M227.741 57.6353C227.666 56.3682 227.478 55.1104 227.179 53.8771C226.244 49.8498 224.536 45.8848 221.595 42.9933C221.414 42.2863 221.197 41.5889 220.946 40.9037C220.941 40.8867 220.935 40.8701 220.929 40.8539C220.051 38.44 218.783 36.1874 217.174 34.1867C216.242 33.026 215.034 31.8804 213.547 31.8356C213.13 31.8206 212.687 31.8928 212.304 31.7011C212.023 31.5187 211.786 31.2753 211.61 30.9888C210.874 30.0567 209.898 29.344 208.787 28.9274C207.675 28.5108 206.472 28.4064 205.306 28.6252L205.151 28.6576C205.064 28.675 204.977 28.6949 204.903 28.7174C204.828 28.7398 204.694 28.7771 204.59 28.8095C204.704 28.9988 204.816 29.1906 204.925 29.3848C205.22 29.9112 205.494 30.4491 205.746 30.9987C205.955 31.457 206.148 31.9227 206.325 32.3959C203.779 32.6873 201.706 34.498 199.811 36.2214L195.351 40.2761C195.343 40.2829 195.336 40.2904 195.329 40.2985L195.199 40.423C195.167 40.4554 195.135 40.4878 195.105 40.5227C195.093 40.533 195.082 40.5447 195.073 40.5575C195.035 40.5974 195.001 40.6397 194.966 40.682C194.904 40.7605 194.848 40.8438 194.799 40.9311C194.775 40.9685 194.753 41.0076 194.735 41.0482C194.728 41.0601 194.722 41.0726 194.717 41.0855C194.701 41.1195 194.687 41.1544 194.675 41.1901C194.674 41.195 194.674 41.2001 194.675 41.2051C194.668 41.2255 194.662 41.2463 194.657 41.2673C194.607 41.4426 194.622 41.6304 194.7 41.7953L197.641 41.8277H197.986C198.001 42.2212 198.014 42.6172 198.029 43.0107C197.562 43.3607 197.114 43.7348 196.686 44.1315C196.22 44.564 195.782 45.0265 195.376 45.5162C192.723 48.7266 191.338 52.8734 191.199 57.0476C191.199 57.1771 191.199 57.2966 191.199 57.4311C191.199 57.8122 191.199 58.1932 191.199 58.5718C191.199 58.8208 191.222 59.0699 191.241 59.319C191.243 59.6434 191.328 59.9619 191.49 60.243C191.511 60.2744 191.535 60.3043 191.56 60.3326C191.709 60.4948 191.888 60.6267 192.087 60.7212L192.301 60.8258C192.407 60.8781 192.509 60.9279 192.609 60.9852C193.546 61.5156 194.101 62.5393 194.953 63.1968C195.003 63.2341 195.053 63.2715 195.102 63.3039L195.214 63.3786L195.284 63.4234L195.378 63.4782C195.44 63.5156 195.504 63.5497 195.57 63.5803L195.689 63.6401H195.709C195.809 63.6849 195.908 63.7273 196.01 63.7646L196.152 63.8144L196.194 63.8294C196.234 63.8418 196.276 63.8568 196.318 63.8667C196.403 63.8916 196.486 63.9141 196.567 63.934L196.815 63.9888C196.912 64.0062 197.012 64.0236 197.111 64.0361L197.258 64.056L197.407 64.071C197.644 64.0925 197.883 64.105 198.123 64.1083C198.877 64.1037 199.63 64.0513 200.378 63.9514L206.723 63.2043C208.162 63.0374 209.632 62.8705 211.051 63.1644C212.254 63.4135 213.363 63.9863 214.532 64.3922C214.795 64.4844 215.059 64.5691 215.325 64.6413C215.422 64.6687 215.521 64.6986 215.621 64.7235L215.757 64.7584L216.076 64.8356C216.19 64.863 216.304 64.8904 216.419 64.9128C216.58 64.9476 216.739 64.9775 216.901 65.0074C217.01 65.0298 217.122 65.0473 217.234 65.0672H217.257L217.575 65.117H217.652L217.888 65.1494C218.002 65.1668 218.117 65.1818 218.234 65.1942C218.487 65.2258 218.741 65.2532 218.994 65.2764C219.405 65.3162 219.817 65.3461 220.237 65.371L220.65 65.3959L221.063 65.4159L222.306 65.4707H222.361H222.535C223.051 65.5067 223.571 65.48 224.081 65.391C224.171 65.3735 224.258 65.3536 224.345 65.3287C224.432 65.3038 224.504 65.2789 224.593 65.249C225.525 64.8904 226.207 64.066 226.679 63.1843C226.778 62.9975 226.87 62.8107 226.955 62.619C227.04 62.4272 227.117 62.2329 227.186 62.0387C227.273 61.7896 227.348 61.553 227.412 61.3039C227.432 61.2367 227.45 61.1695 227.465 61.0997C227.48 61.03 227.514 60.893 227.534 60.7884C227.596 60.502 227.644 60.2131 227.678 59.9217C227.678 59.8295 227.701 59.7349 227.711 59.6427C227.733 59.3937 227.751 59.1621 227.76 58.918C227.76 58.7337 227.76 58.5469 227.76 58.3601C227.758 58.1584 227.741 57.8919 227.741 57.6353ZM221.366 42.7667C221.165 42.5774 220.958 42.3956 220.75 42.2237C220.982 42.3706 221.189 42.5539 221.364 42.7667H221.366Z" fill="#464353"/>
<path d="M176.203 66.6253C174.331 66.3937 172.474 65.5718 170.626 65.9753C169.47 66.2244 168.476 66.9441 167.551 67.6838C164.109 70.4473 161.183 73.7989 158.907 77.5838C158.521 78.1497 158.25 78.7861 158.109 79.4567C157.989 80.2338 158.201 81.0233 158.452 81.768C160.152 86.8014 163.79 91.0055 165.445 96.0539C167.186 101.364 166.581 107.167 165.299 112.606C163.708 119.321 161.124 125.76 157.631 131.709C157.157 132.593 156.563 133.408 155.866 134.13C154.961 135.001 153.745 135.624 153.208 136.765C152.96 137.263 152.888 137.831 152.711 138.364C152.214 139.858 151.011 141.138 150.894 142.715C150.807 143.918 151.376 145.056 151.722 146.201C152.305 148.17 152.243 150.273 151.545 152.204C150.285 155.666 146.988 158.814 147.945 162.373C150.081 161.757 152.448 160.958 153.455 158.973C153.81 158.271 153.987 157.434 154.586 156.921C155.782 155.902 157.818 156.824 159.088 155.887C160.048 155.175 160.083 153.715 159.655 152.595C159.227 151.474 158.492 150.488 158.163 149.335C157.592 147.255 158.506 145.056 158.337 142.906C158.258 141.91 157.952 140.956 157.93 139.965C157.887 138.04 158.951 136.229 160.366 134.922C161.781 133.614 163.528 132.747 165.249 131.893L171.753 128.655C174.112 127.485 176.698 126.058 177.471 123.537C177.764 122.593 177.767 121.587 177.782 120.601C178.003 105.53 181.772 90.7639 185.518 76.1667C186.1 73.9053 186.692 71.6339 187.557 69.4621C188.422 67.2903 190.115 65.5469 190.978 63.5296C185.973 62.9418 181.401 67.2779 176.203 66.6253Z" fill="#464353"/>
<path d="M212.055 161.169C212.63 164.656 212.98 168.218 213.254 171.762C208.779 175.478 203.961 178.71 199.065 181.709C198.787 181.881 198.506 182.05 198.225 182.207L198.203 182.327C198.191 182.298 198.178 182.271 198.163 182.244C197.783 181.422 197.119 180.766 196.293 180.396C194.458 176.536 192.625 172.676 190.794 168.815C189.799 166.731 188.805 164.626 188.308 162.377C188.308 162.33 188.285 162.28 188.278 162.233C187.9 160.489 187.813 158.679 187.562 156.913C187.435 155.902 187.207 154.905 186.883 153.939C186.585 153.08 186.175 152.246 185.812 151.406C185.364 150.37 184.989 149.322 184.971 148.203C184.971 147.847 184.994 147.456 184.82 147.157C184.634 146.9 184.404 146.678 184.141 146.5C183.813 146.208 183.564 145.838 183.418 145.424C183.272 145.009 183.233 144.565 183.306 144.131C181.814 144.209 180.974 145.815 180.374 147.177C179.83 148.51 179.114 149.766 178.246 150.913C177.614 151.733 176.809 152.404 175.889 152.878C175.807 152.918 175.725 152.958 175.641 152.993C173.565 153.909 171.141 153.586 168.891 153.172C166.924 152.811 164.891 152.363 163.31 151.137L163.14 151.003C162.672 150.613 162.255 150.166 161.897 149.673C160.572 147.86 159.986 145.471 159.66 143.197C159.63 142.983 159.6 142.769 159.573 142.555C159.347 140.948 159.284 139.323 159.386 137.703C159.416 137.305 159.458 136.906 159.511 136.51C159.545 136.261 159.583 135.992 159.625 135.733C159.624 135.726 159.624 135.718 159.625 135.711C159.69 135.3 159.759 134.886 159.829 134.465C160.078 133.053 160.326 131.604 161.072 130.388C161.563 129.632 162.182 128.968 162.902 128.426C163.17 128.214 163.446 128.012 163.725 127.818C164.177 127.504 164.642 127.205 165.114 126.924C166.303 126.211 167.551 125.603 168.844 125.106C169.152 124.986 169.465 124.874 169.778 124.767C170.996 124.333 172.307 124.229 173.577 124.466C174.703 124.629 175.841 124.696 176.978 124.665C179.895 124.608 182.823 124.05 185.735 123.689C189.777 123.191 194.12 123.131 197.646 125.183C197.815 125.28 197.979 125.382 198.143 125.489C199.883 126.63 201.285 128.229 202.417 130.015C202.665 130.391 202.882 130.777 203.095 131.168C203.588 132.065 204.034 132.988 204.43 133.932C204.665 134.396 204.792 134.907 204.801 135.427C204.795 135.526 204.782 135.624 204.761 135.721C204.694 136.074 204.56 136.418 204.512 136.777C204.356 138.134 205.507 139.267 205.937 140.56C206.215 141.402 206.186 142.303 206.342 143.19C206.568 144.435 207.178 145.556 207.725 146.677C208.589 148.481 209.328 150.342 209.937 152.248C210.37 153.576 210.74 154.923 211.066 156.283C211.172 156.719 211.272 157.157 211.367 157.595C211.638 158.801 211.859 159.981 212.055 161.169Z" fill="#F86D70"/>
<path d="M238.563 124.286V126.029L238.242 126.024L237.884 126.019L233.887 125.97L224.036 125.84L221.272 125.805L220.556 125.795L216.406 125.743L210.559 125.666L198.153 125.504L176.626 125.225L168.856 125.125L165.739 125.085L162.87 125.048L161.082 125.023L159.389 125.001L146.837 124.839L143.356 124.794L142.598 124.784L142.105 123.511L138.528 114.269L137.874 112.58L138.371 110.588L140.609 112.082L141.986 112.254L164.662 115.078L168.919 115.609L177.943 116.735L186.784 117.835L190.25 118.266L210.758 120.822L216.488 121.536L221.232 122.127L238.098 124.229L238.563 124.286Z" fill="#3F3D56"/>
<path d="M138.371 110.588L142.846 122.294L238.563 124.286V111.584L138.371 110.588Z" fill="#504F60"/>
<path d="M143.344 123.539L144.09 195.018L147.57 194.52L146.824 123.539H143.344Z" fill="#3F3D56"/>
<path d="M238.242 126.023H237.884C237.304 130.48 236.345 134.878 235.017 139.171L233.886 125.971L233.839 125.408L238.021 124.925L238.16 124.91L238.242 126.023Z" fill="#3F3D56"/>
<path d="M224.64 117.562L188.218 118.309L176.906 114.573L207.237 112.83L224.64 117.562Z" fill="white"/>
<path d="M178.953 103.036C178.567 103.185 178.225 103.429 177.959 103.746C177.751 104.09 177.624 104.477 177.588 104.877L176.977 108.531C176.883 108.865 176.9 109.22 177.024 109.544C177.183 109.851 177.645 110.01 177.877 109.756C177.847 110.471 177.909 111.233 178.324 111.816C178.739 112.398 179.609 112.705 180.196 112.299C180.288 112.449 180.412 112.577 180.558 112.675C180.705 112.773 180.87 112.837 181.044 112.864C181.218 112.891 181.396 112.88 181.565 112.831C181.734 112.783 181.89 112.698 182.023 112.583C181.67 112.702 181.646 113.243 181.897 113.517C182.178 113.765 182.536 113.909 182.911 113.923C187.28 114.54 191.734 113.978 195.814 112.296C196.199 112.137 195.185 107.377 195.083 106.889C194.835 105.741 194.71 104.339 193.743 103.567C191.431 101.719 187.324 101.355 184.507 101.574C182.583 101.72 180.701 102.216 178.953 103.036Z" fill="#FBBEBE"/>
<path opacity="0.1" d="M216.011 103.591C207.019 103.762 197.84 103.909 189.258 101.212C190.078 104.395 190.021 107.74 189.094 110.893L231.139 114.38C232.922 114.527 240.313 115.364 242.051 114.943C243.789 114.522 227.47 109.137 228.129 107.471C229.941 102.881 236.012 100.191 231.639 100.019C226.12 99.8 221.573 103.486 216.011 103.591Z" fill="black"/>
<path d="M216.259 104.089C207.267 104.261 198.088 104.407 189.506 101.71C190.326 104.893 190.269 108.238 189.342 111.391L231.388 114.878C233.17 115.025 240.561 115.874 242.299 115.441C244.037 115.007 243.629 112.873 244.288 111.207C246.101 106.617 236.26 100.689 231.887 100.517C226.368 100.298 221.821 103.984 216.259 104.089Z" fill="#464353"/>
<path d="M201.962 104.781C202.349 104.929 202.691 105.173 202.957 105.49C203.165 105.834 203.292 106.221 203.33 106.621L203.941 110.275C204.033 110.609 204.017 110.964 203.894 111.288C203.735 111.595 203.27 111.754 203.041 111.5C203.069 112.215 203.009 112.977 202.594 113.56C202.179 114.143 201.308 114.449 200.719 114.043C200.627 114.193 200.504 114.322 200.357 114.419C200.211 114.517 200.045 114.581 199.871 114.608C199.697 114.635 199.52 114.624 199.351 114.576C199.182 114.527 199.025 114.442 198.892 114.327C199.245 114.446 199.272 114.987 199.021 115.261C198.739 115.509 198.38 115.653 198.004 115.667C193.636 116.284 189.183 115.722 185.104 114.04C184.718 113.881 185.73 109.122 185.835 108.633C186.083 107.485 186.208 106.083 187.175 105.311C189.484 103.463 193.594 103.099 196.411 103.319C198.334 103.465 200.216 103.96 201.962 104.781Z" fill="#FBBEBE"/>
<path d="M142.542 96.8483C141.717 97.9143 140.889 99.0027 140.357 100.245C139.34 102.616 139.489 105.301 139.659 107.877C139.706 108.624 139.765 109.386 140.156 110.006C140.493 110.474 140.938 110.855 141.454 111.114C143.607 112.34 146.128 112.706 148.589 112.98C152.358 113.398 156.14 113.653 159.936 113.744C169.338 113.973 178.885 113.204 188.044 115.338C186.91 113.612 186.913 111.328 187.547 109.361C188.181 107.393 189.401 105.68 190.597 103.994C186.406 102.664 181.911 104.741 177.52 104.534C173.013 104.323 168.841 101.712 164.329 101.715C163.359 101.715 162.372 101.837 161.43 101.603C160.487 101.369 159.575 100.656 159.488 99.6876C160.691 99.9591 161.833 98.928 162.33 97.7972C162.827 96.6665 162.916 95.3889 163.399 94.2507C164.6 91.4189 167.844 90.1064 169.863 87.7752C170.181 87.4066 170.482 86.9707 170.472 86.4826C170.424 86.0691 170.251 85.6803 169.975 85.3693C168.296 83.1278 165.768 81.8825 163.667 80.1391C162.936 79.5314 161.462 77.2401 160.642 77.0284C159.12 76.6374 157.83 78.839 156.84 79.9125C151.845 85.3502 147.079 90.9955 142.542 96.8483Z" fill="#464353"/>
<path opacity="0.07" d="M192.534 96.2148C193.164 96.683 193.724 97.2391 194.197 97.8661C194.433 98.181 194.601 98.5415 194.69 98.9248C194.78 99.308 194.789 99.7057 194.717 100.093C194.64 99.3708 194.8 98.6435 195.174 98.0216C195.548 97.3997 196.115 96.9174 196.788 96.6482L192.534 96.2148Z" fill="black"/>
<g opacity="0.1">
<path opacity="0.1" d="M206.323 30.9019C206.031 30.1235 205.694 29.3626 205.314 28.623C205.068 28.6703 204.826 28.7327 204.588 28.8098C205.014 29.5196 205.399 30.2539 205.739 31.009C205.93 30.9592 206.124 30.9243 206.323 30.9019Z" fill="black"/>
<path opacity="0.1" d="M220.748 40.7227C220.815 40.7775 220.88 40.8397 220.944 40.897C220.94 40.8808 220.934 40.865 220.927 40.8497C220.871 40.8082 220.811 40.7658 220.748 40.7227Z" fill="black"/>
<path opacity="0.1" d="M197.636 41.8181C197.765 41.716 197.885 41.6089 198.024 41.5092L197.984 40.3262L195.329 40.2988C194.899 40.6948 194.441 41.2627 194.695 41.7932L197.636 41.8181Z" fill="black"/>
<path opacity="0.1" d="M226.665 61.7322C226.192 62.6138 225.511 63.4407 224.579 63.7968C223.86 64.0708 223.07 64.0459 222.301 64.011C219.681 63.9039 217.016 63.7869 214.54 62.9177C213.381 62.5092 212.272 61.9389 211.059 61.6873C209.639 61.3934 208.17 61.5603 206.731 61.7297L200.386 62.4768C198.514 62.696 196.428 62.8604 194.934 61.7098C194.079 61.0522 193.527 60.0286 192.589 59.5006C192.194 59.2765 191.724 59.132 191.468 58.7534C191.307 58.4723 191.221 58.1539 191.22 57.8294C191.2 57.5679 191.187 57.3064 191.177 57.0449C191.15 57.8048 191.164 58.5655 191.22 59.3238C191.221 59.6482 191.307 59.9667 191.468 60.2478C191.717 60.6239 192.194 60.7683 192.589 60.995C193.527 61.523 194.081 62.5466 194.934 63.2041C196.426 64.3547 198.514 64.2003 200.386 63.9712L206.731 63.224C208.17 63.0547 209.639 62.8878 211.059 63.1817C212.262 63.4307 213.371 64.0036 214.54 64.412C217.026 65.2812 219.681 65.4082 222.301 65.5054C223.07 65.5378 223.86 65.5652 224.579 65.2912C225.511 64.935 226.192 64.1082 226.665 63.2265C227.579 61.5205 227.836 59.5853 227.739 57.6352C227.685 59.0633 227.319 60.4621 226.665 61.7322Z" fill="black"/>
</g>
<path opacity="0.1" d="M206.251 32.5039L209.732 35.7416C209.732 35.7416 206.748 34.4964 206.251 32.5039Z" fill="black"/>
</g>
<defs>
<clipPath id="clip0">
<rect x="0.146484" width="244.361" height="200" fill="white"/>
</clipPath>
</defs>
</svg>
