<svg width="291" height="200" viewBox="0 0 291 200" fill="none" xmlns="http://www.w3.org/2000/svg">
<g clip-path="url(#clip0)">
<path opacity="0.1" d="M89.7211 10.1044C99.5585 1.23786 115.002 -0.567584 129.058 0.138021C173.209 2.35528 213.063 23.89 247.537 48.2497C260.017 57.0685 272.304 66.5804 280.412 78.7163C296.905 103.438 292.011 137.686 269.081 158.05C261.279 164.981 251.821 170.292 242.111 175.002C224.848 183.374 206.225 190.094 186.627 192.007C172.654 193.371 158.52 192.258 144.618 190.36C105.807 185.042 67.7123 173.285 35.7807 153.161C21.7699 144.337 8.56962 133.367 2.79765 119.084C-2.97433 104.801 0.719735 86.719 15.0192 78.2693C20.9342 74.7739 28.0036 73.197 34.9275 71.713C45.1188 69.5334 55.4707 67.3814 64.6682 62.9469C74.1668 58.3667 85.4122 49.5077 83.5325 39.3681C81.5148 28.4978 79.8962 18.9433 89.7211 10.1044Z" fill="#4CAF50"/>
<path d="M64.6104 112.448C64.6104 112.448 67.2128 110.583 69.9055 111.735C69.9055 111.735 69.1526 113.337 65.7974 113.317L64.6104 112.448Z" fill="#4CAF50"/>
<path d="M64.2869 112.555C64.2869 112.555 63.5918 115.681 65.7098 117.71C65.7098 117.71 66.8843 116.387 65.5492 113.308L64.2869 112.555Z" fill="#4CAF50"/>
<path d="M60.8467 109.711C60.8467 109.711 60.942 107.072 66.9148 107.717C66.9148 107.717 67.0076 109.414 64.9548 110.298C62.902 111.182 61.9183 110.547 60.8467 109.711Z" fill="#4CAF50"/>
<path d="M60.4775 109.705C60.4775 109.705 57.9956 110.609 60.4499 116.098C60.4499 116.098 62.0912 115.664 62.2995 113.437C62.5078 111.209 61.5993 110.473 60.4775 109.705Z" fill="#4CAF50"/>
<path d="M56.972 106.102C56.972 106.102 56.4701 101.783 62.5532 101.994C62.5532 101.994 63.1329 105.898 58.0837 107.101L56.972 106.102Z" fill="#4CAF50"/>
<path d="M52.7734 101.366C52.7734 101.366 53.4184 96.4272 59.5492 97.6551C59.5492 97.6551 59.735 101.899 53.8174 102.499L52.7734 101.366Z" fill="#4CAF50"/>
<path d="M49.6484 96.4214C49.6484 96.4214 50.858 91.5776 56.9261 92.7879C56.9261 92.7879 55.6714 97.1446 50.0826 97.2902L49.6484 96.4214Z" fill="#4CAF50"/>
<path d="M46.6748 91.5927C46.6748 91.5927 47.8468 86.5706 53.7016 87.8462C53.7016 87.8462 51.9449 92.6348 47.0839 92.4238L46.6748 91.5927Z" fill="#4CAF50"/>
<path d="M44.7002 86.9724C44.7002 86.9724 45.5158 80.863 50.9741 81.998C50.9741 81.998 49.6139 87.5801 45.1268 87.8387L44.7002 86.9724Z" fill="#4CAF50"/>
<path d="M42.7998 81.3706C42.7998 81.3706 43.8212 75.2059 49.3623 76.7753C49.3623 76.7753 47.435 82.6386 43.2139 82.2017L42.7998 81.3706Z" fill="#4CAF50"/>
<path d="M41.5557 76.1448C41.5557 76.1448 43.3124 69.9526 47.5585 69.9551C47.5585 69.9551 45.7642 76.4838 41.9572 77.3576L41.5557 76.1448Z" fill="#4CAF50"/>
<path d="M40.6973 71.0176C40.6973 71.0176 42.587 63.5699 46.0552 64.0068C46.0552 64.0068 44.7678 69.6918 40.8629 72.1601L40.6973 71.0176Z" fill="#4CAF50"/>
<path d="M40.0869 64.8859C40.0869 64.8859 41.8863 58.6735 45.2792 58.2969C45.2792 58.2969 44.1248 64.3862 40.2224 66.4779L40.0869 64.8859Z" fill="#4CAF50"/>
<path d="M39.4551 59.1808C39.4551 59.1808 41.7589 52.9408 44.0024 52.7148C44.0024 52.7148 43.1316 58.8041 39.7186 60.1802L39.4551 59.1808Z" fill="#4CAF50"/>
<path d="M38.9707 53.8621C38.9707 53.8621 40.2757 47.13 42.4991 46.4922C42.4991 46.4922 42.4013 51.9587 39.2141 54.3518L38.9707 53.8621Z" fill="#4CAF50"/>
<path d="M37.8584 46.9222C37.8584 46.9222 39.2964 41.5435 41.0832 40.6621C41.0832 40.6621 40.9627 46.9397 38.3227 48.1953L37.8584 46.9222Z" fill="#4CAF50"/>
<path d="M36.9802 42.367L36.29 33.0059C36.29 33.0059 39.954 39.9514 37.2939 44.0118L36.9802 42.367Z" fill="#4CAF50"/>
<path d="M33.9937 33.1504C33.9937 33.1504 31.2859 26.3981 30.6836 26.0391C30.6836 26.0391 35.6525 30.3078 35.4016 36.028L33.9937 33.1504Z" fill="#4CAF50"/>
<path d="M56.8062 106.078C56.8062 106.078 52.4772 105.678 52.8411 111.76C52.8411 111.76 56.756 112.245 57.8326 107.162L56.8062 106.078Z" fill="#4CAF50"/>
<path d="M52.5645 101.211C52.5645 101.211 47.5906 101.384 48.2331 107.599C48.2331 107.599 52.4366 108.187 53.5935 102.348L52.5645 101.211Z" fill="#4CAF50"/>
<path d="M49.6166 96.8286C49.6166 96.8286 45.0191 94.8825 42.3389 100.462C42.3389 100.462 46.5775 102.067 50.0482 97.6999L49.6166 96.8286Z" fill="#4CAF50"/>
<path d="M46.5745 91.6434C46.5745 91.6434 41.8666 89.5643 39.3545 95.0132C39.3545 95.0132 44.2356 96.4872 46.9885 92.4721L46.5745 91.6434Z" fill="#4CAF50"/>
<path d="M44.7626 87.1002C44.7626 87.1002 40.15 83.0172 36.7646 87.4567C36.7646 87.4567 41.445 90.7814 45.0035 88.0393L44.7626 87.1002Z" fill="#4CAF50"/>
<path d="M43.0457 81.2148C43.0457 81.2148 38.403 77.0364 35.0527 81.717C35.0527 81.717 40.2149 85.0944 43.2414 82.1163L43.0457 81.2148Z" fill="#4CAF50"/>
<path d="M42.0067 75.9464C42.0067 75.9464 38.3502 70.6481 34.335 72.0141C34.335 72.0141 38.1344 77.6288 42.0167 77.2246L42.0067 75.9464Z" fill="#4CAF50"/>
<path d="M40.8004 70.9787C40.8004 70.9787 37.0586 64.2692 33.8213 65.5825C33.8213 65.5825 36.5266 70.7452 40.9309 72.1238L40.8004 70.9787Z" fill="#4CAF50"/>
<path d="M40.3105 64.5267C40.3105 64.5267 36.5311 59.2786 33.2109 60.0646C33.2109 60.0646 36.3403 65.4131 40.717 66.0735L40.3105 64.5267Z" fill="#4CAF50"/>
<path d="M39.8287 59.0442C39.8287 59.0442 36.8297 53.1081 34.5762 53.1408C34.5762 53.1408 36.1346 59.0919 39.6806 60.0662L39.8287 59.0442Z" fill="#4CAF50"/>
<path d="M39.0756 53.7256C39.0756 53.7256 35.763 47.7242 33.4492 47.7995C33.4492 47.7995 35.226 52.9723 38.9928 54.268L39.0756 53.7256Z" fill="#4CAF50"/>
<path d="M38.3657 47.2676C38.3657 47.2676 35.8687 42.2907 33.9414 41.791C33.9414 41.791 35.3292 47.918 38.1625 48.6211L38.3657 47.2676Z" fill="#4CAF50"/>
<path d="M36.6991 42.2003L31.2559 34.5566C31.2559 34.5566 32.8695 42.2455 37.5072 43.6667L36.6991 42.2003Z" fill="#4CAF50"/>
<path d="M32.8426 33.8257C32.8426 33.8257 26.7168 29.926 26.4658 29.2656C26.4658 29.2656 29.7282 34.9356 35.4149 35.7391L32.8426 33.8257Z" fill="#4CAF50"/>
<path d="M32.4127 31.9825C32.4127 31.9825 25.2956 25.6421 23.5439 25.7175C23.5439 25.7175 29.2155 25.7576 32.5783 31.626L32.4127 31.9825Z" fill="#4CAF50"/>
<path d="M38.3356 48.2727L38.0846 48.3154C36.4083 38.2586 34.2977 32.3602 32.1445 31.7023L32.2173 31.4512C34.496 32.1442 36.6191 37.9573 38.3356 48.2727Z" fill="#444053"/>
<path d="M41.159 72.348L40.7826 72.3932C40.6671 71.454 40.5667 70.4898 40.4889 69.5306C39.8088 61.1813 38.9556 53.5226 38.002 47.7924L38.2102 47.5137C39.1664 53.2539 40.1853 61.1386 40.8679 69.5004C40.9457 70.4546 41.0435 71.4113 41.159 72.348Z" fill="#444053"/>
<path d="M71.846 116.987C71.7782 116.96 65.0125 114.243 57.8351 107.418C53.632 103.423 50.088 98.7868 47.3352 93.6821C43.8946 87.3015 41.6435 79.3816 40.6924 71.6426L41.0939 71.8133C43.227 89.1848 51.614 100.796 58.1589 107.036C65.2659 113.801 71.9614 116.49 72.0242 116.515L71.846 116.987Z" fill="#444053"/>
<g opacity="0.7">
<path opacity="0.7" d="M75.1104 96.5366C75.1104 96.5366 78.1494 95.5322 80.3804 97.4331C80.3804 97.4331 79.1834 98.7388 75.9862 97.7193L75.1104 96.5366Z" fill="#4CAF50"/>
<path opacity="0.7" d="M74.7692 96.543C74.7692 96.543 73.1781 99.3227 74.596 101.886C74.596 101.886 76.1018 100.975 75.7529 97.6378L74.7692 96.543Z" fill="#4CAF50"/>
<path opacity="0.7" d="M72.3271 92.8047C72.3271 92.8047 73.2055 90.3137 78.714 92.7067C78.714 92.7067 78.2999 94.3565 76.0739 94.5875C73.8479 94.8185 73.1051 93.917 72.3271 92.8047Z" fill="#4CAF50"/>
<path opacity="0.7" d="M71.9787 92.6914C71.9787 92.6914 69.3437 92.817 70.0514 98.7857C70.0514 98.7857 71.7504 98.861 72.6111 96.7945C73.4719 94.7279 72.8219 93.7561 71.9787 92.6914Z" fill="#4CAF50"/>
<path opacity="0.7" d="M69.7051 88.1978C69.7051 88.1978 70.5056 83.9291 76.2525 85.9379C76.2525 85.9379 75.6477 89.8376 70.468 89.4835L69.7051 88.1978Z" fill="#4CAF50"/>
<path opacity="0.7" d="M67.1055 82.424C67.1055 82.424 69.1884 77.9041 74.6693 80.8973C74.6693 80.8973 73.5851 85.0028 67.7554 83.8151L67.1055 82.424Z" fill="#4CAF50"/>
<path opacity="0.7" d="M65.5889 76.7851C65.5889 76.7851 68.1863 72.5163 73.6194 75.4818C73.6194 75.4818 71.1099 79.2635 65.747 77.7418L65.5889 76.7851Z" fill="#4CAF50"/>
<path opacity="0.7" d="M64.1865 71.29C64.1865 71.29 66.7965 66.8505 72.0138 69.806C72.0138 69.806 68.9145 73.8538 64.3371 72.2066L64.1865 71.29Z" fill="#4CAF50"/>
<path opacity="0.7" d="M63.6748 66.2901C63.6748 66.2901 66.2697 60.7005 71.1483 63.4124C71.1483 63.4124 68.1895 68.3341 63.8304 67.2468L63.6748 66.2901Z" fill="#4CAF50"/>
<path opacity="0.7" d="M63.5293 60.3746C63.5293 60.3746 66.3375 54.7926 71.1583 57.9414C71.1583 57.9414 67.5772 62.9635 63.6774 61.2912L63.5293 60.3746Z" fill="#4CAF50"/>
<path opacity="0.7" d="M63.8975 55.011C63.8975 55.011 67.4108 49.6222 71.4663 50.8878C71.4663 50.8878 67.8099 56.5954 63.9175 56.2891L63.8975 55.011Z" fill="#4CAF50"/>
<path opacity="0.7" d="M64.6104 49.8654C64.6104 49.8654 68.6257 43.3191 71.8103 44.7679C71.8103 44.7679 68.8892 49.8126 64.4297 51.0054L64.6104 49.8654Z" fill="#4CAF50"/>
<path opacity="0.7" d="M65.8374 43.8315C65.8374 43.8315 69.406 38.4353 72.7537 39.0856C72.7537 39.0856 69.8426 44.5572 65.4961 45.3909L65.8374 43.8315Z" fill="#4CAF50"/>
<path opacity="0.7" d="M66.9344 38.1939C66.9344 38.1939 70.9873 32.9207 73.1957 33.3777C73.1957 33.3777 70.5532 38.9321 66.8867 39.2259L66.9344 38.1939Z" fill="#4CAF50"/>
<path opacity="0.7" d="M68.0508 32.9729C68.0508 32.9729 71.2981 26.9464 73.6119 26.9865C73.6119 26.9865 71.8904 32.1769 68.1386 33.5152L68.0508 32.9729Z" fill="#4CAF50"/>
<path opacity="0.7" d="M69.0527 26.0143C69.0527 26.0143 72.0266 21.3086 73.994 20.9922C73.994 20.9922 72.0115 26.9534 69.1205 27.3728L69.0527 26.0143Z" fill="#4CAF50"/>
<path opacity="0.7" d="M69.5696 21.405L71.6952 12.2598C71.6952 12.2598 73.1282 19.9812 69.3789 23.0573L69.5696 21.405Z" fill="#4CAF50"/>
<path opacity="0.7" d="M69.4635 11.7198C69.4635 11.7198 68.8838 4.46789 68.417 3.93555C68.417 3.93555 71.8952 9.47994 69.9528 14.8787L69.4635 11.7198Z" fill="#4CAF50"/>
<path opacity="0.7" d="M69.5515 88.1307C69.5515 88.1307 65.5362 86.4634 64.0781 92.3794C64.0781 92.3794 67.6693 94.0066 70.209 89.4741L69.5515 88.1307Z" fill="#4CAF50"/>
<path opacity="0.7" d="M66.9495 82.2218C66.9495 82.2218 62.1488 80.9085 60.9141 87.033C60.9141 87.033 64.7537 88.846 67.5945 83.6155L66.9495 82.2218Z" fill="#4CAF50"/>
<path opacity="0.7" d="M65.4388 77.1628C65.4388 77.1628 61.6293 73.9361 57.4082 78.466C57.4082 78.466 60.9768 81.2608 65.5919 78.1195L65.4388 77.1628Z" fill="#4CAF50"/>
<path opacity="0.7" d="M64.0787 71.3061C64.0787 71.3061 60.1989 67.9212 56.1836 72.3733C56.1836 72.3733 60.4047 75.2358 64.2267 72.2226L64.0787 71.3061Z" fill="#4CAF50"/>
<path opacity="0.7" d="M63.6996 66.4325C63.6996 66.4325 60.5074 61.1593 55.9551 64.3885C55.9551 64.3885 59.4358 68.9586 63.6494 67.4018L63.6996 66.4325Z" fill="#4CAF50"/>
<path opacity="0.7" d="M63.8099 60.3006C63.8099 60.3006 60.6177 54.9295 56.0303 58.4048C56.0303 58.4048 59.9552 63.1758 63.7271 61.2247L63.8099 60.3006Z" fill="#4CAF50"/>
<path opacity="0.7" d="M64.3819 54.9598C64.3819 54.9598 62.4672 48.8153 58.2285 48.9333C58.2285 48.9333 60.186 55.4269 64.013 56.1953L64.3819 54.9598Z" fill="#4CAF50"/>
<path opacity="0.7" d="M64.7062 49.8606C64.7062 49.8606 63.1302 42.34 59.6494 42.6313C59.6494 42.6313 60.6984 48.3665 64.4929 50.9956L64.7062 49.8606Z" fill="#4CAF50"/>
<path opacity="0.7" d="M66.1613 43.5533C66.1613 43.5533 64.1135 37.4163 60.708 37.1777C60.708 37.1777 62.1058 43.2168 66.0885 45.1503L66.1613 43.5533Z" fill="#4CAF50"/>
<path opacity="0.7" d="M67.3304 38.1757C67.3304 38.1757 66.2312 31.6169 64.068 30.9766C64.068 30.9766 63.7894 37.1211 66.8837 39.1099L67.3304 38.1757Z" fill="#4CAF50"/>
<path opacity="0.7" d="M68.1917 32.8752C68.1917 32.8752 66.814 26.1582 64.583 25.543C64.583 25.543 64.7411 31.0095 67.9533 33.3674L68.1917 32.8752Z" fill="#4CAF50"/>
<path opacity="0.7" d="M69.4317 26.5072C69.4317 26.5072 68.5283 21.0131 66.8369 19.9609C66.8369 19.9609 66.335 26.2235 68.8445 27.7452L69.4317 26.5072Z" fill="#4CAF50"/>
<path opacity="0.7" d="M69.3513 21.1536L66.4251 12.2344C66.4251 12.2344 65.6723 20.0538 69.6876 22.7933L69.3513 21.1536Z" fill="#4CAF50"/>
<path opacity="0.7" d="M68.1594 12.0201C68.1594 12.0201 63.459 6.46816 63.4238 5.76758C63.4238 5.76758 64.8618 12.1532 70.0415 14.6115L68.1594 12.0201Z" fill="#4CAF50"/>
<path opacity="0.7" d="M68.2965 10.1352C68.2965 10.1352 63.3854 1.96175 61.6914 1.50977C61.6914 1.50977 67.092 3.23988 68.5475 9.8364L68.2965 10.1352Z" fill="#4CAF50"/>
<path opacity="0.7" d="M69.1097 27.4317L68.8588 27.3965C70.2465 17.2996 69.988 11.037 68.126 9.76896L68.269 9.56055C70.244 10.909 70.5326 17.0887 69.1097 27.4317Z" fill="#444053"/>
<path opacity="0.7" d="M64.6435 51.2855L64.2695 51.2177C64.4402 50.2861 64.6309 49.3369 64.8417 48.3952C66.6762 40.2218 68.1393 32.6585 68.9298 26.9032L69.2133 26.6973C68.4203 32.4727 67.0476 40.2946 65.2131 48.4806C65.0023 49.4022 64.8116 50.3463 64.6435 51.2855Z" fill="#444053"/>
<path opacity="0.7" d="M80.6718 103.027C80.6166 102.982 74.965 98.3742 70.1316 89.7187C67.3069 84.6538 65.3028 79.1727 64.194 73.4797C62.8062 66.3634 63.0095 58.1322 64.4048 50.4609L64.7361 50.7422C61.6117 67.9629 66.1665 81.5477 70.5683 89.455C75.3364 98.0277 80.9277 102.588 80.9855 102.633L80.6718 103.027Z" fill="#444053"/>
</g>
<path d="M254.747 189.361C254.747 189.361 244.137 188.721 245.389 196.161C245.389 196.161 245.138 197.475 246.33 198.072C246.33 198.072 246.35 197.52 247.419 197.708C247.8 197.772 248.186 197.791 248.571 197.763C249.092 197.727 249.587 197.523 249.981 197.181C249.981 197.181 252.963 195.948 254.122 191.071C254.122 191.071 254.98 190.007 254.948 189.733L253.156 190.486C253.156 190.486 253.768 191.78 253.286 192.852C253.286 192.852 253.229 190.534 252.885 190.592C252.815 190.604 251.954 191.041 251.954 191.041C251.954 191.041 253.008 193.301 252.205 194.928C252.205 194.928 252.506 192.154 251.618 191.202L250.363 191.94C250.363 191.94 251.593 194.266 250.759 196.161C250.759 196.161 250.973 193.251 250.097 192.119L248.955 193.01C248.955 193.01 250.112 195.303 249.407 196.875C249.407 196.875 249.314 193.487 248.709 193.231C248.709 193.231 247.705 194.112 247.557 194.487C247.557 194.487 248.348 196.149 247.858 197.028C247.858 197.028 247.557 194.768 247.309 194.768C247.309 194.768 246.305 196.262 246.209 197.279C246.209 197.279 246.252 195.755 247.068 194.617C246.494 194.725 245.964 194.999 245.544 195.406C245.544 195.406 245.7 194.348 247.301 194.255C247.301 194.255 248.124 193.123 248.345 193.053C248.345 193.053 246.736 192.92 245.763 193.352C245.763 193.352 246.621 192.347 248.639 192.807L249.766 191.885C249.766 191.885 247.65 191.596 246.754 191.915C246.754 191.915 247.785 191.034 250.069 191.677L251.296 190.943C251.296 190.943 249.495 190.554 248.42 190.692C248.42 190.692 249.555 190.08 251.658 190.743L252.536 190.348C252.536 190.348 251.214 190.097 250.827 190.047C250.441 189.997 250.421 189.899 250.421 189.899C251.257 189.759 252.115 189.855 252.9 190.175C252.9 190.175 254.78 189.479 254.747 189.361Z" fill="#4CAF50"/>
<path opacity="0.1" d="M247.439 199.99C251.586 199.99 254.948 199.422 254.948 198.72C254.948 198.018 251.586 197.449 247.439 197.449C243.292 197.449 239.931 198.018 239.931 198.72C239.931 199.422 243.292 199.99 247.439 199.99Z" fill="#4CAF50"/>
<path d="M275.099 169.756C275.099 169.756 269.119 169.397 269.829 173.59C269.793 173.803 269.824 174.021 269.919 174.215C270.014 174.408 270.168 174.567 270.359 174.667C270.359 174.667 270.371 174.356 270.973 174.461C271.188 174.499 271.406 174.51 271.623 174.494C271.917 174.474 272.195 174.359 272.416 174.165C272.416 174.165 274.098 173.47 274.753 170.72C274.753 170.72 275.237 170.12 275.217 169.967L274.213 170.399C274.213 170.399 274.557 171.127 274.286 171.732C274.286 171.732 274.253 170.424 274.06 170.456C274.02 170.456 273.536 170.707 273.536 170.707C273.536 170.707 274.128 171.978 273.681 172.9C273.681 172.9 273.852 171.335 273.35 170.8L272.64 171.215C272.64 171.215 273.332 172.525 272.863 173.595C272.863 173.595 272.984 171.955 272.489 171.315L271.847 171.817C271.847 171.817 272.497 173.11 272.098 173.997C272.098 173.997 272.045 172.088 271.704 171.943C271.46 172.15 271.242 172.385 271.054 172.643C271.054 172.643 271.5 173.583 271.224 174.077C271.224 174.077 271.054 172.804 270.916 172.799C270.916 172.799 270.354 173.643 270.296 174.22C270.323 173.684 270.49 173.165 270.78 172.714C270.456 172.775 270.157 172.929 269.919 173.158C269.919 173.158 270.007 172.563 270.923 172.51C270.923 172.51 271.388 171.87 271.511 171.832C271.511 171.832 270.605 171.757 270.055 172.001C270.055 172.001 270.539 171.438 271.676 171.692L272.314 171.174C272.314 171.174 271.119 171.011 270.615 171.192C270.615 171.192 271.197 170.69 272.484 171.056L273.177 170.642C272.644 170.525 272.098 170.478 271.553 170.502C271.553 170.502 272.193 170.157 273.378 170.532L273.88 170.308C273.88 170.308 273.127 170.163 272.916 170.14C272.705 170.117 272.685 170.055 272.685 170.055C273.157 169.976 273.642 170.03 274.085 170.21C274.085 170.21 275.117 169.824 275.099 169.756Z" fill="#4CAF50"/>
<path opacity="0.1" d="M270.982 175.75C273.32 175.75 275.215 175.429 275.215 175.034C275.215 174.639 273.32 174.318 270.982 174.318C268.644 174.318 266.748 174.639 266.748 175.034C266.748 175.429 268.644 175.75 270.982 175.75Z" fill="#4CAF50"/>
<path d="M239.793 173.398C239.793 173.398 232.57 172.961 233.424 178.026C233.379 178.283 233.417 178.547 233.532 178.78C233.647 179.014 233.833 179.205 234.064 179.327C234.064 179.327 234.064 178.953 234.804 179.076C235.063 179.119 235.327 179.132 235.589 179.116C235.943 179.09 236.279 178.951 236.548 178.719C236.548 178.719 238.578 177.88 239.369 174.558C239.369 174.558 239.953 173.835 239.928 173.649L238.711 174.169C238.711 174.169 239.128 175.05 238.799 175.781C238.799 175.781 238.761 174.202 238.525 174.239C238.478 174.239 237.893 174.543 237.893 174.543C237.893 174.543 238.608 176.077 238.069 177.19C238.069 177.19 238.275 175.302 237.67 174.654L236.811 175.156C236.811 175.156 237.647 176.738 237.08 178.031C237.08 178.031 237.226 176.05 236.631 175.269L235.853 175.874C235.853 175.874 236.641 177.433 236.161 178.506C236.161 178.506 236.099 176.2 235.685 176.025C235.685 176.025 235.005 176.625 234.902 176.871C234.902 176.871 235.439 178.003 235.105 178.601C235.105 178.601 234.902 177.067 234.734 177.059C234.734 177.059 234.056 178.076 233.981 178.774C234.015 178.129 234.216 177.504 234.565 176.961C234.175 177.036 233.815 177.222 233.529 177.499C233.529 177.499 233.634 176.778 234.734 176.715C234.734 176.715 235.293 175.944 235.444 175.897C235.444 175.897 234.35 175.806 233.687 176.1C233.687 176.1 234.269 175.42 235.642 175.728L236.41 175.103C236.41 175.103 234.972 174.905 234.36 175.123C234.36 175.123 235.062 174.523 236.618 174.96L237.454 174.458C237.454 174.458 236.227 174.192 235.494 174.287C235.494 174.287 236.267 173.873 237.697 174.322L238.297 174.076C238.297 174.076 237.399 173.9 237.135 173.873C236.872 173.845 236.859 173.772 236.859 173.772C237.429 173.677 238.013 173.743 238.548 173.961C238.548 173.961 239.815 173.478 239.793 173.398Z" fill="#4CAF50"/>
<path opacity="0.1" d="M234.819 180.632C237.642 180.632 239.931 180.245 239.931 179.768C239.931 179.291 237.642 178.904 234.819 178.904C231.996 178.904 229.707 179.291 229.707 179.768C229.707 180.245 231.996 180.632 234.819 180.632Z" fill="#4CAF50"/>
<path opacity="0.1" d="M179.39 176.025L154.217 185.77L117.422 200C116.034 197.421 113.986 193.893 111.452 189.705C102.738 175.254 88.3186 152.777 75.4847 133.026C61.0196 110.77 48.5723 91.9774 48.5723 91.9774L57.5841 89.3634L131.194 68.002L179.39 176.025Z" fill="black"/>
<path d="M179.892 174.267L154.719 184.012L117.924 198.242C116.536 195.664 114.488 192.136 111.954 187.947C103.24 173.496 88.8205 151.02 75.9867 131.268C61.5216 109.012 49.0742 90.2196 49.0742 90.2196L58.086 87.6056L131.696 66.2441L179.892 174.267Z" fill="white"/>
<path opacity="0.1" d="M179.892 174.267L154.719 184.012C140.659 186.943 126.312 188.263 111.954 187.947C103.24 173.496 88.8204 151.02 75.9866 131.268L58.0859 87.6056L131.696 66.2441L179.892 174.267Z" fill="black"/>
<path d="M198.621 168.205C198.621 168.205 159.512 191.351 101.124 186.128L54.5723 72.5813L76.8797 68.7469L153.993 55.4961L197.747 166.01L198.621 168.205Z" fill="#4CAF50"/>
<path opacity="0.1" d="M197.747 166.01C188.537 166.462 177.887 166.419 167.166 165.141C155.567 163.78 143.912 160.963 133.899 155.805C125.537 151.493 118.388 146.81 112.151 141.188C95.9372 126.594 85.9015 105.717 76.8896 68.7469L154.003 55.4961L197.747 166.01Z" fill="black"/>
<path d="M226.434 159.662C226.434 159.662 197.594 165.316 168.268 161.834C156.668 160.465 145.001 157.655 135.001 152.498C126.639 148.186 119.489 143.503 113.253 137.881C93.1766 119.801 82.5838 92.1244 71.6572 36.2059C71.6572 36.2059 119.59 47.7793 166.947 22.4277C166.947 22.4277 182.921 122.184 226.434 159.662Z" fill="white"/>
<path opacity="0.1" d="M168.267 161.835C156.668 160.466 145.001 157.656 135.001 152.499C126.639 148.187 119.489 143.504 113.253 137.882C130.34 136.493 132.797 127.145 132.797 127.145C145.466 147.263 168.267 161.835 168.267 161.835Z" fill="black"/>
<path opacity="0.3" d="M96.4443 56.7381C96.4443 56.7381 122.192 59.6785 146.292 46.1289L147.943 51.4347C147.943 51.4347 124.888 62.9379 96.4443 62.9379V56.7381Z" fill="#4CAF50"/>
<path opacity="0.3" d="M96.4443 82.9253C96.4443 82.9253 122.042 80.8588 150.538 67.0781L151.501 69.2828C151.501 69.2828 141.014 82.4884 96.4443 85.9386V82.9253Z" fill="black"/>
<path opacity="0.3" d="M99.4785 93.1396C99.4785 93.1396 125.076 91.073 153.572 77.2949L154.536 79.4996C154.536 79.4996 144.051 92.7178 99.4785 96.1705V93.1396Z" fill="black"/>
<path opacity="0.3" d="M102.254 104.151C102.254 104.151 127.851 102.085 156.347 88.3066L157.311 90.5113C157.311 90.5113 146.811 103.722 102.254 107.182V104.151Z" fill="black"/>
<path opacity="0.3" d="M105.549 113.587C105.549 113.587 131.146 111.52 159.642 97.7422L160.606 99.9469C160.606 99.9469 150.121 113.16 105.549 116.62V113.587Z" fill="black"/>
<path opacity="0.1" d="M108.586 123.812C108.586 123.812 134.183 121.745 162.679 107.967L163.643 110.171C163.643 110.171 153.156 123.385 108.586 126.842V123.812Z" fill="black"/>
<path opacity="0.3" d="M161.928 60.2008L154.766 62.6406L157.204 69.8075L164.367 67.3677L161.928 60.2008Z" fill="#4CAF50"/>
<path opacity="0.3" d="M166.003 70.8629L158.841 73.3027L161.279 80.4696L168.442 78.0298L166.003 70.8629Z" fill="#4CAF50"/>
<path opacity="0.3" d="M172.536 91.3786L165.373 93.8184L167.811 100.985L174.974 98.5454L172.536 91.3786Z" fill="#4CAF50"/>
<path opacity="0.3" d="M176.284 102.388L169.121 104.828L171.559 111.995L178.722 109.555L176.284 102.388Z" fill="#4CAF50"/>
<path opacity="0.3" d="M169.326 81.9391L162.163 84.3789L164.601 91.5458L171.764 89.106L169.326 81.9391Z" fill="#4CAF50"/>
<path d="M244.219 112.89L243.951 112.639C244.644 112.498 245.296 112.435 245.296 112.435C245.296 112.435 242.92 103.833 238.912 100.962C236.929 99.5436 235.278 97.1808 234.111 95.1543C231.984 91.4901 229.594 87.9847 226.961 84.6657L226.238 83.7542L225.927 83.3574C226.361 82.6995 226.893 82.0743 226.833 81.3109C226.832 81.306 226.832 81.3008 226.833 81.2959C226.836 81.2557 226.836 81.2155 226.833 81.1753C226.826 81.081 226.809 80.9876 226.783 80.8966L226.755 80.9393C226.417 79.955 225.114 79.5205 224.148 78.9782C221.889 77.7051 220.923 74.9228 220.441 72.3364C220.065 70.3276 219.754 68.0677 218.183 66.7745C217.179 65.9433 215.814 65.6696 214.802 64.8435C213.844 64.06 213.309 62.8723 212.707 61.78C211.703 59.9595 210.378 58.2645 208.629 57.1772C206.88 56.09 204.659 55.6706 202.739 56.3988C202.004 56.6801 201.336 57.117 200.608 57.4208C198.802 58.1741 196.731 58.0737 194.942 58.8697C192.738 59.849 191.306 62.0135 189.996 64.0676C189.318 65.1297 188.254 66.6841 187.649 68.2485C187.649 68.1932 187.649 68.1405 187.649 68.0852C187.359 68.7745 187.201 69.5121 187.182 70.2598C187.17 70.5779 187.205 70.8959 187.285 71.204C187.556 72.2084 188.364 72.7633 189.323 73.15C189.378 73.4695 189.452 73.7856 189.544 74.0967C189.978 75.5255 190.749 76.8285 191.793 77.8955C192.837 78.9625 194.123 79.762 195.542 80.2262C195.624 80.2563 195.71 80.2764 195.793 80.3015C195.862 80.5003 195.963 80.6867 196.091 80.8539C196.892 81.8583 198.498 81.5721 199.542 80.8414C199.585 80.8137 199.625 80.7786 199.665 80.7484C199.672 80.8906 199.687 81.0323 199.71 81.1728C199.733 81.2933 199.75 81.4239 199.775 81.5319C200.716 86.6067 203.126 89.3463 203.126 89.3463C203.126 89.3463 203.349 89.6828 203.713 90.2402C203.522 93.04 204.799 95.5913 206.275 97.5624C205.003 98.2982 202.26 99.7395 200.563 99.619C200.563 99.619 194.33 100.425 193.607 100.021C193.506 99.9655 193.411 100.041 193.321 100.212C191.604 99.1645 186.116 96.1462 185.646 100.021C185.222 103.536 190.224 103.986 192.605 104.003C192.498 105.033 192.437 105.856 192.437 105.856L202.679 105.156L208.012 104.37C207.422 105.151 206.757 105.846 206.107 106.185C206.107 106.185 201.286 110.09 200.453 110.125C200.335 110.125 200.297 110.243 200.315 110.432C198.287 110.432 191.981 110.725 193.73 114.241C195.318 117.427 199.79 115.223 201.813 114.005C202.29 114.931 202.696 115.657 202.696 115.657L210.96 109.769L212.75 108.262C213.356 108.233 213.955 108.117 214.529 107.918C214.529 107.941 214.546 107.963 214.554 107.983C214.618 108.168 214.666 108.358 214.697 108.551C215.199 111.436 213.513 118.166 213.513 118.166C213.513 118.166 209.803 127.63 211.585 128.92C213.367 130.211 212.049 135.658 212.049 135.658C212.36 136.181 212.718 136.675 213.119 137.134C213.307 137.352 213.517 137.551 213.743 137.729C213.661 137.955 213.592 138.185 213.538 138.42C213.265 139.58 213.368 140.797 213.831 141.895C215.056 144.868 214.311 149.177 214.311 149.177L211.906 165.429C210.752 165.253 209.261 165.107 208.707 165.429C207.856 165.908 208.135 168.326 210.11 169.366C209.51 169.825 208.816 170.145 208.077 170.302C206.32 170.704 205.085 170.96 204.272 171.116C204.22 171.116 200.056 170.197 198.987 170.805C197.918 171.412 198.433 174.782 201.474 175.608C204.451 176.414 215.55 177.597 218.747 177.115L218.951 177.08C221.669 176.542 219.282 172.969 218.981 172.535C218.961 172.389 218.943 172.236 218.923 172.07C218.88 171.699 218.843 171.272 218.815 170.815C221.847 171.093 224.838 171.229 226.211 171.023C226.276 171.023 226.336 171.003 226.392 170.991C228.798 170.513 226.69 167.355 226.419 166.973C226.407 166.876 226.395 166.773 226.382 166.664V166.636C226.382 166.564 226.364 166.486 226.356 166.41C226.349 166.335 226.356 166.282 226.336 166.214C226.316 166.147 226.336 166.094 226.319 166.031C226.309 165.907 226.299 165.779 226.289 165.647C226.289 165.594 226.289 165.539 226.289 165.484C226.289 165.383 226.276 165.283 226.271 165.18C226.271 165.125 226.271 165.069 226.271 165.012C226.271 164.861 226.271 164.705 226.256 164.55C226.256 164.507 226.256 164.464 226.256 164.422C226.256 164.296 226.256 164.171 226.256 164.04C226.256 163.98 226.256 163.919 226.256 163.857C226.256 163.724 226.256 163.59 226.256 163.455C226.256 163.41 226.256 163.367 226.256 163.322C226.256 163.154 226.271 162.98 226.281 162.807L226.296 162.621C226.296 162.493 226.316 162.37 226.329 162.239C226.329 162.177 226.329 162.114 226.349 162.051C226.369 161.875 226.392 161.7 226.417 161.521C226.417 161.469 226.434 161.416 226.442 161.363C226.464 161.23 226.487 161.094 226.512 160.959C226.512 160.894 226.537 160.826 226.552 160.758C226.582 160.612 226.615 160.467 226.65 160.321C226.65 160.281 226.668 160.241 226.678 160.201C226.723 160.025 226.773 159.851 226.826 159.678C226.843 159.618 226.863 159.558 226.883 159.497C226.926 159.367 226.971 159.246 227.019 159.111L227.079 158.95C227.147 158.779 227.22 158.611 227.295 158.448C227.315 158.405 227.338 158.362 227.36 158.32C227.423 158.189 227.491 158.069 227.561 157.933L227.646 157.785C227.742 157.624 227.84 157.463 227.948 157.31C230.708 153.373 231.436 145.78 231.368 144.127C231.3 142.475 231.697 139.047 232.191 138.54C232.522 138.201 234.45 135.527 235.602 133.493C235.81 133.121 235.991 132.772 236.134 132.461C236.952 132.177 237.494 131.959 237.494 131.959C237.206 130.905 237.067 129.815 237.082 128.722C237.102 126.585 237.69 123.77 240.114 121.485C243.692 118.11 244.192 114.766 244.24 113.48C244.24 113.39 244.24 113.309 244.24 113.241C244.232 113.005 244.219 112.89 244.219 112.89Z" fill="url(#paint0_linear)"/>
<path d="M234.683 133.949C233.711 135.685 232.621 137.352 231.42 138.938C230.948 139.44 230.569 142.833 230.635 144.463C230.7 146.092 230.01 153.605 227.372 157.497C224.735 161.389 226.09 168.117 226.09 168.117L221.881 169.593H216.825L213.341 168.551L212.423 166.015C212.423 166.015 213.648 165.827 216.689 165.103C217.533 164.931 218.297 164.488 218.866 163.841C219.434 163.194 219.776 162.379 219.839 161.52L221.974 146.597C221.974 146.597 222.604 142.83 221.565 140.224C221.272 139.49 221.151 138.7 221.21 137.912C221.269 137.124 221.508 136.36 221.906 135.679L221.974 135.573C221.974 135.573 225.269 132.969 228.627 131.34C231.601 129.903 234.617 129.22 235.473 131.769C235.584 132.098 235.222 132.944 234.683 133.949Z" fill="#A5636D"/>
<path opacity="0.05" d="M234.683 133.949C233.711 135.685 232.621 137.352 231.42 138.938C230.948 139.44 230.569 142.833 230.635 144.463C230.7 146.092 230.01 153.605 227.372 157.497C225.515 160.242 225.638 164.39 225.867 166.602C225.964 167.529 226.085 168.109 226.085 168.109L221.876 169.586H216.825L213.341 168.551L212.423 166.015C212.423 166.015 212.729 165.967 213.427 165.832C214.124 165.696 215.183 165.465 216.704 165.103C217.545 164.929 218.306 164.484 218.872 163.837C219.437 163.191 219.777 162.377 219.839 161.52L221.974 146.597C221.974 146.597 222.604 142.83 221.565 140.224C221.272 139.49 221.151 138.7 221.21 137.912C221.269 137.124 221.508 136.36 221.906 135.679L221.974 135.573C221.974 135.573 225.269 132.969 228.627 131.34C231.601 129.903 234.617 129.22 235.473 131.769C235.584 132.098 235.222 132.944 234.683 133.949Z" fill="black"/>
<path opacity="0.1" d="M226.09 168.12L221.881 169.596H216.825L213.341 168.551L212.423 166.015C212.423 166.015 212.729 165.968 213.427 165.832C213.377 166.293 213.499 166.756 213.767 167.133C214.036 167.511 214.433 167.777 214.885 167.881L216.862 167.949C217.141 167.949 217.422 167.964 217.698 167.964C220.48 167.965 223.242 167.506 225.874 166.605C225.974 167.532 226.09 168.12 226.09 168.12Z" fill="black"/>
<path d="M216.861 168.376L214.881 168.308C214.881 168.308 213.034 167.917 213.485 165.82C213.485 165.82 209.922 165.011 209.011 165.546C208.1 166.081 208.539 169.032 211.114 169.755C213.623 170.46 223.024 171.497 225.727 171.073L225.9 171.043C228.349 170.541 225.9 167.025 225.9 167.025C222.994 168.02 219.931 168.478 216.861 168.376Z" fill="#BEBED0"/>
<path d="M229.054 134.527C228.921 134.793 228.778 135.069 228.615 135.358C227.373 137.618 225.38 140.463 225.031 140.832C224.499 141.399 224.075 145.226 224.143 147.074C224.211 148.922 223.438 157.39 220.461 161.784C218.938 164.044 218.594 167.12 218.619 169.596C218.627 170.435 218.676 171.273 218.767 172.107C218.878 173.129 219.018 173.767 219.018 173.767L214.27 175.432H208.556L204.624 174.261L203.595 171.389C203.595 171.389 203.939 171.334 204.711 171.18C205.484 171.027 206.689 170.771 208.411 170.364C209.36 170.168 210.22 169.667 210.86 168.937C211.5 168.208 211.885 167.289 211.957 166.321L214.363 149.48C214.363 149.48 215.073 145.224 213.904 142.286C213.463 141.195 213.364 139.996 213.623 138.848C213.763 138.203 214.018 137.589 214.376 137.035C214.376 137.035 215.294 136.312 216.68 135.355C217.292 134.933 218.002 134.466 218.765 133.994C222.118 131.918 226.527 129.798 228.64 131.343C229.106 131.694 229.447 132.186 229.614 132.746C229.699 133.038 229.461 133.698 229.054 134.527Z" fill="#A5636D"/>
<path opacity="0.1" d="M219.006 173.77L214.258 175.435H208.556L204.624 174.265L203.595 171.392C203.595 171.392 203.939 171.337 204.711 171.184C204.662 171.524 204.697 171.871 204.814 172.195C204.93 172.518 205.124 172.808 205.379 173.039C205.775 173.376 206.275 173.564 206.794 173.572L208.594 173.629C208.907 173.629 209.224 173.647 209.537 173.647C212.678 173.646 215.796 173.127 218.767 172.11C218.878 173.132 219.006 173.77 219.006 173.77Z" fill="black"/>
<path d="M208.591 174.056L206.794 173.996C206.274 173.987 205.774 173.799 205.376 173.464C204.92 173.057 204.526 172.354 204.782 171.171C204.782 171.171 200.766 170.26 199.73 170.862C198.693 171.465 199.2 174.797 202.104 175.613C204.947 176.409 215.548 177.579 218.599 177.102L218.792 177.067C221.553 176.5 218.792 172.527 218.792 172.527C215.513 173.654 212.056 174.172 208.591 174.056Z" fill="#BEBED0"/>
<path opacity="0.1" d="M234.683 133.95C232.964 134.55 230.439 135.346 229.054 135.378C228.911 135.384 228.767 135.377 228.625 135.358C227.656 135.225 224.662 135.439 221.917 135.685C220.815 135.783 219.756 135.886 218.88 135.976C217.575 136.112 216.677 136.21 216.677 136.21V135.358C217.289 134.936 217.999 134.469 218.762 133.997C222.115 131.921 226.524 129.801 228.637 131.346C231.611 129.909 234.628 129.226 235.483 131.775C235.584 132.099 235.222 132.945 234.683 133.95Z" fill="black"/>
<path d="M242.932 114.144C242.885 115.417 242.408 118.722 238.99 122.061C234.633 126.318 236.48 132.43 236.48 132.43C236.48 132.43 231.285 134.471 229.044 134.526C228.901 134.532 228.757 134.525 228.615 134.506C227.27 134.318 221.93 134.813 218.861 135.124C217.556 135.26 216.657 135.357 216.657 135.357V117.278L240.731 111.43L242.912 113.602C242.931 113.782 242.938 113.963 242.932 114.144Z" fill="#5C5C8E"/>
<g opacity="0.1">
<path opacity="0.1" d="M217.064 135.134L216.667 135.177V135.368C216.667 135.368 217.565 135.27 218.87 135.134C221.074 134.911 224.439 134.597 226.665 134.504C225.124 134.364 220.035 134.833 217.064 135.134Z" fill="black"/>
<path opacity="0.1" d="M242.922 113.612L240.741 111.438L239.288 111.802L241.115 113.622C241.127 113.804 241.127 113.986 241.115 114.167C241.067 115.438 240.591 118.745 237.173 122.084C232.816 126.338 234.663 132.452 234.663 132.452C234.663 132.452 230.364 134.14 227.902 134.489C228.137 134.488 228.372 134.501 228.605 134.527C228.747 134.546 228.891 134.554 229.034 134.549C231.275 134.494 236.47 132.452 236.47 132.452C236.47 132.452 234.613 126.338 238.98 122.084C242.398 118.745 242.874 115.438 242.922 114.167C242.935 113.982 242.935 113.797 242.922 113.612Z" fill="black"/>
</g>
<path d="M194.824 101.373C194.824 101.373 187.546 96.3204 187.012 100.87C186.477 105.42 194.824 104.77 194.824 104.77V101.373Z" fill="#A5636D"/>
<path d="M207.371 98.0234C207.371 98.0234 203.434 100.63 201.256 100.469C201.256 100.469 195.303 101.268 194.61 100.868C193.918 100.469 193.496 106.644 193.496 106.644L203.283 105.953L209.557 104.994C209.557 104.994 212.694 103.081 212.694 101.431C212.694 99.7812 207.371 98.0234 207.371 98.0234Z" fill="#F7CDDD"/>
<path opacity="0.05" d="M207.371 98.0234C207.371 98.0234 203.434 100.63 201.256 100.469C201.256 100.469 195.303 101.268 194.61 100.868C193.918 100.469 193.496 106.644 193.496 106.644L203.283 105.953L209.557 104.994C209.557 104.994 212.694 103.081 212.694 101.431C212.694 99.7812 207.371 98.0234 207.371 98.0234Z" fill="black"/>
<path d="M201.598 111.172C201.598 111.172 192.746 110.806 194.729 114.939C196.711 119.072 203.42 114.055 203.42 114.055L201.598 111.172Z" fill="#A5636D"/>
<path d="M210.501 102.385C210.501 102.385 203.327 97.0143 204.338 90.473C205.349 83.9318 210.501 95.4801 210.501 95.4801V102.385Z" fill="#5C5C8E"/>
<path d="M208.519 72.7304C208.516 75.0835 207.601 77.3439 205.967 79.0356C205.569 79.4513 205.13 79.8257 204.657 80.153C203.753 80.7834 202.746 81.2492 201.68 81.5291C201.257 81.6349 200.827 81.7112 200.393 81.7576C200.082 81.7877 199.768 81.8053 199.449 81.8053C198.432 81.8111 197.421 81.6412 196.461 81.3031C194.889 80.7542 193.499 79.7832 192.442 78.4964C191.385 77.2096 190.703 75.6566 190.469 74.0076C190.236 72.3585 190.461 70.677 191.119 69.1472C191.777 67.6174 192.843 66.2983 194.2 65.3344C195.558 64.3705 197.154 63.799 198.815 63.6824C200.475 63.5658 202.136 63.9087 203.614 64.6735C205.093 65.4383 206.333 66.5955 207.198 68.0184C208.063 69.4413 208.52 71.0749 208.519 72.7404V72.7304Z" fill="#A5636D"/>
<path opacity="0.1" d="M242.932 114.144C242.119 114.295 241.115 114.566 241.115 114.988C241.115 115.698 229.777 119.528 229.777 119.528C229.777 119.528 230.201 120.517 229.069 122.22C227.938 123.922 218.722 133.705 218.722 133.705L218.753 133.996L218.871 135.124L219.433 140.513C219.433 140.513 215.889 139.237 214.755 139.378C214.388 139.425 214.002 139.189 213.623 138.85C213.763 138.206 214.018 137.591 214.376 137.037C214.376 137.037 215.294 136.314 216.68 135.357V117.278L240.754 111.43L242.935 113.602C242.946 113.782 242.945 113.964 242.932 114.144Z" fill="black"/>
<path d="M243.951 113.147C243.951 113.147 241.115 113.428 241.115 114.138C241.115 114.849 229.777 118.678 229.777 118.678C229.777 118.678 230.201 119.668 229.069 121.37C227.938 123.073 218.722 132.858 218.722 132.858L219.433 139.663C219.433 139.663 215.889 138.388 214.755 138.528C214.253 138.591 213.688 138.124 213.224 137.579C212.84 137.125 212.498 136.636 212.203 136.12C212.203 136.12 213.48 130.729 211.779 129.453C210.077 128.178 213.621 118.819 213.621 118.819C213.621 118.819 215.222 112.165 214.75 109.31C214.721 109.119 214.675 108.931 214.614 108.747C214.614 108.727 214.602 108.705 214.594 108.684C213.59 105.957 202.709 83.0717 202.709 83.0717C202.716 82.4226 202.761 81.7745 202.845 81.1307C202.867 80.9524 202.897 80.7666 202.93 80.5783C202.985 80.2397 203.059 79.9044 203.151 79.5739C203.208 79.362 203.277 79.1533 203.356 78.9486C203.693 78.0848 204.207 77.4194 204.975 77.4043C204.975 77.4043 205.826 76.4627 207.821 76.2065C209.282 76.0157 211.367 76.2065 214.19 77.4043C220.848 80.2368 222.409 80.3824 222.409 80.3824L225.754 84.7767L226.442 85.6782C228.962 88.9676 231.244 92.4334 233.27 96.0488C234.385 98.0577 235.963 100.39 237.855 101.794C241.682 104.639 243.951 113.147 243.951 113.147Z" fill="#F7CDDD"/>
<path opacity="0.1" d="M219.111 96.748C219.111 96.748 228.572 99.0884 232.239 104.989L219.111 96.748Z" fill="black"/>
<path opacity="0.1" d="M222.035 107.117C222.035 107.117 223.824 119.138 223.328 120.042C222.831 120.946 222.035 107.117 222.035 107.117Z" fill="black"/>
<path opacity="0.1" d="M221.395 113.286C220.707 114.188 217.914 121.156 217.914 121.156L218.72 132.858L219.43 139.662C219.43 139.662 215.889 138.387 214.754 138.527C214.253 138.59 213.685 138.123 213.224 137.578C213.959 133.593 215.532 125.254 215.816 125.093C216.19 124.88 218.105 118.18 218.205 116.305C218.305 114.429 220.966 110.248 220.966 110.248C220.966 110.248 222.087 112.385 221.395 113.286Z" fill="black"/>
<path opacity="0.1" d="M218.722 101.801C218.547 102.331 218.276 105.417 218.276 105.417C218.08 108.134 216.017 109.023 214.75 109.309C214.721 109.118 214.675 108.93 214.614 108.747C213.764 106.339 202.709 83.0814 202.709 83.0814C202.721 81.9014 202.869 80.7268 203.151 79.581C205.557 78.8729 209.367 79.9627 209.367 79.9627C210.469 79.817 214.062 86.966 214.062 86.966C214.062 86.966 216.456 92.4401 216.72 93.1858C216.983 93.9316 216.72 95.1545 216.825 95.5814C216.931 96.0083 218.05 96.3749 218.208 96.9625C218.366 97.55 218.263 98.7202 218.369 98.9286C218.474 99.137 218.901 101.269 218.722 101.801Z" fill="black"/>
<path d="M217.872 101.374C217.696 101.906 217.425 104.99 217.425 104.99C217.264 107.25 215.809 108.254 214.594 108.683C214.047 108.879 213.473 108.993 212.893 109.022L211.184 110.509L203.291 116.322C203.291 116.322 200.35 110.88 201.148 110.85C201.946 110.82 206.548 106.953 206.548 106.953C207.956 106.2 209.367 103.689 210.022 102.398C209.984 102.244 209.955 102.088 209.936 101.931C209.653 99.523 203.7 90.3024 203.7 90.3024C203.7 90.3024 201.399 87.593 200.503 82.5734C200.478 82.4579 200.46 82.3399 200.438 82.2194C200.412 82.0632 200.397 81.9055 200.393 81.7473C200.285 79.8163 201.69 79.1132 203.356 78.9475C204.227 78.8784 205.102 78.9053 205.966 79.0278C206.828 79.1364 207.68 79.3042 208.518 79.53C209.231 79.4346 210.988 82.4002 212.14 84.5019C212.76 85.6419 213.206 86.5308 213.206 86.5308C213.206 86.5308 215.6 92.0075 215.864 92.7507C216.127 93.494 215.864 94.7219 215.969 95.1463C216.075 95.5706 217.194 95.9423 217.352 96.5298C217.51 97.1174 217.407 98.2876 217.513 98.496C217.618 98.7044 218.05 100.841 217.872 101.374Z" fill="#F7CDDD"/>
<path opacity="0.1" d="M227.026 89.1056C225.52 90.6449 223.089 90.6499 221.136 89.8589C219.184 89.0679 217.53 87.6517 215.72 86.5493C214.546 85.8312 213.301 85.2436 212.144 84.5028C211.974 84.3924 211.808 84.2819 211.642 84.1664C210.307 83.2222 209.15 82.0094 207.768 81.1531C206.843 80.5376 205.766 80.19 204.656 80.1487C204.145 80.1441 203.639 80.2503 203.173 80.4601C203.086 80.4952 203.002 80.5363 202.922 80.5831C202.466 80.8443 202.045 81.1606 201.667 81.5247C201.275 81.8763 200.902 82.2504 200.49 82.5794C200.465 82.4639 200.447 82.3458 200.425 82.2253C200.399 82.0691 200.384 81.9114 200.38 81.7532C200.068 81.7834 199.755 81.801 199.436 81.801C198.418 81.8068 197.407 81.6369 196.447 81.2987C196.447 81.2611 196.447 81.2234 196.425 81.1857C196.086 79.3979 195.473 77.5046 194.035 76.5001C193.202 75.9176 191.872 75.679 190.718 75.2446C190.318 73.8513 190.257 72.3823 190.541 70.9607C190.825 69.5391 191.445 68.2062 192.35 67.0737C193.254 65.9412 194.417 65.042 195.74 64.4514C197.063 63.8607 198.508 63.5959 199.955 63.679C201.401 63.7621 202.807 64.1907 204.054 64.929C205.3 65.6673 206.352 66.6937 207.121 67.9224C207.89 69.151 208.354 70.5461 208.473 71.9909C208.593 73.4357 208.365 74.888 207.808 76.2264C209.268 76.0356 211.354 76.2264 214.177 77.4242C220.835 80.2567 222.396 80.4023 222.396 80.4023L225.741 84.7966C225.38 85.3491 224.971 85.894 224.933 86.5393C224.87 87.722 226.022 88.5481 227.026 89.1056Z" fill="black"/>
<path d="M194.046 75.6426C195.484 76.647 196.096 78.5378 196.438 80.3232C196.543 80.8806 196.643 81.4682 196.985 81.9101C197.738 82.8995 199.283 82.6208 200.28 81.9101C201.276 81.1995 202.061 80.1223 203.173 79.6201C204.649 78.9521 206.385 79.4393 207.768 80.3056C209.151 81.1719 210.308 82.3847 211.643 83.3188C212.935 84.2303 214.376 84.8807 215.721 85.7018C217.53 86.8042 219.184 88.2279 221.137 89.0114C223.089 89.7948 225.528 89.7923 227.024 88.2581C226.02 87.7006 224.868 86.877 224.946 85.6817C225.024 84.4865 226.414 83.5951 226.321 82.3697C226.229 81.1443 224.788 80.6647 223.754 80.062C221.596 78.8065 220.675 76.0443 220.213 73.4956C219.854 71.5018 219.558 69.2745 218.07 67.9939C217.109 67.1703 215.811 66.9016 214.843 66.0855C213.927 65.3096 213.417 64.1369 212.835 63.0547C211.874 61.2542 210.612 59.5794 208.943 58.5021C207.274 57.4249 205.151 56.9955 203.319 57.7338C202.616 58.0125 201.976 58.4444 201.284 58.7382C199.557 59.4915 197.582 59.3835 195.873 60.1695C193.767 61.1387 192.4 63.2782 191.147 65.3096C190.088 67.0497 187.988 70.1183 188.583 72.3782C189.175 74.6758 192.485 74.5528 194.046 75.6426Z" fill="#4C3E42"/>
<g opacity="0.1">
<path opacity="0.1" d="M226.319 82.2332C226.311 82.1399 226.295 82.0475 226.271 81.957C225.89 82.5572 225.415 83.1397 225.37 83.8428C225.361 84.0055 225.374 84.1687 225.41 84.3275C225.835 83.652 226.379 83.0167 226.319 82.2332Z" fill="black"/>
<path opacity="0.1" d="M221.561 87.1797C219.608 86.3963 217.957 84.9725 216.148 83.8702C214.8 83.0491 213.36 82.3987 212.067 81.4872C210.732 80.543 209.575 79.3302 208.193 78.4739C206.81 77.6177 205.076 77.1205 203.598 77.7859C202.486 78.2881 201.703 79.3553 200.704 80.0785C199.705 80.8017 198.174 81.0829 197.409 80.0785C197.068 79.6365 196.967 79.049 196.862 78.4915C196.523 76.7061 195.908 74.8153 194.473 73.8109C192.909 72.7186 189.599 72.8416 188.999 70.5465C188.899 70.136 188.873 69.7108 188.922 69.291C188.538 70.3155 188.339 71.3451 188.573 72.2415C189.175 74.5466 192.485 74.4236 194.046 75.5059C195.484 76.5103 196.096 78.4036 196.438 80.189C196.543 80.7464 196.644 81.334 196.982 81.776C197.735 82.7653 199.281 82.4866 200.28 81.7634C201.279 81.0402 202.059 79.9755 203.173 79.4733C204.649 78.8079 206.386 79.295 207.768 80.1613C209.151 81.0277 210.308 82.2405 211.643 83.1746C212.936 84.0886 214.376 84.7365 215.721 85.5576C217.531 86.6625 219.184 88.0862 221.137 88.8697C223.089 89.6531 225.529 89.6481 227.024 88.1164C226.637 87.9084 226.27 87.6655 225.928 87.3907C224.567 87.8904 222.944 87.7347 221.561 87.1797Z" fill="black"/>
</g>
<path d="M177.144 104.353L197.22 96.8501C197.455 96.762 197.705 96.721 197.956 96.7296C198.206 96.7382 198.453 96.7962 198.681 96.9002C198.909 97.0043 199.115 97.1523 199.286 97.3359C199.457 97.5194 199.59 97.7349 199.677 97.97C199.765 98.2051 199.806 98.4552 199.797 98.706C199.788 98.9568 199.729 99.2034 199.625 99.4316C199.521 99.6599 199.373 99.8654 199.189 100.036C199.006 100.207 198.791 100.341 198.556 100.428L178.479 107.934L174.178 107.502L177.144 104.353Z" fill="#5C5C8E"/>
<path opacity="0.1" d="M199.068 97.3675C199.245 97.8426 199.226 98.3688 199.016 98.8302C198.805 99.2916 198.421 99.6506 197.946 99.8283L177.869 107.331L174.637 107.007L174.173 107.51L178.474 107.942L198.551 100.436C198.786 100.348 199.001 100.215 199.185 100.044C199.368 99.8731 199.516 99.6675 199.62 99.4393C199.725 99.211 199.783 98.9644 199.792 98.7136C199.801 98.4628 199.76 98.2128 199.672 97.9776C199.525 97.5817 199.251 97.246 198.892 97.0234C198.961 97.1324 199.02 97.2476 199.068 97.3675Z" fill="white"/>
<path d="M177.144 104.354L178.482 107.934L174.951 107.58L174.178 107.502L175.234 106.382L177.144 104.354Z" fill="#EFC8C4"/>
<path d="M175.232 106.383C175.315 106.444 175.385 106.52 175.437 106.609C175.471 106.661 175.488 106.721 175.488 106.783C175.488 106.845 175.471 106.906 175.437 106.958C175.38 107.014 175.314 107.06 175.242 107.096C175.16 107.15 175.092 107.221 175.043 107.305C174.993 107.389 174.963 107.483 174.956 107.581L174.183 107.503L175.232 106.383Z" fill="#727A9C"/>
<path d="M159.62 65.5552L156.235 63.9029C156.186 63.8794 156.143 63.8465 156.108 63.8062C156.072 63.766 156.045 63.7191 156.027 63.6682C156.01 63.6174 156.002 63.5636 156.006 63.51C156.009 63.4563 156.023 63.4038 156.046 63.3555L156.405 62.6173C156.429 62.5687 156.461 62.5253 156.501 62.4895C156.542 62.4537 156.589 62.4262 156.639 62.4087C156.69 62.3912 156.744 62.384 156.798 62.3874C156.852 62.3909 156.904 62.405 156.952 62.4289L159.233 63.5413L161.615 58.6548C161.663 58.5573 161.747 58.4825 161.849 58.4468C161.952 58.411 162.064 58.4172 162.162 58.464L162.9 58.8256C162.948 58.8489 162.992 58.8816 163.028 58.9219C163.063 58.9621 163.091 59.009 163.108 59.0599C163.126 59.1109 163.133 59.1648 163.13 59.2185C163.126 59.2722 163.112 59.3248 163.088 59.373L160.167 65.3669C160.143 65.4152 160.111 65.4584 160.07 65.494C160.03 65.5296 159.983 65.5569 159.932 65.5744C159.882 65.5919 159.828 65.5992 159.774 65.5959C159.721 65.5926 159.668 65.5788 159.62 65.5552Z" fill="#3ACC6C"/>
<path d="M167.015 86.6911L163.63 85.0388C163.582 85.0152 163.539 84.9824 163.503 84.9421C163.467 84.9018 163.44 84.8549 163.423 84.8041C163.405 84.7533 163.398 84.6995 163.401 84.6458C163.404 84.5922 163.418 84.5397 163.442 84.4914L163.801 83.7532C163.849 83.6554 163.934 83.5807 164.037 83.5454C164.14 83.5101 164.252 83.5171 164.35 83.5648L166.629 84.6772L169.008 79.7857C169.056 79.6882 169.14 79.6134 169.242 79.5776C169.345 79.5419 169.457 79.5481 169.555 79.5949L170.29 79.9565C170.339 79.9798 170.382 80.0125 170.418 80.0527C170.454 80.0928 170.482 80.1397 170.499 80.1906C170.517 80.2414 170.525 80.2953 170.521 80.349C170.518 80.4028 170.505 80.4554 170.481 80.5039L167.56 86.4977C167.511 86.595 167.427 86.6693 167.324 86.7045C167.221 86.7397 167.108 86.7331 167.01 86.6861L167.015 86.6911Z" fill="#3ACC6C"/>
<path d="M163.695 76.2744L160.31 74.6222C160.212 74.5745 160.138 74.4903 160.102 74.3877C160.066 74.2852 160.073 74.1727 160.119 74.0748L160.481 73.3365C160.504 73.288 160.537 73.2445 160.577 73.2087C160.617 73.1729 160.664 73.1455 160.715 73.128C160.766 73.1104 160.82 73.1032 160.873 73.1067C160.927 73.1101 160.979 73.1243 161.028 73.1482L163.309 74.2606L165.69 69.3665C165.714 69.3182 165.747 69.275 165.787 69.2394C165.827 69.2038 165.874 69.1765 165.925 69.159C165.976 69.1415 166.03 69.1342 166.083 69.1375C166.137 69.1408 166.189 69.1546 166.238 69.1782L166.975 69.5373C167.073 69.5859 167.147 69.6708 167.182 69.7737C167.217 69.8766 167.211 69.9892 167.164 70.0872L164.24 76.0861C164.216 76.1344 164.184 76.1776 164.143 76.2132C164.103 76.2488 164.056 76.2762 164.005 76.2937C163.955 76.3112 163.901 76.3185 163.847 76.3152C163.794 76.3119 163.741 76.298 163.693 76.2744H163.695Z" fill="#3ACC6C"/>
<path d="M170.227 96.2331L166.842 94.5808C166.794 94.5572 166.751 94.5244 166.715 94.4841C166.679 94.4438 166.652 94.3969 166.635 94.3461C166.617 94.2953 166.61 94.2415 166.613 94.1878C166.616 94.1342 166.63 94.0817 166.654 94.0334L167.013 93.2951C167.036 93.2468 167.069 93.2036 167.109 93.168C167.15 93.1324 167.196 93.1051 167.247 93.0876C167.298 93.0701 167.352 93.0628 167.405 93.0661C167.459 93.0694 167.511 93.0832 167.56 93.1068L169.841 94.2192L172.222 89.3327C172.271 89.235 172.355 89.1602 172.458 89.1245C172.561 89.0887 172.674 89.095 172.772 89.1419L173.507 89.5035C173.556 89.5268 173.599 89.5595 173.635 89.5997C173.671 89.64 173.698 89.6869 173.716 89.7378C173.733 89.7887 173.741 89.8426 173.737 89.8964C173.734 89.9501 173.72 90.0026 173.696 90.0509L170.777 96.0447C170.728 96.142 170.644 96.2163 170.541 96.2515C170.438 96.2868 170.325 96.2801 170.227 96.2331Z" fill="#3ACC6C"/>
<path d="M43.661 161.109C43.661 161.109 45.1542 163.063 42.9734 166.011C40.7926 168.959 38.9907 171.45 39.711 173.293C39.711 173.293 43.0035 167.816 45.6812 167.741C48.3589 167.666 46.6072 164.404 43.661 161.109Z" fill="#3ACC6C"/>
<path opacity="0.1" d="M43.6609 161.109C43.7916 161.298 43.8947 161.504 43.9671 161.722C46.5795 164.796 47.9824 167.663 45.4603 167.749C43.1189 167.814 40.3107 172.002 39.6406 173.059C39.6608 173.145 39.6868 173.229 39.7184 173.311C39.7184 173.311 43.011 167.834 45.6886 167.759C48.3663 167.683 46.6071 164.404 43.6609 161.109Z" fill="black"/>
<path d="M46.4366 163.6C46.4366 164.286 46.3588 164.856 46.2634 164.856C46.1681 164.856 46.0928 164.298 46.0928 163.6C46.0928 162.902 46.1881 163.236 46.2835 163.236C46.3789 163.236 46.4366 162.912 46.4366 163.6Z" fill="#FFD037"/>
<path d="M47.3875 164.418C46.7853 164.747 46.2582 164.948 46.2131 164.863C46.1679 164.777 46.6196 164.446 47.2169 164.109C47.8142 163.773 47.5808 164.019 47.626 164.109C47.6711 164.2 47.9923 164.089 47.3875 164.418Z" fill="#FFD037"/>
<path d="M35.7757 161.109C35.7757 161.109 34.2851 163.063 36.4659 166.011C38.6467 168.959 40.446 171.45 39.7283 173.293C39.7283 173.293 36.4382 167.816 33.758 167.741C31.0778 167.666 32.8295 164.404 35.7757 161.109Z" fill="#3ACC6C"/>
<path opacity="0.1" d="M35.7762 161.109C35.647 161.298 35.5448 161.505 35.4725 161.722C32.8575 164.796 31.4572 167.663 33.9793 167.749C36.3182 167.814 39.1264 172.002 39.799 173.059C39.7779 173.145 39.7511 173.229 39.7187 173.311C39.7187 173.311 36.4286 167.811 33.7434 167.736C31.0582 167.661 32.8299 164.404 35.7762 161.109Z" fill="black"/>
<path d="M33.0029 163.6C33.0029 164.286 33.0782 164.856 33.1736 164.856C33.2689 164.856 33.3467 164.298 33.3467 163.6C33.3467 162.902 33.2514 163.236 33.156 163.236C33.0607 163.236 33.0029 162.912 33.0029 163.6Z" fill="#FFD037"/>
<path d="M32.0496 164.418C32.6544 164.747 33.1789 164.948 33.2241 164.863C33.2692 164.777 32.8175 164.446 32.2202 164.109C31.623 163.773 31.8539 164.019 31.8087 164.109C31.7635 164.2 31.4473 164.089 32.0496 164.418Z" fill="#FFD037"/>
<path opacity="0.1" d="M39.7212 188.229C48.3406 188.229 55.3281 187.156 55.3281 185.833C55.3281 184.51 48.3406 183.438 39.7212 183.438C31.1017 183.438 24.1143 184.51 24.1143 185.833C24.1143 187.156 31.1017 188.229 39.7212 188.229Z" fill="#4CAF50"/>
<path d="M47.752 170.656L47.6767 171.266L47.5738 172.128L47.5286 172.487L47.4257 173.348L47.378 173.707L47.2751 174.568L46.0806 184.362C45.9727 185.235 44.5447 185.918 42.8182 185.918H36.6171C34.893 185.918 33.4676 185.235 33.3546 184.362L32.1601 174.568L32.0547 173.707L32.012 173.348L31.9041 172.487L31.8615 172.128L31.7561 171.266L31.6808 170.656C31.6231 170.154 32.3935 169.742 33.3697 169.742H46.0655C47.0443 169.742 47.8147 170.162 47.752 170.656Z" fill="#65617D"/>
<path d="M47.6783 171.266L47.5729 172.127H31.8656L31.7627 171.266H47.6783Z" fill="#9D9CB5"/>
<path d="M47.5306 172.486L47.4252 173.348H32.0165L31.9111 172.486H47.5306Z" fill="#9D9CB5"/>
<path d="M47.3804 173.707L47.275 174.568H32.165L32.0596 173.707H47.3804Z" fill="#9D9CB5"/>
</g>
<defs>
<linearGradient id="paint0_linear" x1="215.47" y1="177.213" x2="215.47" y2="56.0272" gradientUnits="userSpaceOnUse">
<stop stop-color="#808080" stop-opacity="0.25"/>
<stop offset="0.54" stop-color="#808080" stop-opacity="0.12"/>
<stop offset="1" stop-color="#808080" stop-opacity="0.1"/>
</linearGradient>
<clipPath id="clip0">
<rect x="0.19043" width="289.956" height="200" fill="white"/>
</clipPath>
</defs>
</svg>
