<svg width="251" height="200" viewBox="0 0 251 200" fill="none" xmlns="http://www.w3.org/2000/svg">
<g clip-path="url(#clip0)">
<path opacity="0.1" d="M71.8721 34.3008H53.1046C52.0221 34.3008 51.1445 35.1785 51.1445 36.2612V39.2005C51.1445 40.2832 52.0221 41.1609 53.1046 41.1609H71.8721C72.9547 41.1609 73.8322 40.2832 73.8322 39.2005V36.2612C73.8322 35.1785 72.9547 34.3008 71.8721 34.3008Z" fill="#4CAF50"/>
<path opacity="0.1" d="M95.6153 41.1602H76.8478C75.7653 41.1602 74.8877 42.0379 74.8877 43.1206V46.0599C74.8877 47.1426 75.7653 48.0203 76.8478 48.0203H95.6153C96.6978 48.0203 97.5754 47.1426 97.5754 46.0599V43.1206C97.5754 42.0379 96.6978 41.1602 95.6153 41.1602Z" fill="#4CAF50"/>
<path opacity="0.1" d="M119.358 48.0215H100.591C99.5084 48.0215 98.6309 48.8992 98.6309 49.9819V52.9212C98.6309 54.0039 99.5084 54.8816 100.591 54.8816H119.358C120.441 54.8816 121.319 54.0039 121.319 52.9212V49.9819C121.319 48.8992 120.441 48.0215 119.358 48.0215Z" fill="#4CAF50"/>
<path opacity="0.1" d="M71.8721 24.0098H53.1046C52.0221 24.0098 51.1445 24.8875 51.1445 25.9702V28.9095C51.1445 29.9922 52.0221 30.8699 53.1046 30.8699H71.8721C72.9547 30.8699 73.8322 29.9922 73.8322 28.9095V25.9702C73.8322 24.8875 72.9547 24.0098 71.8721 24.0098Z" fill="#4CAF50"/>
<path opacity="0.1" d="M95.6153 30.8711H76.8478C75.7653 30.8711 74.8877 31.7488 74.8877 32.8315V35.7708C74.8877 36.8535 75.7653 37.7313 76.8478 37.7313H95.6153C96.6978 37.7313 97.5754 36.8535 97.5754 35.7708V32.8315C97.5754 31.7488 96.6978 30.8711 95.6153 30.8711Z" fill="#4CAF50"/>
<path opacity="0.1" d="M119.358 37.7305H100.591C99.5084 37.7305 98.6309 38.6082 98.6309 39.6909V42.6302C98.6309 43.7129 99.5084 44.5906 100.591 44.5906H119.358C120.441 44.5906 121.319 43.7129 121.319 42.6302V39.6909C121.319 38.6082 120.441 37.7305 119.358 37.7305Z" fill="#4CAF50"/>
<path opacity="0.1" d="M145.739 34.3008H126.972C125.889 34.3008 125.012 35.1785 125.012 36.2612V39.2005C125.012 40.2832 125.889 41.1609 126.972 41.1609H145.739C146.822 41.1609 147.699 40.2832 147.699 39.2005V36.2612C147.699 35.1785 146.822 34.3008 145.739 34.3008Z" fill="#4CAF50"/>
<path opacity="0.1" d="M169.482 41.1602H150.715C149.632 41.1602 148.755 42.0379 148.755 43.1206V46.0599C148.755 47.1426 149.632 48.0203 150.715 48.0203H169.482C170.565 48.0203 171.443 47.1426 171.443 46.0599V43.1206C171.443 42.0379 170.565 41.1602 169.482 41.1602Z" fill="#4CAF50"/>
<path opacity="0.1" d="M193.226 48.0215H174.458C173.376 48.0215 172.498 48.8992 172.498 49.9819V52.9212C172.498 54.0039 173.376 54.8816 174.458 54.8816H193.226C194.308 54.8816 195.186 54.0039 195.186 52.9212V49.9819C195.186 48.8992 194.308 48.0215 193.226 48.0215Z" fill="#4CAF50"/>
<path opacity="0.1" d="M145.739 24.0098H126.972C125.889 24.0098 125.012 24.8875 125.012 25.9702V28.9095C125.012 29.9922 125.889 30.8699 126.972 30.8699H145.739C146.822 30.8699 147.699 29.9922 147.699 28.9095V25.9702C147.699 24.8875 146.822 24.0098 145.739 24.0098Z" fill="#4CAF50"/>
<path opacity="0.1" d="M169.482 30.8711H150.715C149.632 30.8711 148.755 31.7488 148.755 32.8315V35.7708C148.755 36.8535 149.632 37.7313 150.715 37.7313H169.482C170.565 37.7313 171.443 36.8535 171.443 35.7708V32.8315C171.443 31.7488 170.565 30.8711 169.482 30.8711Z" fill="#4CAF50"/>
<path opacity="0.1" d="M193.226 37.7305H174.458C173.376 37.7305 172.498 38.6082 172.498 39.6909V42.6302C172.498 43.7129 173.376 44.5906 174.458 44.5906H193.226C194.308 44.5906 195.186 43.7129 195.186 42.6302V39.6909C195.186 38.6082 194.308 37.7305 193.226 37.7305Z" fill="#4CAF50"/>
<path opacity="0.1" d="M71.8721 10.291H53.1046C52.0221 10.291 51.1445 11.1687 51.1445 12.2514V15.1908C51.1445 16.2735 52.0221 17.1512 53.1046 17.1512H71.8721C72.9547 17.1512 73.8322 16.2735 73.8322 15.1908V12.2514C73.8322 11.1687 72.9547 10.291 71.8721 10.291Z" fill="#4CAF50"/>
<path opacity="0.1" d="M95.6153 17.1504H76.8478C75.7653 17.1504 74.8877 18.0281 74.8877 19.1108V22.0501C74.8877 23.1328 75.7653 24.0105 76.8478 24.0105H95.6153C96.6978 24.0105 97.5754 23.1328 97.5754 22.0501V19.1108C97.5754 18.0281 96.6978 17.1504 95.6153 17.1504Z" fill="#4CAF50"/>
<path opacity="0.1" d="M119.358 24.0098H100.591C99.5084 24.0098 98.6309 24.8875 98.6309 25.9702V28.9095C98.6309 29.9922 99.5084 30.8699 100.591 30.8699H119.358C120.441 30.8699 121.319 29.9922 121.319 28.9095V25.9702C121.319 24.8875 120.441 24.0098 119.358 24.0098Z" fill="#4CAF50"/>
<path opacity="0.1" d="M71.8721 0H53.1046C52.0221 0 51.1445 0.877711 51.1445 1.96042V4.89974C51.1445 5.98245 52.0221 6.86016 53.1046 6.86016H71.8721C72.9547 6.86016 73.8322 5.98245 73.8322 4.89974V1.96042C73.8322 0.877711 72.9547 0 71.8721 0Z" fill="#4CAF50"/>
<path opacity="0.1" d="M95.6153 6.85938H76.8478C75.7653 6.85938 74.8877 7.73709 74.8877 8.8198V11.7591C74.8877 12.8418 75.7653 13.7195 76.8478 13.7195H95.6153C96.6978 13.7195 97.5754 12.8418 97.5754 11.7591V8.8198C97.5754 7.73709 96.6978 6.85938 95.6153 6.85938Z" fill="#4CAF50"/>
<path opacity="0.1" d="M119.358 13.7207H100.591C99.5084 13.7207 98.6309 14.5984 98.6309 15.6811V18.6204C98.6309 19.7032 99.5084 20.5809 100.591 20.5809H119.358C120.441 20.5809 121.319 19.7032 121.319 18.6204V15.6811C121.319 14.5984 120.441 13.7207 119.358 13.7207Z" fill="#4CAF50"/>
<path opacity="0.1" d="M145.739 10.291H126.972C125.889 10.291 125.012 11.1687 125.012 12.2514V15.1908C125.012 16.2735 125.889 17.1512 126.972 17.1512H145.739C146.822 17.1512 147.699 16.2735 147.699 15.1908V12.2514C147.699 11.1687 146.822 10.291 145.739 10.291Z" fill="#4CAF50"/>
<path opacity="0.1" d="M169.482 17.1504H150.715C149.632 17.1504 148.755 18.0281 148.755 19.1108V22.0501C148.755 23.1328 149.632 24.0105 150.715 24.0105H169.482C170.565 24.0105 171.443 23.1328 171.443 22.0501V19.1108C171.443 18.0281 170.565 17.1504 169.482 17.1504Z" fill="#4CAF50"/>
<path opacity="0.1" d="M193.226 24.0098H174.458C173.376 24.0098 172.498 24.8875 172.498 25.9702V28.9095C172.498 29.9922 173.376 30.8699 174.458 30.8699H193.226C194.308 30.8699 195.186 29.9922 195.186 28.9095V25.9702C195.186 24.8875 194.308 24.0098 193.226 24.0098Z" fill="#4CAF50"/>
<path opacity="0.1" d="M145.739 0H126.972C125.889 0 125.012 0.877711 125.012 1.96042V4.89974C125.012 5.98245 125.889 6.86016 126.972 6.86016H145.739C146.822 6.86016 147.699 5.98245 147.699 4.89974V1.96042C147.699 0.877711 146.822 0 145.739 0Z" fill="#4CAF50"/>
<path opacity="0.1" d="M169.482 6.85938H150.715C149.632 6.85938 148.755 7.73709 148.755 8.8198V11.7591C148.755 12.8418 149.632 13.7195 150.715 13.7195H169.482C170.565 13.7195 171.443 12.8418 171.443 11.7591V8.8198C171.443 7.73709 170.565 6.85938 169.482 6.85938Z" fill="#4CAF50"/>
<path opacity="0.1" d="M193.226 13.7207H174.458C173.376 13.7207 172.498 14.5984 172.498 15.6811V18.6204C172.498 19.7032 173.376 20.5809 174.458 20.5809H193.226C194.308 20.5809 195.186 19.7032 195.186 18.6204V15.6811C195.186 14.5984 194.308 13.7207 193.226 13.7207Z" fill="#4CAF50"/>
<path opacity="0.1" d="M71.8721 156.465H53.1046C52.0221 156.465 51.1445 157.343 51.1445 158.425V161.365C51.1445 162.447 52.0221 163.325 53.1046 163.325H71.8721C72.9547 163.325 73.8322 162.447 73.8322 161.365V158.425C73.8322 157.343 72.9547 156.465 71.8721 156.465Z" fill="#4CAF50"/>
<path opacity="0.1" d="M95.6153 163.324H76.8478C75.7653 163.324 74.8877 164.202 74.8877 165.285V168.224C74.8877 169.307 75.7653 170.184 76.8478 170.184H95.6153C96.6978 170.184 97.5754 169.307 97.5754 168.224V165.285C97.5754 164.202 96.6978 163.324 95.6153 163.324Z" fill="#4CAF50"/>
<path opacity="0.1" d="M119.358 170.186H100.591C99.5084 170.186 98.6309 171.063 98.6309 172.146V175.085C98.6309 176.168 99.5084 177.046 100.591 177.046H119.358C120.441 177.046 121.319 176.168 121.319 175.085V172.146C121.319 171.063 120.441 170.186 119.358 170.186Z" fill="#4CAF50"/>
<path opacity="0.1" d="M71.8721 146.174H53.1046C52.0221 146.174 51.1445 147.052 51.1445 148.134V151.074C51.1445 152.156 52.0221 153.034 53.1046 153.034H71.8721C72.9547 153.034 73.8322 152.156 73.8322 151.074V148.134C73.8322 147.052 72.9547 146.174 71.8721 146.174Z" fill="#4CAF50"/>
<path opacity="0.1" d="M95.6153 153.035H76.8478C75.7653 153.035 74.8877 153.913 74.8877 154.996V157.935C74.8877 159.018 75.7653 159.895 76.8478 159.895H95.6153C96.6978 159.895 97.5754 159.018 97.5754 157.935V154.996C97.5754 153.913 96.6978 153.035 95.6153 153.035Z" fill="#4CAF50"/>
<path opacity="0.1" d="M119.358 159.895H100.591C99.5084 159.895 98.6309 160.772 98.6309 161.855V164.794C98.6309 165.877 99.5084 166.755 100.591 166.755H119.358C120.441 166.755 121.319 165.877 121.319 164.794V161.855C121.319 160.772 120.441 159.895 119.358 159.895Z" fill="#4CAF50"/>
<path opacity="0.1" d="M145.739 156.465H126.972C125.889 156.465 125.012 157.343 125.012 158.425V161.365C125.012 162.447 125.889 163.325 126.972 163.325H145.739C146.822 163.325 147.699 162.447 147.699 161.365V158.425C147.699 157.343 146.822 156.465 145.739 156.465Z" fill="#4CAF50"/>
<path opacity="0.1" d="M169.482 163.324H150.715C149.632 163.324 148.755 164.202 148.755 165.285V168.224C148.755 169.307 149.632 170.184 150.715 170.184H169.482C170.565 170.184 171.443 169.307 171.443 168.224V165.285C171.443 164.202 170.565 163.324 169.482 163.324Z" fill="#4CAF50"/>
<path opacity="0.1" d="M193.226 170.186H174.458C173.376 170.186 172.498 171.063 172.498 172.146V175.085C172.498 176.168 173.376 177.046 174.458 177.046H193.226C194.308 177.046 195.186 176.168 195.186 175.085V172.146C195.186 171.063 194.308 170.186 193.226 170.186Z" fill="#4CAF50"/>
<path opacity="0.1" d="M145.739 146.174H126.972C125.889 146.174 125.012 147.052 125.012 148.134V151.074C125.012 152.156 125.889 153.034 126.972 153.034H145.739C146.822 153.034 147.699 152.156 147.699 151.074V148.134C147.699 147.052 146.822 146.174 145.739 146.174Z" fill="#4CAF50"/>
<path opacity="0.1" d="M169.482 153.035H150.715C149.632 153.035 148.755 153.913 148.755 154.996V157.935C148.755 159.018 149.632 159.895 150.715 159.895H169.482C170.565 159.895 171.443 159.018 171.443 157.935V154.996C171.443 153.913 170.565 153.035 169.482 153.035Z" fill="#4CAF50"/>
<path opacity="0.1" d="M193.226 159.895H174.458C173.376 159.895 172.498 160.772 172.498 161.855V164.794C172.498 165.877 173.376 166.755 174.458 166.755H193.226C194.308 166.755 195.186 165.877 195.186 164.794V161.855C195.186 160.772 194.308 159.895 193.226 159.895Z" fill="#4CAF50"/>
<path opacity="0.1" d="M71.8721 132.453H53.1046C52.0221 132.453 51.1445 133.331 51.1445 134.414V137.353C51.1445 138.436 52.0221 139.313 53.1046 139.313H71.8721C72.9547 139.313 73.8322 138.436 73.8322 137.353V134.414C73.8322 133.331 72.9547 132.453 71.8721 132.453Z" fill="#4CAF50"/>
<path opacity="0.1" d="M95.6153 139.314H76.8478C75.7653 139.314 74.8877 140.192 74.8877 141.275V144.214C74.8877 145.297 75.7653 146.175 76.8478 146.175H95.6153C96.6978 146.175 97.5754 145.297 97.5754 144.214V141.275C97.5754 140.192 96.6978 139.314 95.6153 139.314Z" fill="#4CAF50"/>
<path opacity="0.1" d="M119.358 146.174H100.591C99.5084 146.174 98.6309 147.052 98.6309 148.134V151.074C98.6309 152.156 99.5084 153.034 100.591 153.034H119.358C120.441 153.034 121.319 152.156 121.319 151.074V148.134C121.319 147.052 120.441 146.174 119.358 146.174Z" fill="#4CAF50"/>
<path opacity="0.1" d="M71.8721 122.164H53.1046C52.0221 122.164 51.1445 123.042 51.1445 124.124V127.064C51.1445 128.147 52.0221 129.024 53.1046 129.024H71.8721C72.9547 129.024 73.8322 128.147 73.8322 127.064V124.124C73.8322 123.042 72.9547 122.164 71.8721 122.164Z" fill="#4CAF50"/>
<path opacity="0.1" d="M95.6153 129.023H76.8478C75.7653 129.023 74.8877 129.901 74.8877 130.984V133.923C74.8877 135.006 75.7653 135.884 76.8478 135.884H95.6153C96.6978 135.884 97.5754 135.006 97.5754 133.923V130.984C97.5754 129.901 96.6978 129.023 95.6153 129.023Z" fill="#4CAF50"/>
<path opacity="0.1" d="M119.358 135.885H100.591C99.5084 135.885 98.6309 136.762 98.6309 137.845V140.785C98.6309 141.867 99.5084 142.745 100.591 142.745H119.358C120.441 142.745 121.319 141.867 121.319 140.785V137.845C121.319 136.762 120.441 135.885 119.358 135.885Z" fill="#4CAF50"/>
<path opacity="0.1" d="M145.739 132.453H126.972C125.889 132.453 125.012 133.331 125.012 134.414V137.353C125.012 138.436 125.889 139.313 126.972 139.313H145.739C146.822 139.313 147.699 138.436 147.699 137.353V134.414C147.699 133.331 146.822 132.453 145.739 132.453Z" fill="#4CAF50"/>
<path opacity="0.1" d="M169.482 139.314H150.715C149.632 139.314 148.755 140.192 148.755 141.275V144.214C148.755 145.297 149.632 146.175 150.715 146.175H169.482C170.565 146.175 171.443 145.297 171.443 144.214V141.275C171.443 140.192 170.565 139.314 169.482 139.314Z" fill="#4CAF50"/>
<path opacity="0.1" d="M193.226 146.174H174.458C173.376 146.174 172.498 147.052 172.498 148.134V151.074C172.498 152.156 173.376 153.034 174.458 153.034H193.226C194.308 153.034 195.186 152.156 195.186 151.074V148.134C195.186 147.052 194.308 146.174 193.226 146.174Z" fill="#4CAF50"/>
<path opacity="0.1" d="M145.739 122.164H126.972C125.889 122.164 125.012 123.042 125.012 124.124V127.064C125.012 128.147 125.889 129.024 126.972 129.024H145.739C146.822 129.024 147.699 128.147 147.699 127.064V124.124C147.699 123.042 146.822 122.164 145.739 122.164Z" fill="#4CAF50"/>
<path opacity="0.1" d="M169.482 129.023H150.715C149.632 129.023 148.755 129.901 148.755 130.984V133.923C148.755 135.006 149.632 135.884 150.715 135.884H169.482C170.565 135.884 171.443 135.006 171.443 133.923V130.984C171.443 129.901 170.565 129.023 169.482 129.023Z" fill="#4CAF50"/>
<path opacity="0.1" d="M193.226 135.885H174.458C173.376 135.885 172.498 136.762 172.498 137.845V140.785C172.498 141.867 173.376 142.745 174.458 142.745H193.226C194.308 142.745 195.186 141.867 195.186 140.785V137.845C195.186 136.762 194.308 135.885 193.226 135.885Z" fill="#4CAF50"/>
<path opacity="0.1" d="M127.254 199.999C191.143 199.999 242.935 195.747 242.935 190.501C242.935 185.255 191.143 181.002 127.254 181.002C63.3654 181.002 11.5732 185.255 11.5732 190.501C11.5732 195.747 63.3654 199.999 127.254 199.999Z" fill="#4CAF50"/>
<path d="M22.3316 49.2868C33.2401 54.015 39.5083 63.7987 39.5083 63.7987C39.5083 63.7987 28.0879 65.9095 17.1767 61.1839C6.2655 56.4583 0 46.672 0 46.672C0 46.672 11.4204 44.5586 22.3316 49.2868Z" fill="#4CAF50"/>
<path d="M55.809 31.1345C59.1831 25.5936 64.9289 22.9551 64.9289 22.9551C64.9289 22.9551 65.1927 29.2717 61.8291 34.7968C58.4655 40.3218 52.7065 42.9577 52.7065 42.9577C52.7065 42.9577 52.4322 36.6437 55.809 31.1345Z" fill="#4CAF50"/>
<path d="M31.0056 37.0622C33.4195 45.6796 40.0728 51.3524 40.0728 51.3524C40.0728 51.3524 42.8138 43.049 40.3999 34.4289C37.9861 25.8089 31.3301 20.1387 31.3301 20.1387C31.3301 20.1387 28.5891 28.4421 31.0056 37.0622Z" fill="#46455B"/>
<path d="M221.775 36.6758H33.2614C32.211 36.6758 31.3594 37.5275 31.3594 38.5782V131.079C31.3594 132.13 32.211 132.982 33.2614 132.982H221.775C222.826 132.982 223.677 132.13 223.677 131.079V38.5782C223.677 37.5275 222.826 36.6758 221.775 36.6758Z" fill="#3F3D56"/>
<path opacity="0.1" d="M31.3594 127.178H223.677V131.08C223.677 131.585 223.477 132.069 223.12 132.425C222.764 132.782 222.28 132.982 221.775 132.982H33.2614C32.757 132.982 32.2732 132.782 31.9165 132.425C31.5598 132.069 31.3594 131.585 31.3594 131.08V127.178Z" fill="black"/>
<path d="M63.6761 120.053H50.7494C50.3851 120.053 50.0898 120.348 50.0898 120.712V126.517C50.0898 126.881 50.3851 127.177 50.7494 127.177H63.6761C64.0403 127.177 64.3356 126.881 64.3356 126.517V120.712C64.3356 120.348 64.0403 120.053 63.6761 120.053Z" fill="#4CAF50"/>
<path d="M77.5263 126.121H68.8206C68.5292 126.121 68.293 126.357 68.293 126.649C68.293 126.94 68.5292 127.176 68.8206 127.176H77.5263C77.8177 127.176 78.054 126.94 78.054 126.649C78.054 126.357 77.8177 126.121 77.5263 126.121Z" fill="#4CAF50"/>
<path d="M59.6269 55.5102C66.5888 56.7952 73.6906 55.5102 80.6236 54.6395L101.694 52.001C102.546 51.8928 103.786 51.3836 104.287 52.4258C104.57 53.0089 104.38 54.2728 104.401 54.9429C104.456 56.7899 104.451 58.6369 104.401 60.4838C104.306 64.0142 104.047 67.5366 103.718 71.0511C103.076 77.9297 102.169 84.7714 101.715 91.6764C101.483 95.191 101.367 98.716 101.47 102.231C101.494 103.07 101.528 103.909 101.578 104.745C101.633 105.682 102.053 107.072 101.032 107.698C100.449 108.056 99.3013 108.038 98.6339 108.143C97.5787 108.31 96.5234 108.442 95.4471 108.55C88.3532 109.26 81.167 108.964 74.0468 108.922L52.5462 108.811L47.3016 108.782C46.8268 108.782 45.1147 109.067 44.8218 108.502C44.6978 108.262 45.0276 107.138 45.0856 106.837C45.1665 106.341 45.2545 105.846 45.3494 105.352C45.9615 101.882 46.6843 98.4337 47.4124 94.9878C48.9768 87.5999 50.5782 80.1751 51.2219 72.629C51.5411 68.8427 51.33 65.0221 51.7205 61.2437C51.9025 59.4891 52.1188 55.5735 54.4535 55.4179C56.4321 55.2859 58.4687 55.4179 60.4526 55.4179C60.5576 55.4179 60.6582 55.3762 60.7324 55.3019C60.8066 55.2277 60.8483 55.1271 60.8483 55.0221C60.8483 54.9171 60.8066 54.8165 60.7324 54.7422C60.6582 54.668 60.5576 54.6263 60.4526 54.6263C58.5795 54.6263 56.7039 54.5762 54.8308 54.6131C53.5856 54.6369 52.7203 54.9324 52.1267 56.0775C50.6098 59.0168 50.7655 62.9377 50.718 66.1461C50.6046 73.8268 49.4253 81.344 47.8899 88.8559C47.117 92.6369 46.2833 96.4047 45.5156 100.188C45.1542 101.996 44.8086 103.808 44.4921 105.626C44.3443 106.492 43.5977 108.399 44.2546 109.194C44.9115 109.988 46.9323 109.56 47.8372 109.566L54.1317 109.603L66.1931 109.671C73.9861 109.716 81.8054 109.935 89.5958 109.705C93.3155 109.595 97.2463 109.442 100.868 108.552C101.947 108.289 102.467 107.793 102.509 106.642C102.573 104.859 102.282 103.019 102.245 101.228C101.982 85.8981 105.583 70.782 105.213 55.4469C105.19 54.4047 105.583 51.7767 104.443 51.1461C103.931 50.8611 103.266 51.0168 102.728 51.0801C101.699 51.1989 100.673 51.344 99.6443 51.4654L86.2823 53.1329C82.0112 53.6606 77.7427 54.2305 73.4637 54.716C68.9341 55.2437 64.3596 55.5577 59.8458 54.716C59.3472 54.6237 59.1335 55.3862 59.6348 55.4786L59.6269 55.5102Z" fill="#4CAF50"/>
<path d="M51.2266 64.837L103.941 62.2512C104.45 62.2248 104.453 61.4332 103.941 61.4596L51.2266 64.0454C50.7201 64.0691 50.7174 64.8607 51.2266 64.837Z" fill="#4CAF50"/>
<path d="M67.4671 58.3104C67.3197 58.4666 67.2126 58.6565 67.1553 58.8636C67.0979 59.0706 67.092 59.2885 67.138 59.4984C67.1841 59.7083 67.2806 59.9037 67.4194 60.0677C67.5581 60.2318 67.7348 60.3594 67.934 60.4396C68.6437 60.7642 69.4773 60.4924 70.1817 60.3156C71.237 60.0518 72.2922 59.817 73.3765 59.6243C75.7363 59.2065 78.1266 58.9841 80.5231 58.9594C81.6153 58.9462 82.6995 58.9964 83.7917 59.0439C84.5831 59.0755 85.4352 59.1389 86.1053 58.6481C86.8704 58.0887 87.1184 56.9964 86.3691 56.3156C85.3139 55.3526 83.0398 55.9119 81.821 56.0122C77.3985 56.3797 73.0046 57.0354 68.6674 57.9753C68.1715 58.0808 68.3799 58.846 68.8785 58.7378C71.74 58.1204 74.6234 57.6243 77.5288 57.2497C78.9569 57.0738 80.3877 56.9251 81.821 56.8038C82.4964 56.7484 83.1718 56.6982 83.8471 56.6586C84.1109 56.6428 84.3906 56.6138 84.6596 56.6217C85.4959 56.6402 85.5935 56.4898 85.0923 57.5003C84.6465 58.3948 84.7889 58.2919 84.0159 58.2629C83.6888 58.2629 83.3617 58.2259 83.0346 58.2101C82.3645 58.1819 81.6944 58.167 81.0243 58.1652C79.598 58.1652 78.1752 58.2338 76.7559 58.371C75.5529 58.4871 74.3526 58.6507 73.1628 58.8618C72.4188 58.9937 71.6802 59.1468 70.9441 59.3156C70.6196 59.3921 70.2925 59.4713 69.968 59.5531C69.8124 59.5953 69.6541 59.6323 69.4984 59.6718C68.9216 59.8724 68.43 59.6085 68.0237 58.8803C68.3773 58.5135 67.8206 57.9515 67.4645 58.3209L67.4671 58.3104Z" fill="#4CAF50"/>
<path d="M77.022 69.5724C73.2047 69.4246 69.0813 70.4563 66.5672 73.5302C64.5992 75.9339 63.478 80.0579 65.5621 82.765C67.8019 85.6674 72.714 85.1555 75.6766 83.918C78.8107 82.5988 82.2402 79.8785 83.182 76.4748C84.356 72.2241 80.5439 69.0104 76.5736 68.9629C76.0644 68.9629 76.0644 69.7544 76.5736 69.7544C78.8371 69.7808 81.0583 70.7518 82.1136 72.86C83.219 75.0816 82.2666 77.4141 80.7945 79.1924C78.4361 82.0236 74.748 84.1581 70.9913 84.0975C68.7358 84.0631 66.2427 83.2901 65.5436 80.9101C64.9685 78.9814 65.4065 76.8732 66.4089 75.1634C68.5775 71.4695 72.991 70.2188 77.0379 70.3771C77.547 70.3956 77.547 69.6041 77.0379 69.5856L77.022 69.5724Z" fill="#4CAF50"/>
<path d="M73.2311 75.4363C73.0683 75.376 72.893 75.3578 72.7213 75.3835C72.5496 75.4092 72.3873 75.478 72.2493 75.5833C72.1113 75.6886 72.0023 75.8272 71.9322 75.986C71.8622 76.1448 71.8334 76.3188 71.8487 76.4917C71.9279 77.5208 73.0622 77.811 73.9144 77.7503C74.6504 77.687 75.5104 77.4152 75.2519 76.4944C75.2043 76.3314 75.1222 76.1806 75.0111 76.0522C74.9 75.9238 74.7626 75.8208 74.6082 75.7503C74.3721 75.6566 74.116 75.6249 73.8642 75.658C73.7666 75.658 72.8723 75.9851 73.2522 75.592L72.6296 75.5102C72.6987 75.5784 72.7516 75.6612 72.7845 75.7525C72.8174 75.8438 72.8293 75.9413 72.8195 76.0379C72.8207 76.1069 72.8398 76.1743 72.8749 76.2337C72.91 76.2931 72.9599 76.3424 73.0197 76.3767C73.0795 76.411 73.1472 76.4292 73.2162 76.4294C73.2852 76.4297 73.353 76.4121 73.4131 76.3783C73.5036 76.3404 73.6029 76.3285 73.6998 76.3439C73.7967 76.3594 73.8874 76.4015 73.9617 76.4656C74.0359 76.5298 74.0908 76.6134 74.1202 76.707C74.1496 76.8006 74.1523 76.9006 74.128 76.9957C74.1068 77.0871 74.1185 77.1831 74.161 77.2667C74.2036 77.3503 74.2743 77.4162 74.3607 77.4528C74.4471 77.4894 74.5437 77.4943 74.6334 77.4667C74.723 77.439 74.8001 77.3806 74.8509 77.3018C75.1147 76.8268 75.4339 75.8822 75.0382 75.3862C74.7744 75.0511 74.2652 75.1514 73.9487 75.3466C73.7533 75.4849 73.5713 75.6413 73.4052 75.8136C73.086 76.096 72.8776 76.2279 72.9963 75.687C73.1941 74.7028 74.1333 73.9192 74.9907 73.526L74.4103 73.0801C74.106 74.2238 73.562 75.2896 72.8143 76.2068L73.4896 76.4865C73.4705 76.1242 73.5636 75.7648 73.7562 75.4574C73.9488 75.15 74.2316 74.9095 74.566 74.7688H74.1782L74.3839 75.1065C74.3074 75.6052 75.0699 75.8189 75.1464 75.315C75.2466 74.6632 74.8351 73.8163 74.0726 74.1355C73.1625 74.5155 72.6903 75.5577 72.7087 76.4865C72.7087 76.8031 73.1572 77.0485 73.3867 76.7688C74.2257 75.7494 74.8381 74.563 75.1833 73.2886C75.2016 73.213 75.1976 73.1336 75.1716 73.0603C75.1457 72.9869 75.099 72.9227 75.0372 72.8754C74.9754 72.8282 74.9012 72.7999 74.8236 72.7941C74.746 72.7883 74.6684 72.8051 74.6003 72.8427C73.81 73.1999 73.1421 73.7817 72.6797 74.5155C72.3579 75.0432 71.9542 75.8664 72.2814 76.4733C72.335 76.5704 72.4073 76.6559 72.4942 76.7248C72.5811 76.7938 72.6807 76.8448 72.7875 76.875C72.8942 76.9052 73.0058 76.9139 73.1159 76.9006C73.226 76.8874 73.3324 76.8524 73.4289 76.7978C73.6729 76.6532 73.8957 76.4756 74.0911 76.2701C74.1887 76.183 74.2969 76.0326 74.4261 76.0062C74.5422 75.9271 74.5369 75.9719 74.4077 76.1461C74.406 76.4195 74.3264 76.6868 74.1782 76.9165L74.901 77.22C74.9661 76.9736 74.9585 76.7136 74.8791 76.4715C74.7997 76.2294 74.6519 76.0154 74.4535 75.8555C74.2551 75.6956 74.0147 75.5966 73.7612 75.5705C73.5078 75.5443 73.2522 75.5921 73.0253 75.7081L73.6215 76.0511C73.634 75.7153 73.5285 75.3858 73.3234 75.1197C73.2923 75.0684 73.25 75.0247 73.1998 74.9919C73.1495 74.9591 73.0925 74.938 73.033 74.9302C72.9736 74.9223 72.913 74.9279 72.856 74.9466C72.799 74.9652 72.7468 74.9964 72.7035 75.0379C72.3025 75.4574 72.226 76.183 72.7298 76.5709C73.1071 76.8585 73.2918 76.5709 73.7059 76.5049C75.1121 76.3229 74.2916 76.9561 73.7956 76.9772C73.5738 77.001 73.3496 76.9849 73.1335 76.9297C72.583 76.7433 72.5487 76.5032 73.0306 76.2094C73.5028 76.402 73.7059 75.6369 73.2416 75.4469L73.2311 75.4363Z" fill="#4CAF50"/>
<path d="M72.5957 76.8816C72.9202 77.937 71.58 78.2853 70.9442 78.6494C70.4981 78.8997 70.109 79.2403 69.8019 79.6494C69.1371 80.5413 68.8892 81.6758 68.6702 82.7444C68.5699 83.2431 69.3324 83.4542 69.4352 82.9555C69.5559 82.1703 69.7804 81.4046 70.1027 80.6785C70.5775 79.7339 71.2582 79.4172 72.1446 78.9318C73.031 78.4463 73.6721 77.6943 73.3581 76.6706C73.2104 76.1851 72.4453 76.3935 72.5957 76.8816Z" fill="#4CAF50"/>
<path d="M73.9144 76.3516C73.7256 76.3777 73.5534 76.4733 73.4315 76.6197C73.3095 76.7661 73.2465 76.9527 73.2549 77.1431C73.2549 77.4571 73.4633 77.6576 73.6057 77.9083C73.9439 78.4211 74.2019 78.9826 74.3708 79.5732C74.4974 80.1405 74.6214 81.1563 74.3259 81.684C73.7798 82.6629 72.7932 82.4756 71.9516 82.4756C71.1602 82.4756 70.5482 82.7394 70.5745 81.6365C70.5904 81.0165 71.023 80.3885 71.366 79.9004L70.6431 79.8054C70.7956 80.6111 70.876 81.4287 70.8832 82.2487C70.8832 82.6154 71.4451 82.8186 71.6192 82.4466C72.0434 81.5542 72.38 80.6229 72.6244 79.6655L71.8461 79.56L71.9833 81.5653C71.9856 81.6509 72.0154 81.7334 72.0682 81.8008C72.1211 81.8681 72.1942 81.9166 72.2768 81.9391C72.3594 81.9616 72.447 81.9569 72.5267 81.9257C72.6064 81.8945 72.674 81.8384 72.7193 81.7658C72.8117 81.6638 72.8794 81.542 72.9172 81.4096C72.9436 81.2856 72.7009 80.4492 72.6033 80.7473L73.3789 80.8529L73.4343 78.9479L72.6428 79.0534C72.8101 79.5906 72.8605 80.1574 72.7906 80.7157C72.7404 81.1563 73.4817 81.2566 73.582 80.8212L74.078 78.2619L73.3551 78.3542C73.5269 78.7082 73.5743 79.1098 73.4897 79.494C73.4316 80.0006 74.2231 79.9954 74.2811 79.494C74.3483 78.9686 74.2641 78.435 74.0384 77.9558C73.9983 77.8897 73.9398 77.8368 73.8702 77.8033C73.8005 77.7699 73.7226 77.7575 73.646 77.7676C73.5694 77.7776 73.4974 77.8098 73.4387 77.86C73.38 77.9103 73.3372 77.9766 73.3155 78.0508L72.8169 80.6101L73.5952 80.7157C73.6743 80.0867 73.614 79.448 73.4184 78.845C73.392 78.7541 73.3339 78.6757 73.2546 78.624C73.1754 78.5723 73.0802 78.5508 72.9864 78.5632C72.8926 78.5756 72.8064 78.6213 72.7434 78.6919C72.6803 78.7624 72.6447 78.8533 72.6428 78.9479L72.5874 80.8529C72.5874 81.3146 73.2285 81.3806 73.3657 80.9584L73.4079 80.8291C73.4261 80.7618 73.4265 80.6908 73.4089 80.6232C73.3913 80.5557 73.3564 80.4938 73.3076 80.4439C72.4872 79.5521 72.321 80.9716 72.0361 81.3648L72.7747 81.5653L72.6375 79.56C72.6085 79.1326 71.9754 79.0006 71.8593 79.4545C71.6363 80.3469 71.3271 81.2156 70.936 82.0481L71.6746 82.2487C71.6661 81.3578 71.5778 80.4694 71.4108 79.5943C71.3422 79.2302 70.8647 79.246 70.688 79.4993C70.1604 80.2592 69.2476 81.9189 69.952 82.8291C70.5666 83.6207 72.5004 83.3146 73.3261 83.2645C74.6293 83.1906 75.1015 82.3648 75.244 81.1352C75.3119 80.5464 75.2789 79.9504 75.1464 79.3727C75.0752 79.0613 74.355 77.0877 74.1386 77.1273C74.6399 77.0349 74.4262 76.2698 73.9276 76.3621L73.9144 76.3516Z" fill="#4CAF50"/>
<path d="M72.3816 78.1289L70.221 80.9811L70.9043 81.3795L72.4871 79.0893L71.7643 78.7832L70.9755 81.7938C70.9543 81.8852 70.966 81.9812 71.0085 82.0648C71.0511 82.1484 71.1218 82.2143 71.2082 82.2509C71.2946 82.2875 71.3912 82.2924 71.4808 82.2648C71.5705 82.2371 71.6475 82.1787 71.6984 82.0999C72.0573 81.505 72.4603 80.9379 72.904 80.4033L72.2444 80.0181C72.0673 80.6997 71.7258 81.3275 71.2499 81.8466L71.912 82.2318C71.9526 81.8672 72.0496 81.5111 72.1996 81.1764C72.4027 80.7199 71.759 80.3162 71.5163 80.7753C71.2931 81.1935 71.0382 81.594 70.7539 81.9732L71.4768 82.0682L71.6377 81.3162L70.9148 81.2212L71.0309 81.8809C71.05 81.9472 71.0859 82.0075 71.1353 82.0558C71.1847 82.1041 71.2457 82.1387 71.3125 82.1562C71.3793 82.1738 71.4494 82.1737 71.5162 82.1559C71.5829 82.1382 71.6438 82.1034 71.6931 82.055C72.3622 81.3625 72.8987 80.5532 73.2759 79.6671H72.5953C72.7742 79.9971 72.8998 80.3533 72.9673 80.7226C73.0623 81.1975 73.6928 81.0207 73.7429 80.617C73.8562 79.7332 73.9143 78.8432 73.917 77.9521H73.1256V79.6117C73.1256 80.0418 73.8299 80.1685 73.9038 79.7173C73.9561 79.317 74.0879 78.9312 74.2916 78.5827H73.5978C73.765 78.8525 73.8561 79.1625 73.8616 79.4798C73.8616 79.5848 73.9033 79.6854 73.9775 79.7597C74.0517 79.8339 74.1524 79.8756 74.2573 79.8756C74.3623 79.8756 74.4629 79.8339 74.5371 79.7597C74.6113 79.6854 74.653 79.5848 74.653 79.4798L74.7533 78.9521H73.9909C74.0674 79.4191 74.3576 82.0497 73.3261 81.741C73.1519 81.6988 73.1018 81.7094 73.1757 81.7701L73.4105 81.2687L73.9618 80.0999L73.2232 79.8993C73.2707 80.4429 73.3208 81.2186 72.9937 81.683C72.7299 82.0603 71.9173 82.2107 71.5031 81.989C71.2297 81.7941 70.996 81.5487 70.8146 81.2661L70.2738 81.7938C70.7117 82.1131 71.4214 82.8967 71.9859 82.9416C72.4159 82.9759 72.7773 82.6196 73.0596 82.3347C73.4926 81.8872 73.8302 81.3564 74.0519 80.7745C74.2737 80.1926 74.375 79.5717 74.3496 78.9495C74.3496 78.8445 74.308 78.7438 74.2337 78.6696C74.1595 78.5954 74.0589 78.5537 73.9539 78.5537C73.849 78.5537 73.7483 78.5954 73.6741 78.6696C73.5999 78.7438 73.5582 78.8445 73.5582 78.9495V79.8518C73.5582 79.9568 73.5999 80.0575 73.6741 80.1317C73.7483 80.2059 73.849 80.2476 73.9539 80.2476C74.0589 80.2476 74.1595 80.2059 74.2337 80.1317C74.308 80.0575 74.3496 79.9568 74.3496 79.8518V77.6381C74.3496 77.5332 74.308 77.4325 74.2337 77.3583C74.1595 77.284 74.0589 77.2423 73.9539 77.2423C73.849 77.2423 73.7483 77.284 73.6741 77.3583C73.5999 77.4325 73.5582 77.5332 73.5582 77.6381C73.5568 78.1687 73.5109 78.6983 73.421 79.2212L74.1993 79.3268C74.1373 78.6964 74.1082 78.0631 74.1122 77.4297C74.111 77.3349 74.0757 77.2436 74.0129 77.1726C73.9501 77.1016 73.8638 77.0555 73.7699 77.0427C73.6759 77.0299 73.5805 77.0513 73.501 77.1029C73.4215 77.1546 73.3631 77.2331 73.3366 77.3241C73.2179 77.8281 73.0728 78.3241 72.933 78.8175L73.6558 78.7226L73.6004 78.5115C73.5635 78.0075 72.7721 78.0049 72.809 78.5115C72.8177 78.7251 72.8735 78.9341 72.9726 79.1236C73.1256 79.4455 73.6031 79.3321 73.6954 79.0286C73.8458 78.5326 73.9803 78.0365 74.099 77.5352L73.3208 77.4297C73.3168 78.0631 73.3459 78.6964 73.4078 79.3268C73.4474 79.7331 74.1017 79.9072 74.1834 79.4323C74.2888 78.8364 74.3444 78.2327 74.3496 77.6276H73.5582V79.8413H74.3496V78.9389H73.5582C73.6048 79.9343 73.259 80.9082 72.5953 81.6513C72.4925 81.7682 72.3814 81.8776 72.2629 81.9785C72.0756 82.1579 71.9041 82.1315 71.7538 81.8967C71.3791 81.741 70.9913 81.34 70.6642 81.1051C70.3371 80.8703 69.8886 81.3347 70.1208 81.646C70.7275 82.4534 71.6324 83.3532 72.7589 82.9653C73.9434 82.5458 74.1043 80.9416 74.0146 79.8861C73.9856 79.5352 73.4606 79.2978 73.2786 79.6883C73.0148 80.245 72.751 80.7991 72.4871 81.3584C72.3948 81.5537 72.2233 81.8228 72.2497 82.055C72.3368 82.6487 73.057 82.551 73.5002 82.5167C75.2176 82.3875 74.9459 79.9521 74.748 78.7278C74.682 78.3215 74.0911 78.3848 73.9856 78.7278C73.9018 78.9688 73.8581 79.222 73.8563 79.4772H74.6477C74.6191 79.0235 74.4922 78.5814 74.2758 78.1817C74.2404 78.1226 74.1903 78.0738 74.1305 78.0399C74.0706 78.006 74.003 77.9881 73.9341 77.9881C73.8653 77.9881 73.7977 78.006 73.7378 78.0399C73.678 78.0738 73.6279 78.1226 73.5925 78.1817C73.3566 78.589 73.1974 79.0361 73.1229 79.5009L73.9144 79.6065V77.9468C73.9144 77.8419 73.8727 77.7412 73.7985 77.667C73.7242 77.5928 73.6236 77.5511 73.5186 77.5511C73.4137 77.5511 73.313 77.5928 73.2388 77.667C73.1646 77.7412 73.1229 77.8419 73.1229 77.9468C73.1203 78.8379 73.0621 79.7279 72.9488 80.6117L73.7271 80.5062C73.6375 80.0748 73.4855 79.6589 73.2759 79.2714C73.2405 79.2124 73.1905 79.1635 73.1306 79.1296C73.0707 79.0957 73.0031 79.0779 72.9343 79.0779C72.8655 79.0779 72.7979 79.0957 72.738 79.1296C72.6781 79.1635 72.6281 79.2124 72.5927 79.2714C72.2486 80.0977 71.7539 80.8529 71.1338 81.4983L71.796 81.6724L71.6799 81.0128C71.6192 80.6619 71.1232 80.6513 70.957 80.9178C70.8259 81.1162 70.737 81.3394 70.6957 81.5736C70.6544 81.8078 70.6616 82.048 70.717 82.2793C70.7829 82.654 71.2578 82.6144 71.4398 82.3743C71.7241 81.9959 71.979 81.5963 72.2022 81.179L71.519 80.778C71.3365 81.1722 71.2121 81.5908 71.1496 82.0207C71.1021 82.369 71.5163 82.7331 71.8118 82.4059C72.3789 81.7853 72.7896 81.038 73.0095 80.2265C73.1071 79.8677 72.6111 79.5273 72.3473 79.8413C71.862 80.423 71.4211 81.0404 71.0283 81.6883L71.7511 81.9943L72.5557 78.9943C72.577 78.9029 72.5653 78.807 72.5227 78.7233C72.4802 78.6397 72.4094 78.5738 72.323 78.5372C72.2366 78.5006 72.1401 78.4957 72.0504 78.5233C71.9608 78.551 71.8837 78.6094 71.8329 78.6883L70.25 80.9811C69.9546 81.4059 70.6326 81.7727 70.9333 81.3795L73.086 78.5299C73.392 78.1236 72.7061 77.7384 72.4027 78.1289H72.3816Z" fill="#4CAF50"/>
<path d="M106.039 87.651C109.204 85.7144 111.721 82.8252 114.517 80.4083C117.551 77.7882 120.735 75.3476 124.015 73.0363C130.383 68.5508 137.071 64.5376 143.753 60.5349C143.84 60.4801 143.901 60.3939 143.926 60.2943C143.95 60.1948 143.935 60.0897 143.883 60.0011C143.832 59.9126 143.748 59.8475 143.649 59.8196C143.55 59.7917 143.445 59.8032 143.355 59.8516C136.672 63.8542 129.982 67.8595 123.614 72.3529C120.609 74.4637 117.675 76.7012 114.863 79.0758C111.803 81.6616 109.078 84.8806 105.63 86.9676C105.194 87.2315 105.593 87.9175 106.028 87.651H106.039Z" fill="#4CAF50"/>
<path d="M153.971 48.2445C150.541 48.5928 146.848 49.4661 144.737 52.4661C142.914 55.0466 142.954 59.5479 144.666 62.197C146.61 65.2075 150.583 65.3157 153.67 64.3421C156.756 63.3685 159.951 61.6614 159.922 57.9727C159.906 55.9938 159.191 53.9331 158.403 52.1389C157.722 50.5901 156.516 49.2366 154.691 49.4081C154.187 49.4556 154.182 50.2471 154.691 50.1996C157.136 49.9727 157.922 52.8777 158.503 54.7115C159.031 56.4239 159.519 58.4503 158.69 60.1521C157.862 61.854 155.865 62.722 154.158 63.3447C152.311 64.0149 150.283 64.4239 148.354 63.8724C144.534 62.8038 143.479 57.9622 144.579 54.5268C145.845 50.569 150.33 49.4054 153.984 49.036C154.485 48.9859 154.49 48.1943 153.984 48.2445H153.971Z" fill="#4CAF50"/>
<path d="M159.247 78.8519C155.817 79.2002 152.124 80.0735 150.014 83.0735C148.191 85.654 148.23 90.1553 149.942 92.8044C151.887 95.815 155.86 95.9231 158.946 94.9495C162.033 93.9759 165.228 92.2688 165.199 88.5801C165.183 86.6012 164.468 84.5405 163.679 82.7463C162.998 81.1975 161.793 79.844 159.967 80.0155C159.463 80.063 159.458 80.8545 159.967 80.807C162.413 80.5801 163.199 83.4851 163.779 85.3189C164.307 87.0313 164.795 89.0577 163.967 90.7595C163.138 92.4614 161.141 93.3295 159.434 93.9521C157.588 94.6223 155.559 95.0313 153.63 94.4799C149.81 93.4113 148.755 88.5696 149.855 85.1342C151.122 81.1764 155.606 80.0128 159.26 79.6434C159.761 79.5933 159.767 78.8018 159.26 78.8519H159.247Z" fill="#4CAF50"/>
<path d="M148.797 55.9528L151.295 58.8024C151.344 58.8501 151.405 58.8843 151.472 58.9015C151.539 58.9187 151.608 58.9183 151.675 58.9006C151.741 58.8828 151.802 58.8481 151.851 58.7999C151.9 58.7517 151.936 58.6917 151.955 58.6256C152.482 57.2378 152.382 55.7998 152.506 54.3407C152.643 52.8326 153.021 51.3563 153.627 49.9686C154.844 47.1539 156.908 44.7884 159.531 43.2008C159.967 42.937 159.568 42.2509 159.133 42.5174C156.546 44.0753 154.471 46.3552 153.163 49.0768C152.522 50.4012 152.078 51.8118 151.844 53.2641C151.58 54.9765 151.82 56.7707 151.187 58.4145L151.849 58.2378L149.364 55.3934C149.026 55.0108 148.47 55.5728 148.805 55.9528H148.797Z" fill="#4CAF50"/>
<path d="M107.313 90.7359C120.92 90.3208 134.531 90.2328 148.145 90.4721C148.654 90.4721 148.654 89.6805 148.145 89.6805C134.534 89.4378 120.923 89.5257 107.313 89.9444C106.803 89.9602 106.801 90.7517 107.313 90.7359Z" fill="#4CAF50"/>
<path d="M150.99 82.9325C155.641 84.7584 160.116 87.0071 164.357 89.6501C164.79 89.914 165.188 89.2359 164.755 88.9668C160.458 86.291 155.925 84.0159 151.211 82.1699C150.739 81.9826 150.533 82.7478 151.003 82.9325H150.99Z" fill="#4CAF50"/>
<path d="M159.437 79.3456C154.72 84.8454 151.987 91.771 151.678 99.0105C151.657 99.5197 152.448 99.5197 152.47 99.0105C152.769 91.9788 155.42 85.2512 159.996 79.9049C160.326 79.5197 159.769 78.9577 159.437 79.3456Z" fill="#4CAF50"/>
<path d="M53.9256 87.8621L83.4117 87.4769L86.8017 87.432C87.4111 87.432 88.0205 87.4109 88.6299 87.4083C89.4873 87.4083 90.065 88.1207 90.0492 88.9914C90.0096 90.8384 88.8489 90.7724 87.3293 90.8384L83.665 91.0046L68.7439 91.6616C66.0715 91.7803 63.3964 91.9254 60.724 92.0178C58.3128 92.0917 53.7278 91.3054 54.7988 87.7961C54.9466 87.308 54.1842 87.0996 54.0338 87.5851C53.5062 89.3107 54.4401 91.0626 55.9438 91.9676C58.078 93.25 60.8902 92.8146 63.2461 92.7091L81.5651 91.8779L86.0129 91.68C87.1526 91.6273 88.7381 91.8595 89.7854 91.3291C91.0148 90.7091 91.2311 88.2473 90.4555 87.2104C90.0571 86.6827 89.4979 86.6352 88.8726 86.6114C87.2317 86.5481 85.5618 86.6563 83.9183 86.6774L74.7851 86.7988L53.9151 87.0626C53.4059 87.0626 53.4059 87.8542 53.9151 87.8542L53.9256 87.8621Z" fill="#4CAF50"/>
<path d="M173.058 184.829C172.393 185.246 171.633 185.481 170.947 185.848C170.261 186.215 169.594 186.766 169.399 187.526C169.326 187.762 169.338 188.016 169.433 188.244C169.604 188.519 169.865 188.726 170.172 188.829C171.565 189.448 173.07 189.776 174.595 189.794C176.119 189.811 177.631 189.517 179.038 188.93C179.533 188.692 180.045 188.489 180.568 188.323C181.213 188.191 181.87 188.124 182.528 188.122C183.22 188.082 183.909 187.994 184.589 187.858C184.931 187.82 185.254 187.686 185.523 187.471C185.767 187.188 185.915 186.835 185.942 186.463C186.254 184.407 185.784 182.309 184.623 180.584C184.477 180.342 184.281 180.134 184.048 179.974C183.764 179.828 183.452 179.744 183.133 179.729C181.813 179.568 180.431 179.273 179.099 179.241C178.144 179.22 177.664 179.674 176.988 180.331C175.593 181.726 174.778 183.755 173.058 184.829Z" fill="#323444"/>
<path d="M192.498 184.635C192.498 185.928 192.654 187.297 193.437 188.329C193.796 188.775 194.23 189.155 194.719 189.45C196.376 190.506 198.571 190.894 200.318 189.999C200.6 189.872 200.841 189.67 201.014 189.413C201.278 188.954 201.138 188.382 200.99 187.875L198.463 179.115C196.83 179.366 194.429 179.543 192.978 180.371C191.926 180.97 192.498 183.479 192.498 184.635Z" fill="#323444"/>
<path d="M171.575 130.695C171.422 131.178 170.868 131.403 170.565 131.809C170.209 132.286 170.246 132.949 170.375 133.529C170.535 134.385 170.937 135.177 171.533 135.812C171.836 136.126 172.209 136.363 172.622 136.503C173.035 136.644 173.476 136.683 173.907 136.619C174.757 136.458 175.49 135.706 175.519 134.843C175.504 134.451 175.42 134.064 175.271 133.701L173.472 128.498C173.465 128.461 173.45 128.426 173.428 128.395C173.406 128.365 173.378 128.34 173.345 128.321C173.278 128.306 173.206 128.318 173.148 128.355C172.723 128.556 171.871 128.767 171.623 129.207C171.375 129.648 171.755 130.218 171.575 130.695Z" fill="#FBB3B2"/>
<path d="M170.733 130.433C171.39 130.33 171.965 129.944 172.58 129.691C173.195 129.438 173.965 129.34 174.482 129.762C174.63 129.884 174.772 130.05 174.965 130.047C174.703 128.757 174.307 127.498 173.783 126.29C173.765 126.232 173.729 126.181 173.68 126.145C173.608 126.116 173.528 126.116 173.456 126.145L171.68 126.609C171.024 126.781 170.947 126.728 170.997 127.374C171.01 127.662 171.158 130.433 170.733 130.433Z" fill="#323444"/>
<path d="M170.539 92.8602C170.275 93.2666 170.275 93.7732 170.275 94.2507C170.275 96.5858 170.299 98.9341 170.644 101.245C170.726 101.8 170.829 102.354 170.882 102.913C170.941 103.692 170.954 104.473 170.919 105.253L170.655 115.412C170.623 116.654 170.56 117.99 169.792 118.966C169.559 119.293 169.45 119.692 169.483 120.092C169.684 122.641 170.106 125.169 170.526 127.689C171.201 127.384 171.939 127.244 172.679 127.279C173.419 127.314 174.14 127.524 174.783 127.892C176.114 123.706 176.851 119.354 176.97 114.963C177.031 112.802 176.939 110.628 177.271 108.493C177.828 104.9 177.601 101.214 177.192 97.599C177.063 96.4539 176.788 95.2745 176.055 94.3879C175.361 93.6122 174.436 93.0796 173.417 92.8682C172.441 92.6122 171.568 92.8761 170.539 92.8602Z" fill="#5B5583"/>
<path opacity="0.1" d="M170.539 92.8602C170.275 93.2666 170.275 93.7732 170.275 94.2507C170.275 96.5858 170.299 98.9341 170.644 101.245C170.726 101.8 170.829 102.354 170.882 102.913C170.941 103.692 170.954 104.473 170.919 105.253L170.655 115.412C170.623 116.654 170.56 117.99 169.792 118.966C169.559 119.293 169.45 119.692 169.483 120.092C169.684 122.641 170.106 125.169 170.526 127.689C171.201 127.384 171.939 127.244 172.679 127.279C173.419 127.314 174.14 127.524 174.783 127.892C176.114 123.706 176.851 119.354 176.97 114.963C177.031 112.802 176.939 110.628 177.271 108.493C177.828 104.9 177.601 101.214 177.192 97.599C177.063 96.4539 176.788 95.2745 176.055 94.3879C175.361 93.6122 174.436 93.0796 173.417 92.8682C172.441 92.6122 171.568 92.8761 170.539 92.8602Z" fill="black"/>
<path d="M173.762 122.319C171.993 131.388 172.959 140.778 176.537 149.296C176.846 149.926 177.063 150.598 177.181 151.29C177.326 152.583 176.73 153.826 176.39 155.077C175.598 157.921 176.054 160.95 176.561 163.86C176.772 165.074 176.989 166.287 177.213 167.499C177.432 168.681 177.643 169.966 177.094 171.037C177.566 173.005 177.846 174.955 178.318 176.924C178.368 177.079 178.383 177.244 178.363 177.406C178.268 177.664 178.1 177.889 177.88 178.053C177.528 178.41 177.275 178.852 177.146 179.337C177.017 179.821 177.016 180.331 177.144 180.815C178.35 179.95 180.03 180.253 181.407 180.815C182.784 181.377 184.14 182.135 185.628 182.135C185.412 180.388 185.203 178.554 185.847 176.916C186.222 175.966 186.881 175.069 186.863 174.053C186.844 173.143 186.288 172.33 186.153 171.43C186.103 170.87 186.124 170.307 186.216 169.752C186.57 166.523 186.169 163.261 185.768 160.037C185.723 159.401 185.573 158.777 185.325 158.19C185.137 157.81 184.858 157.446 184.863 157.021C184.863 156.528 185.261 156.127 185.409 155.657C185.673 154.792 185.188 153.615 185.918 153.079C187.844 151.665 187.105 148.288 187.063 145.9C187.03 143.84 186.942 141.782 186.799 139.726C188.012 143.136 188.508 146.759 188.256 150.37C188.171 151.552 188.016 152.794 188.477 153.887C188.831 154.726 189.533 155.417 189.722 156.306C189.841 156.855 189.757 157.422 189.783 157.982C189.81 158.541 189.999 159.151 190.482 159.433C190.519 161.976 190.746 164.697 190.786 167.24C190.76 168.54 190.866 169.84 191.102 171.119C191.221 171.526 191.286 171.946 191.297 172.37C191.238 172.901 191.097 173.419 190.881 173.908C190.421 175.269 190.301 176.723 190.531 178.141C190.76 179.56 191.333 180.901 192.2 182.048C192.822 180.942 194.12 180.356 195.386 180.264C196.653 180.172 197.903 180.491 199.13 180.813C198.942 179.271 199.249 177.71 200.006 176.354C200.209 176.048 200.364 175.714 200.467 175.362C200.61 174.691 200.278 174.024 200.098 173.362C199.805 172.306 199.908 171.169 199.977 170.066C200.207 166.372 200.043 162.665 199.489 159.005C199.403 158.285 199.234 157.576 198.985 156.895C198.89 156.652 198.774 156.42 198.695 156.174C198.57 155.734 198.499 155.281 198.484 154.823L198.18 150.602C197.967 147.644 198.937 144.723 199.615 141.837C199.919 140.544 200.249 139.253 200.452 137.939C200.729 136.15 200.773 134.322 201.18 132.557C201.544 130.974 202.201 129.43 202.338 127.807C202.549 125.293 201.504 122.863 200.491 120.557C200.069 119.607 198.473 119.702 197.447 119.533C190.168 118.338 182.502 118.33 175.638 121.024C174.928 121.318 174.288 121.76 173.762 122.319Z" fill="#3C354C"/>
<path d="M179.009 75.4893L179.817 78.6291C180.036 79.3492 180.158 80.0956 180.178 80.8481C180.186 81.1226 180.125 81.3948 180.001 81.6397C179.868 81.8408 179.698 82.0145 179.5 82.1516C178.949 82.5711 178.566 83.55 177.936 83.8402C178.26 84.4048 178.709 84.0381 179.294 84.3204C180.326 84.8217 181.27 85.5421 182.389 85.7901C183.444 86.0223 184.552 85.8033 185.599 85.5262C187.084 85.1225 188.562 84.5658 189.757 83.5922C190.952 82.6186 191.633 81.7584 191.627 80.2202C190.308 80.3758 189.134 79.0434 188.551 77.8455C188.349 77.3901 188.2 76.9129 188.108 76.4233L187.401 73.3125C186.631 73.4814 186.003 74.0328 185.267 74.3204C184.531 74.608 183.66 74.6344 182.842 74.6713C181.391 74.7374 179.947 74.9245 178.526 75.2307C178.331 75.2703 178.086 75.3943 178.133 75.5843" fill="#FBB3B2"/>
<path opacity="0.1" d="M179.009 75.4893L179.817 78.6291C180.036 79.3492 180.158 80.0956 180.178 80.8481C180.186 81.1226 180.125 81.3948 180.001 81.6397C179.868 81.8408 179.698 82.0145 179.5 82.1516C178.949 82.5711 178.566 83.55 177.936 83.8402C178.26 84.4048 178.709 84.0381 179.294 84.3204C180.326 84.8217 181.27 85.5421 182.389 85.7901C183.444 86.0223 184.552 85.8033 185.599 85.5262C187.084 85.1225 188.562 84.5658 189.757 83.5922C190.952 82.6186 191.633 81.7584 191.627 80.2202C190.308 80.3758 189.134 79.0434 188.551 77.8455C188.349 77.3901 188.2 76.9129 188.108 76.4233L187.401 73.3125C186.631 73.4814 186.003 74.0328 185.267 74.3204C184.531 74.608 183.66 74.6344 182.842 74.6713C181.391 74.7374 179.947 74.9245 178.526 75.2307C178.331 75.2703 178.086 75.3943 178.133 75.5843" fill="black"/>
<path d="M182.476 77.2197C186.334 77.2197 189.462 74.0916 189.462 70.2329C189.462 66.3742 186.334 63.2461 182.476 63.2461C178.618 63.2461 175.49 66.3742 175.49 70.2329C175.49 74.0916 178.618 77.2197 182.476 77.2197Z" fill="#FBB3B2"/>
<path d="M184.399 81.7514C184.773 80.9445 185.312 80.2253 185.982 79.6406C186.966 78.7778 188.312 78.0786 188.544 76.791L190.675 79.2739C190.791 79.389 190.881 79.5275 190.939 79.6802C190.966 79.8234 190.962 79.9706 190.927 80.1121C190.893 80.2536 190.829 80.3861 190.739 80.5008C190.211 81.3425 189.38 81.944 188.594 82.5535C186.792 83.9811 185.067 85.503 183.426 87.1129C183.354 87.1969 183.257 87.256 183.149 87.2818C183.047 87.2846 182.946 87.256 182.861 87.2C181.445 86.4564 180.192 85.4374 179.176 84.2026C179.099 84.1103 179.004 84.0047 178.88 84.0126C178.806 84.0264 178.737 84.0622 178.683 84.1155C177.973 84.696 177.197 85.39 176.287 85.3002C177.466 84.4533 178.134 83.039 178.382 81.6063C178.431 81.116 178.532 80.6322 178.683 80.163C178.761 79.9283 178.895 79.7165 179.075 79.5462C179.254 79.376 179.473 79.2525 179.711 79.1868C179.136 80.0654 179.529 81.3108 180.302 82.0206C181.053 82.6581 181.954 83.0948 182.919 83.2897C183.816 83.4586 184.08 82.4427 184.399 81.7514Z" fill="#323444"/>
<path d="M175.31 123.038C176.305 123.284 177.247 123.701 178.212 124.009C179.972 124.561 181.824 124.755 183.66 124.582C184.225 124.569 184.775 124.395 185.243 124.078C185.367 123.978 185.48 123.859 185.612 123.767C185.833 123.634 186.072 123.535 186.322 123.474C188.741 122.716 190.767 121.083 192.732 119.484C192.796 119.431 192.867 119.366 192.862 119.281C192.853 119.224 192.825 119.171 192.783 119.131L191.748 117.943C189.036 118.405 186.259 118.231 183.507 118.162C182.942 118.137 182.376 118.152 181.813 118.207C181.27 118.271 180.734 118.408 180.199 118.524C178.165 118.967 176.086 119.136 174.026 119.426C173.882 119.437 173.742 119.48 173.617 119.553C173.53 119.62 173.456 119.702 173.398 119.796L172.675 120.811C172.394 121.153 172.188 121.549 172.068 121.975C171.899 122.767 172.253 123.03 172.926 122.928C173.72 122.811 174.53 122.849 175.31 123.038Z" fill="#323444"/>
<path d="M183.397 85.9027C182.59 85.0756 181.675 84.3611 180.677 83.7786C180.273 83.5225 179.826 83.3436 179.358 83.2509C179.122 83.2044 178.879 83.21 178.645 83.2675C178.412 83.3249 178.194 83.4327 178.007 83.5834C177.772 83.7918 177.624 84.0821 177.398 84.3011C177.112 84.541 176.785 84.7261 176.432 84.8473C175.231 85.3605 174.093 86.0093 173.039 86.7813C172.465 87.183 171.948 87.6605 171.501 88.2008C170.306 89.7312 170.127 91.8129 170.159 93.7549C170.182 95.1058 171.478 96.1085 172.369 97.119C173.206 98.1134 173.962 99.1721 174.633 100.285C175.113 101.045 175.614 101.868 175.553 102.773C175.503 103.515 175.071 104.211 175.139 104.95C175.163 105.214 175.247 105.457 175.271 105.713C175.319 106.24 175.11 106.768 175.058 107.296C174.986 108.042 175.229 108.784 175.242 109.536C175.233 110.051 175.167 110.563 175.047 111.064C174.54 113.475 173.905 115.9 174.034 118.362L172.572 118.626C172.711 118.761 172.815 118.928 172.878 119.111C172.94 119.295 172.958 119.491 172.93 119.683C172.903 119.875 172.831 120.057 172.719 120.216C172.608 120.375 172.461 120.505 172.29 120.597C174.572 121.359 177.039 120.974 179.458 120.971C181.46 120.971 183.455 121.235 185.454 121.198C187.454 121.161 189.517 120.8 191.166 119.668C191.614 119.362 192.026 119.003 192.498 118.736C193.131 118.409 193.812 118.186 194.516 118.077C195.82 117.828 197.146 117.71 198.473 117.723C199.122 117.723 199.829 117.75 200.346 117.359C200.916 116.926 201.061 116.143 201.138 115.433C201.214 114.684 201.262 113.932 201.275 113.18C201.297 112.594 201.266 112.008 201.183 111.428C201.103 111.004 201 110.584 200.874 110.172L199.879 106.668C199.468 105.222 200.04 103.636 200.162 102.137C200.191 101.784 200.196 101.372 199.924 101.145C199.827 101.064 199.692 101.008 199.661 100.882C199.646 100.821 199.645 100.759 199.655 100.698C199.666 100.637 199.69 100.579 199.724 100.528C200.251 99.4726 201.043 98.5412 201.766 97.5887C202.98 95.9179 204.107 94.1856 205.142 92.3987C204.818 88.6595 203.244 85.1386 200.674 82.404C200.146 81.8314 199.542 81.2826 198.803 81.024C198.32 80.8766 197.82 80.7958 197.315 80.7839C195.247 80.6441 193.094 80.5201 191.292 79.4805C191.163 79.3909 191.017 79.3289 190.862 79.2984C190.464 79.2536 190.174 79.6467 189.915 79.9581C189.251 80.7496 188.272 81.2035 187.412 81.7866C185.808 82.8763 184.555 84.375 183.397 85.9027Z" fill="#5B5583"/>
<path d="M205.322 93.4786C205.733 94.782 205.694 96.1752 205.828 97.534C205.908 98.354 206.052 99.1665 206.258 99.9641C206.353 100.402 206.522 100.821 206.76 101.202C206.997 101.55 207.337 101.832 207.488 102.225C207.57 102.492 207.606 102.77 207.596 103.049L207.628 104.869C207.695 105.834 207.548 106.802 207.198 107.703L206.061 111.162C205.446 113.035 204.815 114.938 203.707 116.568C203.551 116.844 203.315 117.066 203.029 117.204C202.806 117.263 202.577 117.299 202.346 117.31C201.944 117.382 201.579 117.591 201.315 117.903C201.051 118.214 200.903 118.608 200.898 119.017C200.634 118.631 200.304 118.294 199.924 118.022L197.611 116.175C196.819 115.531 195.993 114.877 195.033 114.505C196.325 114.102 197.471 113.332 198.334 112.289C199.197 111.247 199.738 109.976 199.893 108.632C199.892 108.231 199.982 107.836 200.156 107.476C200.349 107.165 200.705 106.927 200.732 106.56C200.763 106.099 200.241 105.75 200.241 105.289C200.241 104.983 200.468 104.729 200.568 104.442C200.662 104.086 200.662 103.713 200.568 103.357L200.249 101.584C200.23 101.407 200.176 101.234 200.09 101.078C199.971 100.927 199.839 100.788 199.695 100.661C199.146 100.046 199.389 99.0776 199.695 98.3203C200.397 96.6394 201.303 95.0507 202.391 93.5894C202.778 93.0987 203.137 92.586 203.465 92.0538C203.744 91.5683 203.808 90.8955 204.103 90.4707C204.483 91.4681 204.997 92.4522 205.322 93.4786Z" fill="#5B5583"/>
<path d="M194.951 114.613C194.833 114.7 194.731 114.807 194.65 114.929C194.339 115.32 193.925 115.615 193.455 115.782C193.719 115.972 193.959 116.159 194.207 116.352C196.042 117.769 197.722 119.376 199.219 121.146C199.386 120.552 200.38 120.594 200.623 120.027C200.68 119.865 200.698 119.691 200.676 119.521C200.625 118.632 200.498 117.749 200.296 116.882C200.216 116.436 200.035 116.013 199.768 115.647C199.399 115.201 198.824 114.988 198.275 114.803C197.444 114.513 195.795 114.104 194.951 114.613Z" fill="#323444"/>
<path d="M191.654 116.688C190.862 117.273 190.168 118.007 189.279 118.408C188.651 118.693 187.936 118.817 187.388 119.242C187.686 119.899 188.461 120.239 189.182 120.213C189.902 120.142 190.593 119.889 191.189 119.477C191.661 119.186 192.215 118.849 192.73 119.052C192.809 119.453 192.466 119.83 192.466 120.236C192.466 120.643 192.804 120.938 193.136 121.152C194.719 122.173 196.756 122.089 198.642 121.97C198.75 121.974 198.857 121.943 198.945 121.88C198.986 121.833 199.017 121.777 199.037 121.717C199.056 121.658 199.064 121.595 199.059 121.532C199.082 121.115 199.093 120.701 199.096 120.284C199.149 119.948 199.105 119.603 198.97 119.291C198.834 118.979 198.612 118.712 198.331 118.521C197.307 117.641 196.203 116.86 195.033 116.186C193.872 115.514 192.696 115.912 191.654 116.688Z" fill="#FBB3B2"/>
<path d="M184.929 67.313C183.758 67.4528 182.906 68.3684 183.025 69.3631C183.143 70.3578 184.188 71.0438 185.359 70.9013C186.531 70.7589 187.383 69.8459 187.264 68.8539C187.145 67.8618 186.101 67.1731 184.929 67.313ZM185.328 70.6269C184.336 70.7457 183.452 70.1626 183.349 69.3235C183.246 68.4845 183.972 67.7087 184.961 67.59C185.95 67.4713 186.837 68.0544 186.94 68.8934C187.043 69.7325 186.317 70.5082 185.328 70.6269Z" fill="#3C354C"/>
<path d="M179.22 67.9986C178.049 68.1385 177.197 69.054 177.316 70.0461C177.434 71.0382 178.479 71.7268 179.65 71.587C180.822 71.4472 181.674 70.5316 181.555 69.5369C181.436 68.5422 180.392 67.8588 179.22 67.9986ZM179.619 71.31C178.627 71.4287 177.743 70.8456 177.643 70.0092C177.543 69.1728 178.263 68.3944 179.255 68.273C180.247 68.1516 181.13 68.7374 181.231 69.5765C181.331 70.4155 180.608 71.1912 179.619 71.31Z" fill="#3C354C"/>
<path d="M174.981 68.5078L177.526 69.0514L177.276 69.7215L174.875 69.017L174.981 68.5078Z" fill="#3C354C"/>
<path d="M189.171 66.8027L186.823 67.9347L187.227 68.5257L189.393 67.2724L189.171 66.8027Z" fill="#3C354C"/>
<path d="M181.32 68.8817L183.106 68.668L183.014 69.1112L181.481 69.2141L181.32 68.8817Z" fill="#3C354C"/>
<path d="M177.856 68.2831C178.024 67.9216 178.114 67.5287 178.12 67.1301C178.127 66.8915 178.167 66.655 178.242 66.4282C178.371 66.1401 178.569 65.8876 178.817 65.6921C179.64 64.9955 180.819 64.6366 181.982 64.5865C183.251 64.5281 184.513 64.8009 185.644 65.3781C185.99 65.54 186.299 65.7697 186.554 66.0535C186.924 66.5047 187.003 67.0878 187.375 67.5337C187.629 67.8043 187.948 68.0048 188.302 68.1157C188.656 68.2266 189.033 68.2443 189.396 68.167C189.525 67.7079 189.356 67.2224 189.422 66.7527C189.526 66.3503 189.666 65.9582 189.841 65.5812C190.25 64.3754 189.654 62.977 188.425 62.2567C187.995 61.9928 187.486 61.8213 187.164 61.4651C186.842 61.1089 186.765 60.7395 186.544 60.3833C185.955 59.4414 184.433 59.0008 183.275 59.4361C182.911 59.5733 182.589 59.7818 182.22 59.9295C181.534 60.2118 180.753 60.262 179.999 60.357C179.255 60.4257 178.528 60.6165 177.846 60.9216C177.194 61.2435 176.648 61.7607 176.498 62.3781C176.427 62.663 176.442 62.9585 176.371 63.2409C176.007 64.6736 173.657 65.3702 173.525 66.8319C173.477 67.3596 173.765 67.8662 174.124 68.2963C174.371 68.5892 174.965 69.3728 175.385 69.4863C175.804 69.5997 176.123 69.2013 176.524 69.0641C177.157 68.8662 177.54 68.824 177.856 68.2831Z" fill="#CBCEDA"/>
<path d="M207.616 161.215C207.616 174.471 215.932 185.199 226.207 185.199L207.616 161.215Z" fill="#46455B"/>
<path d="M226.207 185.201C226.207 171.794 235.488 160.947 246.956 160.947L226.207 185.201Z" fill="#4CAF50"/>
<path d="M214.354 162.416C214.354 175.01 219.657 185.2 226.208 185.2L214.354 162.416Z" fill="#4CAF50"/>
<path d="M226.207 185.201C226.207 168.072 236.934 154.209 250.187 154.209L226.207 185.201Z" fill="#46455B"/>
<path opacity="0.1" d="M225.402 189.781C227.955 189.781 230.024 189.431 230.024 189C230.024 188.568 227.955 188.219 225.402 188.219C222.85 188.219 220.78 188.568 220.78 189C220.78 189.431 222.85 189.781 225.402 189.781Z" fill="#4CAF50"/>
<path d="M222.297 185.37C222.297 185.37 224.935 185.288 225.726 184.724C226.518 184.159 229.781 183.481 229.979 184.388C230.177 185.296 233.936 188.903 230.963 188.927C227.99 188.95 224.046 188.462 223.255 187.979C222.463 187.497 222.297 185.37 222.297 185.37Z" fill="#A8A8A8"/>
<path opacity="0.2" d="M231.018 188.61C228.043 188.634 224.104 188.146 223.31 187.663C222.706 187.296 222.466 185.974 222.384 185.367H222.297C222.297 185.367 222.463 187.494 223.257 187.977C224.051 188.46 227.99 188.948 230.966 188.924C231.826 188.924 232.121 188.61 232.105 188.159C231.987 188.433 231.673 188.605 231.018 188.61Z" fill="black"/>
<path d="M5.93262 168.961C5.93262 179.515 12.5464 188.043 20.7218 188.043L5.93262 168.961Z" fill="#46455B"/>
<path d="M20.7227 188.042C20.7227 177.377 28.1094 168.746 37.2293 168.746L20.7227 188.042Z" fill="#4CAF50"/>
<path d="M11.291 169.922C11.291 179.948 15.512 188.049 20.7222 188.049L11.291 169.922Z" fill="#4CAF50"/>
<path d="M20.7227 188.042C20.7227 174.414 29.2569 163.385 39.8014 163.385L20.7227 188.042Z" fill="#46455B"/>
<path opacity="0.1" d="M20.0808 191.689C22.1119 191.689 23.7584 191.41 23.7584 191.066C23.7584 190.722 22.1119 190.443 20.0808 190.443C18.0498 190.443 16.4033 190.722 16.4033 191.066C16.4033 191.41 18.0498 191.689 20.0808 191.689Z" fill="#4CAF50"/>
<path d="M17.6123 188.177C17.6123 188.177 19.7096 188.111 20.3401 187.649C20.9706 187.187 23.5691 186.66 23.7248 187.385C23.8804 188.111 26.8773 190.976 24.5162 190.995C22.1551 191.013 19.0131 190.625 18.3826 190.243C17.7521 189.86 17.6123 188.177 17.6123 188.177Z" fill="#A8A8A8"/>
<path opacity="0.2" d="M24.5505 190.764C22.1762 190.783 19.0474 190.395 18.4169 190.009C17.9368 189.719 17.7468 188.666 17.6809 188.184H17.6123C17.6123 188.184 17.7442 189.875 18.3747 190.26C19.0052 190.645 22.1419 191.031 24.5083 191.012C25.1916 191.012 25.429 190.764 25.4158 190.403C25.3209 190.614 25.0597 190.748 24.5505 190.764Z" fill="black"/>
</g>
<defs>
<clipPath id="clip0">
<rect width="250.19" height="200" fill="white"/>
</clipPath>
</defs>
</svg>
